<?xml version="1.0" encoding="UTF-8" standalone="no"?>
<svg
   xmlns:dc="http://purl.org/dc/elements/1.1/"
   xmlns:cc="http://creativecommons.org/ns#"
   xmlns:rdf="http://www.w3.org/1999/02/22-rdf-syntax-ns#"
   xmlns:svg="http://www.w3.org/2000/svg"
   xmlns="http://www.w3.org/2000/svg"
   xmlns:sodipodi="http://sodipodi.sourceforge.net/DTD/sodipodi-0.dtd"
   xmlns:inkscape="http://www.inkscape.org/namespaces/inkscape"
   version="1.0"
   width="1218.000000pt"
   height="1038.000000pt"
   viewBox="0 0 1218.000000 1038.000000"
   preserveAspectRatio="xMidYMid meet"
   id="svg278"
   sodipodi:docname="allen.svg"
   inkscape:version="1.0.2 (e86c870879, 2021-01-15, custom)">
  <defs
     id="defs282" />
  <sodipodi:namedview
     pagecolor="#ffffff"
     bordercolor="#666666"
     borderopacity="1"
     objecttolerance="10"
     gridtolerance="10"
     guidetolerance="10"
     inkscape:pageopacity="0"
     inkscape:pageshadow="2"
     inkscape:window-width="1920"
     inkscape:window-height="1001"
     id="namedview280"
     showgrid="false"
     inkscape:zoom="0.59971098"
     inkscape:cx="812"
     inkscape:cy="692"
     inkscape:window-x="-9"
     inkscape:window-y="-9"
     inkscape:window-maximized="1"
     inkscape:current-layer="g276" />
  <metadata
     id="metadata2">
Created by potrace 1.10, written by Peter Selinger 2001-2011
<rdf:RDF>
  <cc:Work
     rdf:about="">
    <dc:format>image/svg+xml</dc:format>
    <dc:type
       rdf:resource="http://purl.org/dc/dcmitype/StillImage" />
    <dc:title></dc:title>
  </cc:Work>
</rdf:RDF>
</metadata>
  <g
     transform="translate(0.000000,1038.000000) scale(0.100000,-0.100000)"
     fill="#000000"
     stroke="none"
     id="g276">
    <path
       d="M1078 10103 c-22 -6 -23 -26 -3 -43 19 -16 22 -230 3 -260 -7 -10 -10 -21 -7 -24 11 -12 65 -16 79 -7 12 8 12 13 1 35 -11 20 -12 55 -7 159 7 134 7 134 -16 141 -13 3 -25 5 -28 5 -3 -1 -13 -3 -22 -6z"
       id="path4" />
    <path
       d="M1561 10101 c-12 -8 -13 -14 -3 -35 16 -35 59 -36 68 -2 3 14 3 30 -1 35 -8 13 -45 14 -64 2z"
       id="path6" />
    <path
       d="M3533 10088 c-31 -22 -43 -44 -43 -80 0 -19 56 -88 72 -88 19 0 88 -62 88 -79 0 -26 -20 -41 -54 -41 -37 0 -49 7 -65 38 -7 14 -21 22 -37 22 -23 0 -25 -3 -20 -25 17 -68 21 -72 83 -77 102 -9 155 22 155 88 0 42 -25 72 -99 120 -45 28 -53 39 -53 64 0 24 5 31 26 36 21 5 33 -1 68 -35 46 -45 56 -44 56 4 0 48 -18 62 -85 70 -53 5 -64 3 -92 -17z"
       id="path8" />
    <path
       d="M4373 10103 c-25 -5 -30 -22 -12 -40 7 -7 13 -64 15 -145 3 -111 7 -135 21 -145 20 -15 97 -17 123 -3 29 16 60 74 60 115 0 72 -61 131 -109 105 -33 -17 -44 -3 -36 47 4 29 2 49 -6 59 -12 14 -16 15 -56 7z m128 -163 c15 -9 19 -22 19 -64 0 -61 -14 -79 -57 -74 -27 3 -28 6 -31 62 -2 32 -1 65 2 72 6 17 40 18 67 4z"
       id="path10" />
    <path
       d="M4858 10103 c-22 -6 -23 -26 -3 -43 20 -16 22 -230 3 -260 -15 -24 1 -40 42 -40 41 0 57 16 43 40 -9 13 -13 65 -13 159 0 135 -1 139 -22 145 -13 3 -25 5 -28 5 -3 -1 -13 -3 -22 -6z"
       id="path12" />
    <path
       d="M9525 10100 c-4 -6 -4 -22 -1 -36 6 -21 12 -25 39 -22 28 3 32 7 32 33 0 26 -4 30 -32 33 -17 2 -34 -2 -38 -8z"
       id="path14" />
    <path
       d="M525 10091 c-3 -6 4 -15 15 -21 18 -10 20 -20 20 -136 0 -102 -3 -126 -15 -130 -25 -10 -17 -32 14 -39 34 -7 101 3 101 16 0 4 -9 13 -21 19 -17 10 -20 19 -17 62 2 28 8 53 13 55 6 2 33 -31 60 -72 50 -76 74 -93 114 -80 21 6 30 35 11 35 -6 0 -33 24 -60 53 l-49 52 39 36 c58 53 54 99 -12 142 -21 13 -49 17 -117 17 -49 0 -92 -4 -96 -9z m179 -52 c24 -28 25 -32 11 -58 -16 -32 -59 -48 -81 -30 -14 12 -19 74 -8 103 10 26 50 19 78 -15z"
       id="path16" />
    <path
       d="M5540 10091 c0 -5 11 -16 25 -25 24 -16 25 -20 25 -135 0 -118 0 -118 -27 -130 -18 -8 -23 -15 -16 -22 17 -17 85 -22 118 -9 l30 11 -24 18 c-23 17 -23 22 -20 135 4 98 7 120 22 130 35 26 19 36 -58 36 -41 0 -75 -4 -75 -9z"
       id="path18" />
    <path
       d="M8400 10090 c0 -6 7 -13 16 -17 28 -10 35 -53 28 -160 -6 -88 -9 -103 -25 -108 -27 -9 -23 -34 6 -41 28 -7 95 3 95 14 0 4 -9 15 -20 25 -17 14 -20 29 -20 91 0 75 12 106 26 64 4 -13 19 -50 34 -83 16 -33 30 -69 32 -80 4 -24 37 -27 48 -5 5 8 16 35 25 60 10 25 23 59 31 75 7 17 15 38 18 48 13 41 26 1 26 -78 0 -74 -2 -86 -20 -95 -11 -6 -18 -15 -15 -20 10 -16 69 -22 99 -10 27 10 28 12 12 29 -13 14 -16 41 -16 139 0 111 2 122 20 132 36 19 22 31 -32 28 -56 -3 -53 0 -94 -93 -9 -22 -23 -52 -31 -67 -7 -14 -13 -33 -13 -41 0 -42 -24 -21 -56 50 -68 149 -66 148 -123 151 -32 2 -51 -1 -51 -8z"
       id="path20" />
    <path
       d="M1438 10023 c-13 -15 -15 -37 -11 -131 6 -108 7 -114 30 -125 17 -7 33 -8 51 -1 17 7 40 7 61 1 23 -5 43 -5 59 3 23 10 23 12 8 29 -12 13 -16 38 -16 100 0 90 -6 99 -55 81 -26 -10 -27 -11 -11 -29 13 -14 16 -34 14 -81 -4 -75 -21 -94 -62 -67 -23 15 -26 24 -26 74 0 36 5 62 15 73 12 13 12 23 3 53 -13 41 -35 48 -60 20z"
       id="path22" />
    <path
       d="M896 9978 c-86 -76 -54 -218 49 -218 48 0 101 39 91 66 -6 15 -9 15 -32 -1 -34 -22 -73 -16 -97 17 -27 36 -15 48 48 48 69 0 85 7 85 35 0 26 -63 85 -91 85 -8 0 -32 -15 -53 -32z m58 -24 c30 -12 18 -34 -19 -34 -24 0 -35 5 -35 14 0 21 27 31 54 20z"
       id="path24" />
    <path
       d="M1250 9992 c-49 -33 -57 -72 -14 -72 19 0 28 7 35 30 13 37 26 38 41 5 8 -19 9 -28 0 -37 -8 -8 -8 -17 -1 -30 6 -10 9 -33 7 -51 -2 -27 -7 -32 -28 -32 -20 0 -26 6 -28 28 -2 15 1 27 7 27 6 0 11 7 11 15 0 19 -15 19 -44 -1 -32 -20 -41 -60 -22 -89 14 -22 21 -23 93 -20 43 1 81 3 86 4 13 2 7 29 -8 35 -12 4 -15 23 -15 85 l0 79 -36 21 c-42 25 -51 25 -84 3z"
       id="path26" />
    <path
       d="M1760 10000 c0 -5 -6 -10 -13 -10 -19 0 -52 -40 -65 -77 -14 -41 0 -94 34 -128 34 -34 113 -36 145 -2 63 66 47 172 -32 211 -36 18 -69 21 -69 6z m62 -61 c24 -32 28 -116 7 -130 -47 -30 -89 5 -89 74 0 82 42 110 82 56z"
       id="path28" />
    <path
       d="M4644 9976 c-38 -33 -39 -36 -39 -99 0 -58 3 -68 28 -91 28 -26 73 -33 124 -20 54 15 82 124 47 184 -16 26 -75 60 -106 60 -8 0 -32 -15 -54 -34z m95 -32 c21 -26 28 -93 15 -128 -6 -16 -50 -22 -70 -8 -18 11 -36 79 -29 104 9 29 34 58 51 58 7 0 22 -12 33 -26z"
       id="path30" />
    <path
       d="M6205 9977 c-36 -32 -39 -38 -43 -98 -3 -58 -1 -67 23 -91 20 -22 35 -28 68 -28 45 0 52 4 80 37 26 30 13 49 -20 28 -13 -9 -36 -15 -50 -13 -29 3 -69 50 -59 67 4 6 33 11 65 11 59 0 81 11 81 41 0 21 -67 79 -91 79 -8 0 -33 -15 -54 -33z m66 -28 c27 -14 14 -29 -27 -29 -23 0 -34 5 -34 14 0 24 31 32 61 15z"
       id="path32" />
    <path
       d="M6571 9985 l-24 -23 -27 20 c-22 16 -32 18 -47 10 -11 -6 -29 -9 -40 -6 -12 3 -30 1 -42 -6 -17 -9 -19 -15 -11 -30 13 -24 13 -137 0 -145 -17 -10 -11 -33 10 -40 29 -9 80 4 80 21 0 8 -4 14 -9 14 -11 0 -22 98 -15 127 5 18 12 21 40 20 27 -2 39 -10 53 -34 11 -17 38 -43 62 -59 47 -32 52 -42 27 -58 -13 -8 -24 -5 -47 12 -42 30 -53 28 -49 -10 3 -28 7 -33 32 -36 17 -2 49 -1 73 3 39 6 43 9 49 43 7 34 4 39 -45 82 -49 44 -63 72 -40 86 6 3 23 -6 38 -20 28 -27 41 -26 41 5 0 19 -41 49 -67 48 -10 0 -29 -11 -42 -24z"
       id="path34" />
    <path
       d="M6775 9990 c-32 -21 -64 -80 -65 -120 0 -25 33 -89 54 -102 6 -4 32 -8 58 -8 39 0 52 5 73 27 27 30 33 63 12 63 -8 0 -22 -9 -32 -20 -36 -39 -105 -14 -105 38 0 20 5 22 59 22 33 0 66 3 75 6 33 13 10 63 -46 97 -34 21 -45 21 -83 -3z m49 -36 c28 -11 18 -34 -13 -34 -34 0 -51 18 -30 31 17 10 23 11 43 3z"
       id="path36" />
    <path
       d="M8910 9995 c-7 -8 -17 -15 -22 -15 -26 0 -47 -46 -48 -105 0 -51 4 -64 25 -88 34 -36 103 -39 135 -5 24 26 26 48 5 48 -8 0 -15 -4 -15 -10 0 -5 -15 -10 -34 -10 -27 0 -39 7 -56 30 -12 16 -18 34 -15 40 3 5 32 10 64 10 71 0 90 15 72 57 -11 27 -60 63 -86 63 -7 0 -18 -7 -25 -15z m48 -57 c3 -14 -3 -18 -26 -18 -35 0 -45 9 -30 27 15 19 52 12 56 -9z"
       id="path38" />
    <path
       d="M9100 9992 c-31 -21 -40 -32 -40 -55 0 -30 53 -19 60 12 3 14 11 26 17 28 20 7 30 -29 29 -102 -1 -68 -2 -70 -26 -70 -31 0 -41 40 -14 59 12 10 14 15 5 20 -18 12 -94 -42 -87 -60 3 -9 6 -19 6 -24 0 -5 7 -15 15 -24 12 -12 34 -14 101 -11 94 4 109 9 80 31 -16 11 -19 25 -17 78 2 68 -17 116 -45 116 -8 0 -14 5 -14 10 0 16 -42 11 -70 -8z"
       id="path40" />
    <path
       d="M9925 9975 c-42 -43 -44 -63 -8 -105 24 -29 25 -33 10 -42 -10 -5 -17 -21 -17 -37 0 -16 -7 -34 -15 -41 -8 -7 -15 -25 -15 -40 0 -22 7 -32 32 -44 57 -29 127 -12 176 42 26 30 27 40 7 69 -13 18 -27 23 -77 25 -34 2 -63 8 -65 13 -2 6 17 16 42 23 54 14 89 46 82 73 -3 12 3 27 16 40 19 17 20 21 7 29 -8 5 -32 10 -52 10 -20 0 -40 5 -43 10 -12 20 -45 9 -80 -25z m86 -50 c1 -11 1 -30 1 -42 -3 -33 -40 -31 -52 3 -14 36 -12 50 6 69 14 14 19 14 30 3 7 -7 14 -22 15 -33z m42 -183 c24 -26 13 -32 -59 -32 -47 0 -63 4 -68 16 -10 26 3 34 58 34 39 0 57 -5 69 -18z"
       id="path42" />
    <path
       d="M2031 9991 c-7 -5 -30 -7 -50 -4 -26 4 -41 0 -49 -10 -9 -10 -10 -17 -2 -22 14 -8 13 -148 -1 -162 -15 -15 25 -37 55 -29 20 5 22 11 21 93 0 87 0 88 25 88 25 0 25 -1 25 -88 -1 -84 1 -88 23 -94 13 -3 35 0 49 6 20 9 23 14 13 25 -6 8 -12 49 -13 91 -2 67 -5 79 -26 96 -25 21 -48 24 -70 10z"
       id="path44" />
    <path
       d="M3756 9991 c-5 -7 28 -83 85 -193 16 -31 -15 -72 -58 -78 -48 -6 -58 -39 -18 -60 52 -28 101 30 141 165 10 33 26 74 36 90 10 17 18 43 18 58 0 24 -4 28 -22 25 -18 -2 -25 -12 -31 -43 -4 -22 -11 -53 -14 -68 -8 -42 -25 -27 -50 44 -20 58 -25 64 -51 67 -17 2 -33 -1 -36 -7z"
       id="path46" />
    <path
       d="M4105 9990 c-4 -7 -18 -9 -36 -5 -58 13 -64 4 -64 -92 0 -49 -4 -95 -8 -105 -7 -13 -2 -17 22 -23 16 -3 39 -1 51 5 16 9 18 14 10 31 -6 11 -10 47 -8 82 3 56 5 62 26 65 38 6 53 -15 51 -72 -1 -28 -8 -61 -15 -73 -13 -20 -12 -23 7 -33 35 -19 101 5 69 25 -5 3 -10 40 -10 81 l0 75 33 -3 32 -3 3 -68 c2 -43 -2 -74 -9 -83 -16 -20 -5 -28 36 -28 44 0 51 8 37 39 -7 14 -12 55 -12 90 0 78 -23 112 -68 100 -34 -9 -80 -9 -113 0 -17 4 -29 2 -34 -5z"
       id="path48" />
    <path
       d="M5820 9990 c-8 -6 -27 -7 -42 -4 -15 3 -36 0 -48 -6 -16 -9 -18 -15 -10 -30 13 -24 13 -126 0 -151 -9 -16 -7 -21 15 -31 31 -14 83 5 67 25 -14 18 -23 90 -16 126 7 31 23 38 58 25 20 -8 22 -114 4 -144 -11 -17 -10 -22 2 -30 19 -12 51 -12 70 0 11 7 12 13 3 32 -7 13 -13 56 -15 95 -3 58 -8 76 -23 87 -23 18 -44 20 -65 6z"
       id="path50" />
    <path
       d="M5944 9987 c-2 -7 11 -47 31 -89 19 -42 35 -83 35 -90 0 -8 6 -23 14 -33 14 -19 15 -19 35 -1 13 12 21 31 21 51 0 18 7 38 15 45 8 7 15 23 15 37 0 13 7 26 15 29 9 4 15 19 15 35 0 24 -4 29 -24 29 -25 0 -36 -28 -36 -96 0 -55 -42 -41 -54 19 -3 15 -8 38 -11 52 -4 20 -11 25 -36 25 -16 0 -32 -6 -35 -13z"
       id="path52" />
    <path
       d="M9381 9991 c-8 -5 -29 -7 -48 -4 -43 7 -67 -11 -52 -40 7 -12 10 -52 7 -98 -4 -70 -3 -79 14 -85 10 -3 26 -3 36 0 15 5 17 18 17 93 0 87 0 88 25 88 25 0 25 -1 25 -87 0 -82 1 -87 22 -93 13 -3 32 -1 43 5 16 9 18 15 10 30 -5 10 -10 50 -10 89 0 59 -3 73 -22 91 -23 22 -45 25 -67 11z"
       id="path54" />
    <path
       d="M9750 9990 c-8 -6 -27 -7 -42 -4 -15 3 -36 0 -48 -6 -16 -9 -18 -15 -10 -30 13 -24 13 -126 0 -151 -9 -16 -7 -21 15 -31 35 -16 84 5 65 27 -16 19 -23 79 -15 123 4 22 11 32 25 32 44 0 50 -10 50 -75 0 -35 -4 -67 -10 -70 -17 -11 -11 -32 11 -38 31 -8 76 10 61 25 -7 7 -12 44 -12 90 0 65 -3 81 -20 98 -22 22 -47 25 -70 10z"
       id="path56" />
    <path
       d="M9537 9983 c-14 -4 -17 -10 -12 -26 15 -43 17 -118 5 -148 -15 -36 -10 -43 35 -43 43 0 53 9 37 34 -7 12 -12 56 -12 105 0 91 -1 92 -53 78z"
       id="path58" />
    <path
       d="M8583 9280 c-13 -6 -23 -18 -23 -30 0 -25 -28 -27 -37 -2 -9 24 -23 32 -61 32 -29 0 -33 -3 -27 -21 4 -11 20 -33 36 -48 16 -16 29 -37 29 -49 0 -20 -53 -82 -71 -82 -20 0 -7 -30 16 -36 31 -8 52 8 60 47 8 36 24 33 45 -7 19 -36 29 -44 60 -44 55 0 56 15 7 65 -57 57 -62 90 -17 123 17 13 30 31 30 42 0 22 -12 24 -47 10z"
       id="path60" />
    <path
       d="M10768 9283 c-12 -3 -18 -14 -18 -31 0 -33 -22 -96 -34 -102 -10 -5 -45 82 -46 113 0 26 -80 25 -80 -2 0 -10 8 -29 18 -42 10 -13 28 -46 40 -74 13 -27 27 -57 31 -65 4 -8 2 -28 -5 -45 -10 -24 -19 -31 -50 -35 -47 -6 -56 -31 -20 -55 23 -16 27 -16 54 0 28 17 64 76 77 125 9 33 31 84 62 143 34 65 25 84 -29 70z"
       id="path62" />
    <path
       d="M743 9083 c-24 -4 -31 -27 -13 -38 6 -4 10 -61 10 -138 0 -73 4 -138 9 -146 12 -18 111 -27 138 -12 12 6 33 31 47 56 24 40 26 49 17 83 -18 66 -70 104 -111 82 -32 -17 -43 -3 -35 47 4 29 2 49 -6 59 -12 14 -16 15 -56 7z m128 -163 c15 -9 19 -22 19 -64 0 -61 -14 -79 -57 -74 -27 3 -28 6 -31 62 -2 32 -1 65 2 72 6 17 40 18 67 4z"
       id="path64" />
    <path
       d="M1283 9083 c-40 -8 -92 -113 -72 -144 13 -21 11 -137 -3 -159 -15 -24 1 -40 42 -40 41 0 57 16 43 40 -15 23 -17 142 -3 156 6 6 6 22 -2 46 -6 20 -8 44 -4 53 6 16 8 16 31 1 31 -20 51 -20 59 0 8 21 8 20 -10 38 -15 16 -36 18 -81 9z"
       id="path66" />
    <path
       d="M4118 9083 c-20 -5 -24 -29 -6 -35 9 -3 12 -42 10 -139 -1 -74 3 -140 8 -148 5 -9 31 -16 70 -19 54 -4 64 -2 86 19 33 30 54 71 54 102 0 64 -69 130 -114 109 -37 -16 -45 -5 -39 52 5 49 4 53 -18 59 -13 4 -26 6 -29 6 -3 -1 -13 -3 -22 -6z m136 -169 c21 -20 22 -107 2 -124 -8 -6 -25 -10 -38 -8 -19 2 -24 11 -30 53 -11 69 -3 95 26 95 14 0 32 -7 40 -16z"
       id="path68" />
    <path
       d="M6058 9083 c-22 -5 -22 -13 -3 -49 12 -23 15 -56 13 -151 -2 -67 1 -125 5 -130 5 -4 37 -8 73 -8 55 0 67 3 90 26 75 76 12 234 -80 200 -33 -13 -41 2 -32 59 5 32 3 41 -13 50 -20 10 -25 11 -53 3z m147 -183 c19 -37 19 -53 -1 -91 -13 -25 -20 -30 -47 -27 -32 3 -32 4 -35 62 -4 75 1 86 37 86 24 0 34 -7 46 -30z"
       id="path70" />
    <path
       d="M6314 9076 c-11 -29 1 -51 28 -54 33 -4 57 30 37 54 -15 18 -58 18 -65 0z"
       id="path72" />
    <path
       d="M7794 9019 c-8 -14 -8 -304 1 -318 9 -15 42 -14 52 2 4 6 8 38 8 70 l0 59 685 -1 685 0 1 -59 c0 -32 4 -64 8 -70 9 -15 43 -15 52 -1 4 6 7 79 7 162 0 130 -2 153 -16 161 -12 8 -22 8 -35 0 -13 -9 -17 -25 -17 -78 l0 -66 -685 0 -685 0 0 62 c0 35 -4 69 -8 76 -10 15 -43 16 -53 1z"
       id="path74" />
    <path
       d="M9954 9019 c-8 -14 -8 -304 1 -318 9 -15 42 -14 52 2 4 6 8 38 8 70 l0 59 685 -1 685 0 1 -59 c0 -32 4 -64 8 -70 9 -15 43 -15 52 -1 4 6 7 79 7 162 0 130 -2 153 -16 161 -12 8 -22 8 -35 0 -13 -9 -17 -25 -17 -78 l0 -66 -685 0 -685 0 0 62 c0 35 -4 69 -8 76 -10 15 -43 16 -53 1z"
       id="path76" />
    <path
       d="M523 8980 c-13 -5 -23 -18 -23 -29 0 -30 -17 -35 -31 -9 -16 30 -28 38 -61 38 -41 0 -41 -14 -3 -60 19 -23 35 -51 35 -62 0 -11 -19 -37 -42 -59 -35 -33 -40 -41 -28 -49 35 -22 70 -6 70 31 0 24 4 29 25 29 20 0 25 -5 25 -25 0 -27 25 -45 62 -45 47 0 48 19 2 66 -54 56 -63 81 -35 100 36 25 52 46 49 62 -4 20 -17 23 -45 12z"
       id="path78" />
    <path
       d="M1018 8960 c-29 -24 -38 -40 -43 -74 -15 -96 18 -146 94 -146 38 0 52 5 69 25 12 14 22 32 22 40 0 19 -24 19 -40 0 -20 -24 -66 -18 -90 12 -11 14 -19 31 -17 37 2 6 35 13 73 16 66 5 69 6 72 31 2 21 -6 34 -35 58 -47 39 -59 39 -105 1z m56 -26 c30 -12 18 -34 -18 -34 -40 0 -54 14 -29 29 21 12 26 13 47 5z"
       id="path80" />
    <path
       d="M1405 8970 c-48 -32 -65 -60 -65 -115 0 -43 5 -56 31 -84 28 -32 33 -33 84 -29 61 5 90 29 101 86 13 68 -9 113 -73 150 -29 16 -42 15 -78 -8z m64 -37 c10 -10 24 -35 32 -56 12 -33 11 -42 -2 -65 -15 -28 -53 -39 -78 -23 -8 5 -16 32 -19 65 -4 45 -1 61 13 76 22 25 31 25 54 3z"
       id="path82" />
    <path
       d="M1810 8975 c-7 -8 -18 -15 -26 -15 -14 0 -54 -81 -54 -112 0 -27 36 -94 55 -102 9 -3 36 -6 60 -6 35 0 49 6 70 27 24 27 34 63 16 63 -4 0 -20 -9 -34 -20 -46 -37 -107 -15 -107 38 0 20 5 22 59 22 33 0 66 3 75 6 33 13 10 63 -46 97 -34 21 -52 21 -68 2z m34 -41 c30 -12 18 -34 -19 -34 -24 0 -35 5 -35 14 0 21 27 31 54 20z"
       id="path84" />
    <path
       d="M2247 8983 c-4 -3 -7 -19 -7 -35 0 -34 -25 -98 -38 -98 -12 0 -42 78 -42 108 0 19 -5 22 -40 22 -36 0 -40 -3 -40 -25 0 -13 6 -28 13 -32 6 -4 22 -30 35 -58 13 -27 27 -58 33 -67 25 -47 -1 -98 -49 -98 -38 0 -48 -15 -31 -46 15 -28 45 -31 76 -6 25 20 63 89 63 114 0 9 5 20 10 23 6 3 10 17 10 29 0 13 6 29 14 35 8 7 17 24 21 39 4 15 13 35 22 44 27 30 -22 80 -50 51z"
       id="path86" />
    <path
       d="M1678 8970 c-15 -4 -29 -6 -32 -3 -10 10 -66 -9 -66 -23 0 -8 5 -14 10 -14 6 0 10 -32 10 -75 0 -43 -4 -75 -10 -75 -21 0 -9 -28 15 -34 50 -13 104 21 60 38 -11 4 -15 20 -15 56 0 67 14 94 45 86 30 -8 53 17 35 39 -14 17 -14 17 -52 5z"
       id="path88" />
    <path
       d="M6310 8960 c-12 -8 -13 -13 -2 -30 18 -30 16 -134 -4 -151 -14 -12 -14 -14 2 -26 34 -25 106 -10 88 18 -5 8 -11 55 -14 104 -5 87 -6 90 -30 93 -14 1 -32 -2 -40 -8z"
       id="path90" />
    <path
       d="M8583 8260 c-13 -6 -23 -18 -23 -30 0 -25 -28 -27 -37 -2 -9 24 -23 32 -61 32 -29 0 -33 -3 -27 -21 4 -11 20 -33 36 -48 16 -16 29 -37 29 -49 0 -20 -53 -82 -71 -82 -20 0 -7 -30 16 -36 31 -8 52 8 60 47 8 37 25 33 45 -9 17 -37 50 -50 86 -33 l25 11 -45 46 c-56 56 -61 89 -16 122 17 13 30 31 30 42 0 22 -12 24 -47 10z"
       id="path92" />
    <path
       d="M10048 8263 c-12 -3 -18 -14 -18 -31 0 -33 -22 -96 -34 -102 -10 -5 -45 82 -46 113 0 26 -80 25 -80 -2 0 -10 8 -29 18 -42 10 -13 28 -46 40 -74 13 -27 27 -57 31 -65 4 -8 2 -30 -6 -47 -10 -26 -19 -33 -41 -33 -36 0 -56 -14 -49 -34 8 -20 55 -32 76 -19 26 16 69 85 76 122 3 18 10 41 15 50 83 158 85 182 18 164z"
       id="path94" />
    <path
       d="M6375 8090 c-4 -6 -4 -22 -1 -36 6 -21 12 -25 39 -22 28 3 32 7 32 33 0 26 -4 30 -32 33 -17 2 -34 -2 -38 -8z"
       id="path96" />
    <path
       d="M1596 8004 c-15 -21 -16 -30 -7 -50 6 -14 11 -60 11 -102 0 -83 9 -102 46 -102 54 0 75 33 29 44 -24 6 -25 10 -25 76 0 55 4 71 17 79 17 9 17 11 0 45 -20 43 -44 46 -71 10z"
       id="path98" />
    <path
       d="M7795 8009 c-6 -8 -9 -232 -6 -306 1 -7 14 -13 30 -13 35 0 40 10 34 75 -6 71 0 76 78 64 61 -9 1205 -7 1269 2 24 4 25 2 25 -56 1 -71 8 -85 41 -85 26 0 26 -1 28 85 1 58 2 60 26 56 64 -9 1208 -11 1269 -2 77 12 82 8 80 -64 -1 -27 -1 -56 0 -62 1 -14 61 -18 62 -5 4 61 0 302 -5 310 -10 16 -43 15 -53 0 -4 -7 -6 -39 -5 -70 l3 -58 -691 0 -691 0 3 58 c3 64 -4 82 -32 82 -28 0 -35 -18 -32 -82 l3 -58 -691 0 -691 0 3 58 c1 31 -1 63 -5 70 -10 15 -43 16 -52 1z"
       id="path100" />
    <path
       d="M578 7989 c-10 -5 -18 -19 -18 -29 0 -29 -18 -33 -31 -8 -16 30 -28 38 -61 38 -41 0 -41 -14 -3 -60 19 -23 35 -51 35 -62 0 -11 -19 -37 -42 -59 -35 -33 -40 -41 -28 -49 35 -22 70 -6 70 31 0 24 4 29 25 29 20 0 25 -5 25 -25 0 -27 25 -45 62 -45 47 0 48 19 2 66 -54 56 -63 81 -35 100 36 26 52 46 49 63 -4 19 -27 24 -50 10z"
       id="path102" />
    <path
       d="M1028 7981 c-23 -13 -32 -14 -62 -3 -24 9 -41 10 -54 3 -10 -5 -36 -7 -58 -5 -51 6 -74 -8 -56 -36 6 -11 12 -45 12 -75 0 -30 -6 -64 -12 -75 -17 -27 5 -43 51 -36 43 7 47 11 32 39 -7 13 -11 48 -9 82 3 58 4 60 32 63 16 2 33 -2 37 -10 11 -16 0 -128 -13 -145 -14 -17 27 -36 63 -28 24 5 29 10 23 23 -5 10 -9 49 -9 87 l0 70 30 0 30 0 3 -68 c2 -40 -2 -74 -8 -82 -15 -18 21 -38 53 -30 23 6 24 9 20 83 -5 94 -18 129 -52 146 -22 11 -30 10 -53 -3z"
       id="path104" />
    <path
       d="M1218 7982 c-38 -23 -58 -63 -58 -117 0 -53 24 -101 54 -109 45 -12 85 -6 106 16 24 26 26 48 5 48 -8 0 -15 -4 -15 -10 0 -5 -15 -10 -34 -10 -27 0 -39 7 -57 31 -12 17 -18 34 -13 39 5 5 36 10 69 12 49 2 60 6 63 21 7 34 -7 62 -39 80 -36 20 -46 20 -81 -1z m60 -54 c3 -14 -3 -18 -26 -18 -35 0 -45 9 -30 27 15 19 52 12 56 -9z"
       id="path106" />
    <path
       d="M1440 7985 c-7 -8 -18 -15 -24 -15 -20 -1 -43 -44 -50 -96 -5 -44 -3 -55 16 -80 31 -40 37 -44 85 -44 31 0 48 6 63 22 24 26 26 48 5 48 -8 0 -15 -4 -15 -10 0 -5 -15 -10 -34 -10 -27 0 -39 7 -57 31 -12 17 -18 34 -13 39 5 5 36 10 69 12 57 3 60 4 63 31 4 33 -9 51 -51 72 -37 19 -42 19 -57 0z m48 -57 c3 -14 -3 -18 -26 -18 -35 0 -45 9 -30 27 15 19 52 12 56 -9z"
       id="path108" />
    <path
       d="M1759 7977 c-53 -45 -43 -85 31 -132 22 -14 40 -32 40 -40 0 -26 -30 -29 -62 -5 -25 18 -32 20 -39 9 -26 -41 4 -63 78 -57 60 5 83 23 83 64 0 21 -21 43 -84 87 -28 19 -31 33 -16 57 7 12 13 10 34 -13 32 -34 56 -35 56 -3 0 18 -9 29 -32 40 -41 21 -58 20 -89 -7z"
       id="path110" />
    <path
       d="M2187 7993 c-4 -3 -7 -19 -7 -35 0 -34 -25 -98 -38 -98 -12 0 -42 78 -42 108 0 19 -5 22 -40 22 -36 0 -40 -3 -40 -25 0 -13 6 -28 13 -32 6 -4 22 -30 35 -58 13 -27 27 -58 33 -67 25 -47 -1 -98 -49 -98 -38 0 -48 -15 -31 -46 15 -28 45 -31 76 -6 25 20 63 89 63 114 0 9 5 20 10 23 6 3 10 17 10 29 0 13 6 29 14 35 8 7 17 24 21 39 4 15 13 35 22 44 27 30 -22 80 -50 51z"
       id="path112" />
    <path
       d="M4155 7980 c-4 -6 -21 -8 -40 -4 -41 7 -75 -2 -75 -22 0 -8 5 -14 10 -14 6 0 10 -32 10 -75 0 -43 -4 -75 -10 -75 -16 0 -11 -27 6 -34 23 -9 57 -7 74 4 12 7 12 13 1 32 -7 14 -11 49 -9 83 3 59 3 60 33 60 l30 0 3 -68 c2 -40 -2 -74 -8 -82 -16 -20 23 -38 61 -30 24 5 29 10 23 23 -5 10 -9 49 -9 87 l0 70 30 0 c30 0 30 0 33 -62 2 -35 -2 -72 -8 -83 -9 -17 -7 -22 14 -31 30 -14 76 -4 76 16 0 8 -4 15 -10 15 -6 0 -10 29 -10 68 0 89 -7 108 -40 122 -22 9 -36 9 -64 -1 -27 -10 -41 -10 -61 -1 -32 15 -52 15 -60 2z"
       id="path114" />
    <path
       d="M6105 7981 c-4 -7 -19 -9 -40 -5 -41 7 -75 -2 -75 -22 0 -8 5 -14 10 -14 6 0 10 -32 10 -75 0 -43 -4 -75 -10 -75 -16 0 -11 -27 6 -34 23 -9 57 -7 74 4 12 7 12 13 1 32 -7 14 -11 49 -9 83 3 59 3 60 33 60 l30 0 3 -68 c2 -42 -2 -74 -9 -83 -18 -21 33 -41 66 -26 22 10 24 15 15 32 -6 11 -10 48 -8 83 3 62 3 62 33 62 30 0 30 0 33 -62 2 -35 -2 -71 -8 -82 -14 -26 16 -43 59 -35 34 7 37 14 19 32 -7 7 -12 44 -13 88 -1 68 -3 79 -25 96 -17 14 -32 18 -50 13 -32 -9 -78 -9 -111 0 -16 4 -29 2 -34 -4z"
       id="path116" />
    <path
       d="M6381 7971 c-12 -8 -13 -14 -3 -36 17 -36 15 -116 -3 -142 -14 -20 -14 -23 6 -33 22 -12 89 -5 89 8 0 5 -4 12 -10 18 -5 5 -10 50 -12 99 -3 88 -4 90 -28 93 -14 1 -31 -2 -39 -7z"
       id="path118" />
    <path
       d="M8583 7270 c-13 -6 -23 -18 -23 -30 0 -25 -28 -27 -37 -2 -9 24 -23 32 -61 32 -29 0 -33 -3 -27 -21 4 -11 20 -33 36 -48 16 -16 29 -37 29 -49 0 -20 -53 -82 -71 -82 -20 0 -7 -30 16 -36 31 -8 52 8 60 47 8 36 24 33 45 -7 19 -36 29 -44 60 -44 55 0 56 15 7 65 -57 57 -62 90 -17 123 17 13 30 31 30 42 0 22 -12 24 -47 10z"
       id="path120" />
    <path
       d="M1410 7073 c-8 -2 -21 -7 -29 -9 -11 -4 -10 -9 5 -25 27 -30 34 -227 10 -264 -15 -23 -15 -25 5 -35 41 -22 106 12 68 36 -9 5 -10 47 -5 149 6 127 5 143 -9 149 -18 7 -23 7 -45 -1z"
       id="path122" />
    <path
       d="M6314 7066 c-11 -29 1 -51 28 -54 33 -4 57 30 37 54 -15 18 -58 18 -65 0z"
       id="path124" />
    <path
       d="M7789 6995 c0 -8 0 -76 0 -150 0 -74 0 -142 0 -150 1 -10 11 -15 31 -15 32 0 31 -4 34 88 l1 53 685 0 685 0 2 -48 c1 -27 2 -58 2 -70 1 -19 7 -23 31 -23 20 0 30 5 31 15 0 8 0 76 0 150 0 74 0 142 0 150 -1 10 -11 15 -31 15 l-29 0 -3 -70 -3 -71 -685 0 -685 0 -1 53 c-3 92 -2 88 -34 88 -20 0 -30 -5 -31 -15z"
       id="path126" />
    <path
       d="M333 6970 c-13 -6 -23 -18 -23 -30 0 -25 -28 -27 -37 -2 -9 24 -23 32 -60 32 -28 0 -31 -3 -25 -19 4 -11 19 -33 35 -50 15 -17 27 -40 27 -50 0 -20 -54 -81 -71 -81 -20 0 -7 -30 16 -36 31 -8 52 8 60 47 8 36 24 33 45 -7 19 -37 29 -44 61 -44 50 0 51 20 3 67 -53 54 -57 83 -14 123 48 45 38 72 -17 50z"
       id="path128" />
    <path
       d="M620 6971 c0 -5 -11 -12 -24 -15 -29 -7 -66 -67 -66 -107 0 -37 23 -83 52 -103 32 -23 109 -21 140 3 13 11 30 38 38 60 12 36 11 43 -11 87 -13 27 -37 56 -54 65 -32 19 -75 24 -75 10z m55 -56 c20 -20 25 -34 25 -78 0 -57 -8 -67 -50 -67 -45 0 -70 112 -33 152 21 24 29 23 58 -7z"
       id="path130" />
    <path
       d="M1045 6947 c-36 -32 -39 -38 -43 -98 -3 -58 -1 -67 23 -91 35 -38 102 -39 141 -3 17 16 24 30 20 41 -6 15 -8 15 -32 -1 -34 -22 -73 -16 -97 17 -27 36 -15 48 48 48 69 0 85 7 85 35 0 26 -63 85 -91 85 -8 0 -33 -15 -54 -33z m66 -28 c27 -14 14 -29 -27 -29 -23 0 -34 5 -34 14 0 24 31 32 61 15z"
       id="path132" />
    <path
       d="M1580 6970 c0 -5 -6 -10 -14 -10 -21 0 -46 -28 -46 -51 0 -31 52 -22 60 10 3 14 11 26 17 28 16 6 35 -34 28 -57 -3 -11 -2 -27 3 -37 5 -10 7 -33 5 -50 -4 -27 -10 -33 -29 -33 -30 0 -42 26 -25 53 19 30 -2 43 -32 21 -39 -29 -45 -84 -13 -106 15 -10 156 -2 168 10 5 5 3 14 -7 22 -11 9 -15 32 -15 87 0 67 -2 76 -26 98 -27 25 -74 34 -74 15z"
       id="path134" />
    <path
       d="M1998 6957 c-51 -42 -35 -91 45 -140 15 -10 27 -24 27 -33 0 -25 -30 -28 -60 -5 l-29 21 -11 -21 c-9 -15 -8 -24 1 -36 19 -22 127 -14 145 12 31 42 15 71 -68 125 -31 21 -35 27 -26 45 16 30 16 30 42 2 32 -34 56 -35 56 -3 0 18 -9 29 -32 40 -41 21 -58 20 -90 -7z"
       id="path136" />
    <path
       d="M2435 6970 c-4 -6 -9 -35 -12 -66 -3 -30 -10 -57 -15 -60 -17 -11 -37 18 -48 72 l-11 54 -40 0 c-35 0 -39 -3 -39 -25 0 -14 4 -25 8 -25 13 0 82 -146 82 -173 0 -35 -21 -56 -60 -59 -30 -3 -35 -7 -35 -28 0 -17 7 -27 26 -34 34 -12 70 12 94 62 10 20 22 45 26 54 5 10 9 23 9 28 0 12 33 91 55 132 19 34 19 64 -1 72 -22 9 -32 8 -39 -4z"
       id="path138" />
    <path
       d="M4190 6971 c0 -5 -11 -12 -24 -15 -29 -7 -66 -67 -66 -107 0 -37 23 -83 52 -103 12 -9 43 -16 68 -16 25 0 56 7 68 16 29 20 52 66 52 103 0 40 -37 100 -66 107 -13 3 -24 10 -24 15 0 5 -13 9 -30 9 -16 0 -30 -4 -30 -9z m55 -56 c20 -20 25 -34 25 -78 0 -57 -8 -67 -50 -67 -46 0 -70 113 -32 151 23 24 29 23 57 -6z"
       id="path140" />
    <path
       d="M6106 6960 c-75 -48 -88 -147 -27 -202 44 -39 115 -40 157 -1 26 24 29 33 29 89 0 68 -14 92 -68 119 -38 19 -55 18 -91 -5z m68 -35 c14 -9 29 -34 36 -60 11 -39 10 -48 -4 -70 -17 -26 -49 -32 -75 -16 -8 5 -16 32 -19 66 -4 45 -1 59 14 75 23 23 20 23 48 5z"
       id="path142" />
    <path
       d="M780 6953 c0 -10 9 -32 19 -49 10 -17 29 -61 41 -98 13 -36 27 -69 32 -72 17 -11 48 28 48 61 0 18 7 38 15 45 8 7 15 23 15 37 0 13 7 26 15 29 9 4 15 19 15 35 0 24 -4 29 -24 29 -25 0 -36 -28 -36 -96 0 -55 -42 -41 -54 19 -3 15 -8 38 -11 52 -5 21 -11 25 -40 25 -27 0 -35 -4 -35 -17z"
       id="path144" />
    <path
       d="M1827 6964 c-4 -4 -27 -8 -52 -9 -55 -2 -62 -8 -45 -39 16 -31 10 -250 -8 -268 -22 -22 -12 -28 48 -28 63 0 69 4 45 30 -8 9 -16 31 -17 50 -3 35 -3 35 41 35 37 1 48 6 72 35 24 28 29 44 29 86 0 43 -5 57 -29 83 -27 29 -68 41 -84 25z m41 -56 c14 -14 16 -106 3 -126 -5 -8 -22 -12 -42 -10 l-34 3 -3 59 c-2 32 -1 65 2 72 7 17 58 18 74 2z"
       id="path146" />
    <path
       d="M1238 6952 c-19 -4 -24 -27 -8 -37 6 -3 10 -35 10 -70 0 -35 -4 -67 -10 -70 -34 -21 16 -51 65 -39 28 7 32 25 10 44 -18 15 -20 91 -4 122 8 14 17 18 34 14 25 -6 48 13 37 32 -7 11 -91 14 -134 4z"
       id="path148" />
    <path
       d="M6307 6947 c-17 -12 -17 -14 -3 -26 18 -15 23 -135 6 -146 -35 -22 15 -53 66 -41 20 5 24 11 18 24 -4 9 -10 58 -14 107 -5 87 -6 90 -30 93 -14 2 -33 -3 -43 -11z"
       id="path150" />
    <path
       d="M10048 6673 c-12 -3 -18 -14 -18 -31 0 -33 -22 -96 -34 -102 -10 -5 -45 82 -46 113 0 26 -80 25 -80 -2 0 -10 8 -29 18 -42 10 -13 28 -46 40 -74 13 -27 27 -57 31 -65 4 -8 2 -30 -6 -47 -10 -24 -19 -33 -37 -33 -57 0 -76 -31 -31 -52 19 -8 31 -8 50 0 29 14 70 75 80 122 4 19 11 41 16 50 45 83 67 145 58 157 -12 14 -13 14 -41 6z"
       id="path152" />
    <path
       d="M8515 6429 c-4 -5 -7 -78 -8 -162 0 -130 2 -152 16 -161 12 -8 22 -8 35 0 13 9 17 25 17 78 l0 66 1045 0 1045 0 1 -59 c1 -33 4 -67 7 -75 7 -19 43 -21 53 -4 9 14 8 303 -1 317 -8 15 -42 14 -51 -1 -4 -6 -8 -38 -8 -71 l-1 -59 -1045 1 -1045 0 0 58 c0 32 -4 64 -8 71 -10 15 -43 16 -52 1z"
       id="path154" />
    <path
       d="M9145 5831 c-10 -9 -4 -21 24 -53 53 -62 55 -72 17 -111 -18 -19 -39 -36 -46 -39 -8 -2 -11 -11 -7 -22 5 -13 16 -16 39 -14 27 2 34 8 36 30 6 51 52 63 52 13 0 -38 69 -62 98 -33 8 8 3 19 -21 42 -54 50 -70 82 -55 106 7 11 20 22 28 25 17 6 42 53 31 59 -3 2 -19 2 -35 -1 -20 -4 -32 -15 -40 -34 -13 -37 -21 -36 -34 0 -8 23 -17 29 -46 33 -20 2 -39 2 -41 -1z"
       id="path156" />
    <path
       d="M863 5633 c-24 -4 -31 -27 -13 -38 14 -9 13 -68 -2 -83 -9 -9 -9 -15 0 -24 15 -15 16 -144 1 -153 -20 -13 -57 5 -69 34 -16 39 -5 89 27 123 35 37 22 52 -25 27 -45 -24 -72 -68 -72 -116 0 -39 31 -97 56 -107 29 -11 174 6 174 20 0 7 -5 16 -11 20 -8 4 -10 51 -8 146 3 115 1 140 -11 148 -8 5 -17 9 -20 8 -3 0 -15 -3 -27 -5z"
       id="path158" />
    <path
       d="M1383 5633 c-7 -2 -13 -12 -13 -22 0 -44 65 -58 76 -17 3 14 3 30 -1 35 -6 11 -40 13 -62 4z"
       id="path160" />
    <path
       d="M4253 5633 c-24 -4 -31 -27 -13 -38 14 -9 13 -68 -2 -83 -9 -9 -9 -15 0 -24 15 -15 16 -144 1 -153 -20 -13 -57 5 -69 34 -16 39 -5 89 27 123 35 37 22 52 -25 27 -70 -37 -92 -119 -51 -185 11 -19 30 -36 42 -39 18 -3 116 -1 165 4 17 2 15 19 -4 39 -15 14 -16 34 -11 148 4 92 3 134 -6 143 -11 11 -15 12 -54 4z"
       id="path162" />
    <path
       d="M6314 5626 c-11 -29 1 -51 29 -54 21 -3 29 2 36 20 5 14 5 28 -1 36 -14 17 -57 15 -64 -2z"
       id="path164" />
    <path
       d="M6170 5616 c0 -9 5 -16 10 -16 15 0 12 -87 -2 -93 -10 -3 -8 -9 5 -24 11 -13 17 -36 17 -70 0 -67 -7 -83 -35 -83 -39 0 -55 26 -55 85 0 47 3 56 31 80 40 33 27 51 -21 29 -54 -25 -75 -60 -75 -126 0 -49 4 -59 28 -82 27 -25 33 -26 109 -22 45 3 83 8 87 11 3 3 -1 16 -8 27 -10 16 -12 56 -10 157 l4 136 -42 3 c-34 2 -43 0 -43 -12z"
       id="path166" />
    <path
       d="M8509 5555 c0 -8 0 -76 0 -150 0 -74 0 -142 0 -150 1 -10 11 -15 31 -15 32 0 31 -4 34 88 l1 53 685 0 685 0 2 -48 c1 -27 2 -58 2 -70 1 -19 7 -23 31 -23 20 0 30 5 31 15 0 8 0 76 0 150 0 74 0 142 0 150 -1 10 -11 15 -31 15 l-29 0 -3 -70 -3 -71 -685 0 -685 0 -1 53 c-3 92 -2 88 -34 88 -20 0 -30 -5 -31 -15z"
       id="path168" />
    <path
       d="M513 5530 c-13 -6 -23 -18 -23 -30 0 -25 -28 -27 -37 -2 -9 24 -23 32 -60 32 -42 0 -41 -11 2 -59 19 -21 35 -48 35 -59 0 -20 -53 -82 -71 -82 -20 0 -7 -30 16 -36 31 -8 52 8 60 47 8 36 24 33 45 -7 19 -37 29 -44 61 -44 50 0 51 20 3 67 -53 54 -57 83 -14 123 48 45 38 72 -17 50z"
       id="path170" />
    <path
       d="M1795 5522 c-40 -23 -45 -31 -45 -73 0 -25 8 -45 25 -63 21 -23 31 -26 58 -21 63 14 87 33 87 68 0 22 7 36 22 46 21 13 21 14 3 27 -10 8 -33 14 -51 14 -18 0 -36 5 -39 10 -9 14 -26 12 -60 -8z m57 -39 c28 -25 22 -93 -9 -93 -35 0 -56 66 -30 95 16 18 17 18 39 -2z"
       id="path172" />
    <path
       d="M2255 5530 c-4 -6 -9 -35 -12 -66 -3 -30 -10 -57 -15 -60 -17 -11 -37 18 -48 72 l-11 54 -40 0 c-35 0 -39 -3 -39 -25 0 -14 4 -25 8 -25 12 0 82 -146 82 -171 0 -39 -19 -59 -55 -59 -18 0 -37 -5 -40 -10 -11 -18 6 -50 30 -56 31 -8 68 18 90 64 10 20 22 45 26 54 5 10 9 23 9 28 0 12 33 91 55 132 19 34 19 64 -1 72 -22 9 -32 8 -39 -4z"
       id="path174" />
    <path
       d="M1097 5435 c5 -84 4 -95 -12 -101 -37 -14 -50 9 -50 87 0 83 -6 99 -39 99 -23 0 -23 -1 -18 -97 6 -129 12 -136 106 -128 91 8 103 12 88 27 -7 7 -12 46 -12 100 0 86 -1 89 -26 98 -14 6 -29 10 -34 10 -5 0 -6 -43 -3 -95z"
       id="path176" />
    <path
       d="M1263 5521 c-62 -8 -68 -13 -53 -41 12 -23 10 -133 -4 -161 -9 -20 30 -33 70 -23 19 5 23 10 17 23 -4 9 -8 47 -8 86 l0 69 50 1 50 0 3 -64 c2 -48 -1 -68 -13 -81 -16 -17 -15 -19 5 -30 42 -22 99 7 70 36 -5 5 -10 47 -12 94 l-3 85 -42 -3 c-22 -2 -44 2 -48 7 -3 6 -12 10 -18 10 -7 -1 -35 -5 -64 -8z"
       id="path178" />
    <path
       d="M1600 5520 c-8 -5 -27 -7 -42 -4 -34 7 -75 -13 -59 -29 14 -14 14 -150 0 -164 -16 -16 24 -35 57 -27 21 5 24 11 19 28 -14 41 -17 114 -5 136 8 15 19 20 38 18 26 -3 27 -6 30 -67 2 -36 -2 -69 -7 -74 -17 -17 -13 -34 10 -40 30 -8 72 10 62 25 -4 7 -10 50 -14 96 -3 45 -9 86 -15 91 -15 16 -58 22 -74 11z"
       id="path180" />
    <path
       d="M6310 5510 c-12 -8 -13 -13 -2 -30 18 -30 16 -134 -4 -151 -14 -12 -14 -14 2 -26 34 -25 106 -10 88 18 -5 8 -11 55 -14 104 -5 87 -6 90 -30 93 -14 1 -32 -2 -40 -8z"
       id="path182" />
    <path
       d="M1767 5353 c-4 -3 -7 -20 -7 -37 0 -20 -7 -36 -20 -44 -31 -19 -24 -47 16 -71 44 -26 79 -27 130 -2 50 24 71 61 58 99 -9 25 -14 27 -77 30 -48 2 -70 7 -74 17 -6 16 -16 19 -26 8z m131 -75 c27 -27 13 -38 -47 -38 -62 0 -91 16 -69 38 16 16 101 15 116 0z"
       id="path184" />
    <path
       d="M9310 5230 c-6 -4 -14 -35 -17 -69 -8 -90 -42 -81 -64 17 -11 52 -11 52 -50 52 -35 0 -39 -3 -39 -25 0 -14 4 -25 8 -25 13 0 82 -146 82 -173 0 -35 -21 -56 -60 -59 -45 -4 -50 -37 -7 -52 22 -8 32 -6 54 10 14 11 30 27 34 35 18 34 39 83 39 91 0 11 35 92 55 130 8 14 15 35 15 46 0 21 -30 34 -50 22z"
       id="path186" />
    <path
       d="M7795 4989 c-4 -5 -7 -78 -8 -162 0 -130 2 -152 16 -161 12 -8 22 -8 35 0 13 9 17 25 17 78 l0 66 1405 0 1405 0 1 -59 c1 -33 4 -67 7 -75 7 -19 43 -21 53 -4 9 14 8 303 -1 317 -8 15 -42 14 -51 -1 -4 -6 -8 -38 -8 -70 l-1 -59 -1405 0 -1405 0 0 58 c0 32 -4 64 -8 71 -10 15 -43 16 -52 1z"
       id="path188" />
    <path
       d="M8425 4391 c-10 -9 -4 -21 24 -53 53 -62 55 -72 17 -111 -18 -19 -39 -36 -46 -39 -8 -2 -11 -11 -7 -22 5 -13 16 -16 39 -14 27 2 34 8 36 30 6 51 52 63 52 13 0 -38 69 -62 98 -33 8 8 3 19 -21 42 -54 50 -70 82 -55 106 7 11 20 22 28 25 17 6 42 53 31 59 -3 2 -19 2 -35 -1 -20 -4 -32 -15 -40 -34 -13 -37 -21 -36 -34 0 -8 23 -17 29 -46 33 -20 2 -39 2 -41 -1z"
       id="path190" />
    <path
       d="M6285 4190 c-4 -6 -4 -22 -1 -36 6 -21 12 -25 39 -22 28 3 32 7 32 33 0 26 -4 30 -32 33 -17 2 -34 -2 -38 -8z"
       id="path192" />
    <path
       d="M1058 4113 c-26 -28 -26 -29 -19 -130 9 -130 27 -153 96 -121 19 8 32 9 43 2 13 -8 180 -11 280 -5 17 1 15 28 -3 35 -11 4 -15 20 -15 58 0 64 11 83 47 84 15 1 35 3 43 5 12 3 15 -11 15 -84 0 -99 7 -111 65 -102 41 6 40 6 105 -1 64 -7 102 7 111 42 9 34 -2 51 -57 90 -46 32 -55 49 -40 74 8 12 14 10 35 -13 32 -34 56 -35 56 -3 0 18 -9 29 -32 40 -41 21 -53 20 -88 -6 -22 -16 -30 -30 -30 -53 0 -32 19 -55 73 -88 15 -10 27 -24 27 -33 0 -25 -30 -28 -62 -4 -16 12 -31 20 -32 18 -2 -1 -7 -11 -12 -20 -8 -15 -13 -15 -34 -5 -22 11 -25 20 -28 71 -2 42 1 63 12 75 13 14 13 23 4 54 -7 23 -17 37 -28 37 -18 0 -50 -30 -50 -46 0 -5 -28 -8 -63 -8 -78 2 -107 -4 -107 -22 0 -8 5 -14 10 -14 6 0 10 -32 10 -75 0 -73 -1 -75 -25 -75 -30 0 -40 31 -32 92 6 46 -14 98 -38 98 -8 0 -15 5 -15 10 0 19 -43 10 -77 -16 -42 -32 -45 -67 -6 -62 19 2 29 10 33 27 3 14 11 26 17 28 20 7 30 -29 29 -102 -1 -68 -2 -70 -26 -70 -20 0 -26 6 -28 28 -2 15 1 27 7 27 6 0 11 7 11 15 0 19 -5 19 -42 -2 -17 -11 -32 -29 -35 -46 -7 -34 -12 -37 -40 -26 -21 7 -23 15 -23 72 0 38 5 71 14 82 10 15 11 25 3 45 -21 49 -31 53 -59 23z"
       id="path194" />
    <path
       d="M7789 4115 c0 -8 0 -76 0 -150 0 -74 0 -142 0 -150 1 -10 11 -15 31 -15 32 0 31 -4 34 88 l1 53 685 0 685 0 2 -48 c1 -27 2 -58 2 -70 1 -19 7 -23 31 -23 20 0 30 5 31 15 0 8 0 76 0 150 0 74 0 142 0 150 -1 10 -11 15 -31 15 l-29 0 -3 -70 -3 -71 -685 0 -685 0 -1 53 c-3 92 -2 88 -34 88 -20 0 -30 -5 -31 -15z"
       id="path196" />
    <path
       d="M633 4090 c-13 -6 -23 -18 -23 -30 0 -25 -28 -27 -37 -2 -4 9 -11 20 -17 24 -16 11 -76 10 -76 -1 0 -10 50 -74 63 -79 4 -2 7 -14 7 -27 0 -23 -52 -85 -71 -85 -20 0 -7 -30 16 -36 31 -8 52 8 60 47 8 36 24 33 45 -7 19 -37 29 -44 61 -44 50 0 51 20 3 67 -53 54 -57 83 -14 123 48 45 38 72 -17 50z"
       id="path198" />
    <path
       d="M870 4070 c-27 -25 -31 -35 -25 -57 3 -15 10 -30 13 -33 4 -3 26 -17 50 -33 43 -28 54 -53 28 -63 -8 -3 -28 4 -45 17 -33 24 -61 20 -61 -10 0 -27 29 -41 85 -41 35 0 51 6 70 25 14 13 25 30 25 37 0 23 -29 56 -70 79 -28 16 -40 29 -40 45 0 34 20 41 42 15 19 -24 48 -22 48 3 0 17 -43 46 -69 46 -10 0 -33 -14 -51 -30z"
       id="path200" />
    <path
       d="M2135 4090 c-4 -6 -9 -35 -12 -66 -3 -30 -10 -57 -15 -60 -17 -11 -37 18 -48 72 l-11 54 -40 0 c-35 0 -39 -3 -39 -25 0 -14 4 -25 8 -25 13 0 82 -146 82 -173 0 -35 -21 -56 -60 -59 -30 -3 -35 -7 -35 -28 0 -17 7 -27 26 -34 34 -12 70 12 94 62 10 20 22 45 26 54 5 10 9 23 9 28 0 12 33 91 55 132 19 34 19 64 -1 72 -22 9 -32 8 -39 -4z"
       id="path202" />
    <path
       d="M4163 4074 c-20 -15 -33 -34 -33 -48 0 -23 33 -59 83 -89 15 -10 27 -24 27 -31 0 -27 -32 -27 -66 -1 l-34 26 -11 -25 c-18 -38 2 -56 62 -56 66 0 97 14 105 46 9 34 -2 52 -55 88 -46 31 -57 47 -47 73 6 14 11 12 36 -12 31 -30 60 -28 60 4 0 20 -48 51 -79 51 -9 0 -31 -12 -48 -26z"
       id="path204" />
    <path
       d="M6113 4074 c-20 -15 -33 -34 -33 -48 0 -23 33 -59 83 -89 15 -10 27 -24 27 -33 0 -27 -30 -27 -65 0 l-35 27 -11 -25 c-9 -20 -9 -29 2 -42 11 -13 26 -15 77 -11 72 5 84 15 80 66 -3 28 -11 40 -48 66 -46 32 -60 59 -41 78 7 7 18 3 37 -16 33 -33 44 -34 44 -3 0 25 -37 56 -67 56 -10 0 -33 -12 -50 -26z"
       id="path206" />
    <path
       d="M6287 4069 c-12 -7 -15 -14 -8 -22 11 -14 16 -133 6 -164 -8 -26 20 -38 65 -28 27 6 44 35 20 35 -5 0 -11 42 -12 93 -3 90 -4 92 -28 94 -14 2 -33 -2 -43 -8z"
       id="path208" />
    <path
       d="M8590 3790 c-6 -4 -14 -35 -17 -69 -8 -90 -42 -81 -64 17 -11 52 -11 52 -50 52 -35 0 -39 -3 -39 -25 0 -14 4 -25 8 -25 13 0 82 -146 82 -173 0 -35 -21 -56 -60 -59 -45 -4 -50 -37 -7 -52 22 -8 32 -6 54 10 14 11 30 27 34 35 18 34 39 83 39 91 0 11 35 92 55 130 8 14 15 35 15 46 0 21 -30 34 -50 22z"
       id="path210" />
    <path
       d="M7795 3549 c-4 -5 -7 -78 -8 -162 0 -130 2 -152 16 -161 12 -8 22 -8 35 0 13 9 17 25 17 78 l0 66 1045 0 1045 0 1 -59 c1 -33 4 -67 7 -75 7 -19 43 -21 53 -4 9 14 8 303 -1 317 -8 15 -42 14 -51 -1 -4 -6 -8 -38 -8 -70 l-1 -59 -1045 0 -1045 -1 -1 59 c0 33 -4 65 -8 71 -9 15 -43 16 -51 1z"
       id="path212" />
    <path
       d="M9303 2950 c-13 -6 -23 -18 -23 -30 0 -25 -28 -27 -37 -2 -9 24 -23 32 -61 32 -29 0 -33 -3 -27 -21 4 -11 20 -33 36 -48 16 -16 29 -37 29 -49 0 -20 -53 -82 -71 -82 -20 0 -7 -30 16 -36 31 -8 52 8 60 47 8 36 24 33 45 -7 19 -36 29 -44 60 -44 55 0 56 15 7 65 -57 57 -62 90 -17 123 17 13 30 31 30 42 0 22 -12 24 -47 10z"
       id="path214" />
    <path
       d="M717 2753 c-33 -5 -62 -31 -72 -65 -3 -12 -11 -33 -17 -46 -9 -17 -9 -25 0 -34 19 -19 16 -143 -4 -159 -14 -12 -14 -14 2 -26 22 -16 49 -17 75 -3 18 10 18 13 4 33 -23 33 -20 129 5 152 17 15 17 19 5 32 -31 31 -6 91 33 79 12 -4 22 -12 22 -17 0 -12 47 -12 55 1 4 6 -1 22 -9 35 -17 25 -32 28 -99 18z"
       id="path216" />
    <path
       d="M1143 2753 c-7 -2 -13 -12 -13 -22 0 -44 65 -58 76 -17 3 14 3 30 -1 35 -6 11 -40 13 -62 4z"
       id="path218" />
    <path
       d="M1453 2753 c-26 -5 -29 -13 -10 -31 14 -15 18 -256 4 -283 -6 -13 -2 -18 18 -23 42 -11 68 2 60 27 -13 41 -17 87 -11 122 6 28 11 35 30 35 37 0 48 -23 43 -82 -2 -29 -8 -63 -11 -74 -6 -17 -3 -23 18 -28 38 -9 69 9 56 34 -5 10 -10 49 -10 87 0 75 -4 84 -39 103 -19 10 -28 10 -47 -1 -32 -17 -38 -8 -35 56 1 30 -2 55 -8 55 -5 0 -15 2 -23 4 -7 2 -23 1 -35 -1z"
       id="path220" />
    <path
       d="M4240 2753 c-26 -10 -60 -53 -60 -77 0 -12 -6 -28 -12 -34 -10 -10 -10 -17 0 -32 18 -29 16 -144 -3 -160 -8 -7 -15 -16 -15 -21 0 -12 66 -22 95 -15 28 7 34 31 10 40 -11 4 -15 22 -15 75 0 61 3 70 20 76 11 3 20 10 20 14 0 4 -9 16 -20 26 -23 21 -26 48 -6 64 10 9 16 8 26 -4 7 -8 23 -15 36 -15 19 0 24 5 24 25 0 37 -51 56 -100 38z"
       id="path222" />
    <path
       d="M6220 2753 c-36 -7 -65 -38 -85 -88 -12 -33 -14 -49 -6 -64 17 -32 14 -131 -5 -152 -15 -17 -15 -19 9 -30 14 -6 36 -9 49 -6 24 6 24 9 20 91 -2 47 0 91 6 102 7 12 7 25 0 40 -13 28 -3 74 16 74 8 0 27 -8 44 -17 37 -21 66 -12 56 19 -11 37 -33 44 -104 31z"
       id="path224" />
    <path
       d="M8509 2675 c0 -8 0 -76 0 -150 0 -74 0 -142 0 -150 1 -10 11 -15 31 -15 32 0 31 -4 34 88 l1 53 685 0 685 0 2 -48 c1 -27 2 -58 2 -70 1 -19 7 -23 31 -23 20 0 30 5 31 15 0 8 0 76 0 150 0 74 0 142 0 150 -1 10 -11 15 -31 15 l-29 0 -3 -70 -3 -71 -685 0 -685 0 -1 53 c-3 92 -2 88 -34 88 -20 0 -30 -5 -31 -15z"
       id="path226" />
    <path
       d="M403 2650 c-13 -5 -23 -18 -23 -29 0 -30 -17 -35 -31 -9 -16 30 -28 38 -61 38 -37 0 -36 -23 2 -67 17 -18 30 -43 30 -54 0 -11 -19 -38 -42 -60 -35 -33 -40 -41 -28 -49 35 -22 70 -6 70 31 0 24 4 29 25 29 20 0 25 -5 25 -25 0 -27 25 -45 62 -45 47 0 48 19 2 66 -54 56 -63 81 -35 100 36 25 52 46 49 62 -4 20 -17 23 -45 12z"
       id="path228" />
    <path
       d="M1282 2629 c-18 -17 -32 -37 -32 -44 0 -19 38 -63 67 -77 35 -17 51 -44 36 -59 -13 -13 -46 -4 -68 17 -19 19 -35 10 -35 -21 0 -14 7 -26 19 -30 19 -6 120 1 128 9 2 2 6 19 10 39 6 37 -8 57 -71 100 -27 18 -35 51 -15 63 6 3 23 -6 38 -20 28 -27 41 -26 41 5 0 18 -46 49 -73 49 -7 0 -28 -14 -45 -31z"
       id="path230" />
    <path
       d="M1736 2640 c-18 -12 -37 -38 -48 -65 -15 -39 -16 -53 -7 -86 18 -59 42 -79 95 -79 35 0 50 5 68 25 29 31 38 31 51 3 8 -19 19 -23 67 -26 48 -2 60 0 77 19 39 42 22 80 -56 125 -22 12 -33 26 -33 41 0 34 20 38 44 8 24 -30 46 -27 46 4 0 21 -40 51 -67 51 -29 0 -73 -47 -73 -79 0 -28 21 -52 73 -84 15 -10 27 -24 27 -33 0 -23 -27 -28 -55 -10 -13 9 -33 16 -44 16 -11 0 -21 6 -24 13 -3 9 -12 8 -37 -5 -17 -10 -42 -18 -54 -18 -28 0 -56 29 -56 58 0 20 5 22 59 22 71 0 90 15 72 58 -7 16 -27 36 -47 45 -42 20 -41 20 -78 -3z m55 -41 c27 -14 14 -29 -27 -29 -23 0 -34 5 -34 14 0 24 31 32 61 15z"
       id="path232" />
    <path
       d="M2367 2653 c-4 -3 -7 -19 -7 -35 0 -34 -25 -98 -38 -98 -12 0 -42 78 -42 108 0 19 -5 22 -40 22 -36 0 -40 -3 -40 -25 0 -13 6 -28 13 -32 6 -4 22 -30 35 -58 13 -27 27 -58 33 -67 25 -47 -1 -98 -49 -98 -38 0 -48 -15 -31 -46 15 -28 45 -31 76 -6 25 20 63 89 63 114 0 9 5 20 10 23 6 3 10 17 10 29 0 13 6 29 14 35 8 7 17 24 21 39 4 15 13 35 22 44 27 30 -22 80 -50 51z"
       id="path234" />
    <path
       d="M990 2640 c-8 -6 -27 -7 -42 -4 -15 3 -36 0 -48 -6 -16 -9 -18 -15 -10 -30 13 -24 13 -126 0 -151 -9 -16 -7 -21 15 -31 31 -14 83 5 67 25 -13 16 -22 95 -15 129 6 28 23 35 57 22 20 -8 23 -114 4 -144 -16 -25 -6 -34 37 -34 43 0 51 8 37 37 -6 12 -12 55 -14 94 -3 58 -8 76 -23 87 -23 18 -44 20 -65 6z"
       id="path236" />
    <path
       d="M6276 2641 c-34 -7 -43 -23 -21 -41 17 -14 22 -135 5 -145 -35 -22 15 -53 65 -41 24 6 36 36 15 36 -6 0 -10 36 -10 89 0 98 -7 111 -54 102z"
       id="path238" />
    <path
       d="M750 2630 c-13 -9 -13 -12 3 -21 13 -8 17 -24 17 -75 0 -36 -5 -74 -11 -86 -6 -11 -9 -22 -7 -24 9 -9 64 -14 73 -7 7 5 9 46 5 113 l-5 105 -30 3 c-16 1 -37 -2 -45 -8z"
       id="path240" />
    <path
       d="M1140 2630 c-12 -8 -13 -13 -2 -30 15 -25 16 -124 0 -150 -16 -25 -6 -34 37 -34 43 0 51 8 37 37 -7 12 -13 58 -14 102 -3 71 -5 80 -23 83 -11 1 -27 -2 -35 -8z"
       id="path242" />
    <path
       d="M9150 2332 c0 -11 8 -30 18 -43 10 -13 28 -46 40 -74 13 -27 27 -57 31 -65 4 -8 2 -30 -6 -47 -10 -24 -19 -33 -37 -33 -57 0 -76 -31 -31 -52 19 -8 31 -8 50 0 29 14 70 75 80 122 4 19 11 41 16 50 32 59 67 145 63 152 -3 4 -18 8 -35 8 -25 0 -29 -4 -29 -27 0 -34 -25 -108 -36 -108 -5 0 -18 29 -30 65 -20 63 -22 65 -58 68 -30 3 -36 0 -36 -16z"
       id="path244" />
    <path
       d="M7795 2109 c-4 -5 -7 -78 -8 -162 0 -130 2 -152 16 -161 12 -8 22 -8 35 0 13 9 17 25 17 78 l0 66 1045 0 1045 0 1 -59 c1 -33 4 -67 7 -75 7 -19 43 -21 53 -4 9 14 8 303 -1 317 -8 15 -42 14 -51 -1 -4 -6 -8 -38 -8 -71 l-1 -59 -1045 1 -1045 0 0 58 c0 32 -4 64 -8 71 -10 15 -43 16 -52 1z"
       id="path246" />
    <path
       d="M8583 1510 c-13 -6 -23 -18 -23 -30 0 -25 -28 -27 -37 -2 -9 24 -23 32 -61 32 -29 0 -33 -3 -27 -21 4 -11 20 -33 36 -48 16 -16 29 -37 29 -49 0 -20 -53 -82 -71 -82 -20 0 -7 -30 16 -36 31 -8 52 8 60 47 8 36 24 33 45 -7 19 -36 29 -44 60 -44 55 0 56 15 7 65 -57 57 -62 90 -17 123 17 13 30 31 30 42 0 22 -12 24 -47 10z"
       id="path248" />
    <path
       d="M1748 1313 c-21 -5 -24 -29 -6 -35 9 -3 14 -40 16 -116 6 -152 -3 -180 -47 -153 -10 7 -14 27 -12 70 2 65 -18 121 -44 121 -8 0 -15 5 -15 10 0 16 -38 12 -68 -7 -33 -21 -42 -33 -42 -56 0 -30 53 -19 60 12 3 14 11 26 17 28 20 7 30 -29 29 -102 -1 -68 -2 -70 -26 -70 -20 0 -26 6 -28 28 -2 15 1 27 7 27 6 0 11 7 11 15 0 22 -14 19 -49 -11 -35 -29 -40 -63 -13 -86 14 -12 44 -15 155 -13 75 1 140 5 143 8 3 3 1 14 -5 25 -6 12 -11 79 -11 160 0 136 -1 140 -22 146 -13 3 -25 5 -28 5 -3 -1 -13 -3 -22 -6z"
       id="path250" />
    <path
       d="M7789 1235 c0 -8 0 -76 0 -150 0 -74 0 -142 0 -150 1 -10 11 -15 31 -15 32 0 31 -4 34 88 l1 53 685 0 685 0 2 -48 c1 -27 2 -58 2 -70 1 -19 7 -23 31 -23 20 0 30 5 31 15 0 8 0 76 0 150 0 74 0 142 0 150 -1 10 -11 15 -31 15 l-29 0 -3 -70 -3 -71 -685 0 -685 0 -1 53 c-3 92 -2 88 -34 88 -20 0 -30 -5 -31 -15z"
       id="path252" />
    <path
       d="M476 1213 c-11 -11 -6 -22 23 -55 53 -62 55 -72 17 -111 -18 -19 -39 -36 -46 -39 -8 -2 -11 -11 -7 -22 5 -13 16 -16 39 -14 27 2 34 8 36 30 6 51 52 63 52 13 0 -38 69 -62 98 -33 8 8 3 19 -21 42 -54 50 -70 82 -55 106 7 11 20 23 29 25 15 5 36 52 27 60 -2 2 -16 1 -32 -2 -20 -4 -32 -15 -40 -34 -13 -36 -24 -37 -32 -4 -4 17 -15 27 -33 31 -14 3 -31 7 -38 9 -6 2 -14 1 -17 -2z"
       id="path254" />
    <path
       d="M889 1202 c-55 -36 -64 -52 -64 -118 0 -55 3 -65 28 -88 37 -35 106 -37 137 -4 24 26 26 48 5 48 -8 0 -15 -4 -15 -10 0 -5 -16 -10 -35 -10 -25 0 -39 6 -49 23 -30 46 -26 52 44 57 53 4 65 8 68 23 7 34 -7 62 -39 80 -37 21 -46 20 -80 -1z m59 -54 c3 -14 -3 -18 -26 -18 -35 0 -45 9 -30 27 15 19 52 12 56 -9z"
       id="path256" />
    <path
       d="M1104 1201 c-36 -18 -59 -57 -69 -114 -5 -29 -1 -46 15 -72 23 -38 46 -47 100 -43 35 3 35 3 33 -37 -2 -22 -9 -43 -18 -48 -30 -17 -13 -27 45 -27 60 0 70 6 48 28 -7 7 -12 62 -14 152 -2 78 -6 145 -9 151 -4 5 -17 9 -30 9 -13 0 -27 5 -30 10 -8 14 -34 10 -71 -9z m68 -38 c13 -12 18 -30 18 -69 0 -67 -7 -84 -34 -84 -43 0 -60 23 -60 80 0 43 4 55 25 71 29 23 28 23 51 2z"
       id="path258" />
    <path
       d="M2158 1213 c-12 -3 -18 -14 -18 -31 0 -33 -22 -96 -34 -102 -10 -5 -45 82 -46 113 0 26 -80 25 -80 -2 0 -10 8 -29 18 -42 10 -13 28 -46 40 -74 13 -27 27 -57 31 -65 4 -8 2 -28 -5 -45 -10 -24 -19 -31 -50 -35 -49 -6 -59 -39 -19 -60 23 -12 30 -12 53 1 30 16 66 77 77 130 4 18 11 40 16 49 45 83 67 145 58 157 -12 14 -13 14 -41 6z"
       id="path260" />
    <path
       d="M4048 1195 c-64 -42 -75 -147 -22 -200 36 -36 104 -35 139 2 14 15 25 31 25 35 0 12 -28 10 -35 -2 -3 -5 -21 -10 -39 -10 -37 0 -66 25 -66 58 0 20 5 22 48 22 69 0 92 9 92 34 -1 25 -16 45 -52 69 -35 22 -45 21 -90 -8z m63 -36 c27 -14 14 -29 -27 -29 -23 0 -34 5 -34 14 0 24 31 32 61 15z"
       id="path262" />
    <path
       d="M4256 1188 c-45 -41 -62 -110 -40 -164 18 -44 44 -57 99 -48 45 6 45 6 45 -24 0 -16 -9 -41 -20 -55 -11 -14 -20 -28 -20 -31 0 -3 27 -6 60 -6 33 0 60 2 60 5 0 4 -7 20 -16 37 -12 23 -15 58 -14 152 3 156 5 146 -29 146 -17 0 -33 5 -36 10 -12 20 -52 9 -89 -22z m86 -25 c21 -19 26 -121 6 -141 -33 -33 -88 9 -88 68 0 25 8 45 25 64 28 31 33 31 57 9z"
       id="path264" />
    <path
       d="M6058 1195 c-63 -42 -75 -148 -23 -201 35 -35 107 -34 140 2 14 15 25 30 25 35 0 16 -18 18 -30 4 -31 -37 -110 -6 -110 43 0 19 6 21 61 24 72 3 92 21 71 60 -13 24 -64 58 -85 57 -7 0 -29 -11 -49 -24z m56 -31 c30 -12 18 -34 -19 -34 -24 0 -35 5 -35 14 0 21 27 31 54 20z"
       id="path266" />
    <path
       d="M6310 1211 c0 -5 -10 -11 -22 -14 -48 -12 -79 -116 -52 -172 21 -45 44 -57 97 -53 l42 3 -3 -40 c-2 -22 -10 -44 -18 -48 -30 -17 -12 -27 47 -27 55 0 60 2 53 18 -5 9 -11 85 -14 167 l-5 150 -30 3 c-16 2 -34 8 -39 13 -13 12 -56 12 -56 0z m54 -53 c16 -22 22 -102 10 -132 -8 -20 -44 -21 -69 -2 -14 10 -19 26 -19 66 0 43 4 55 25 71 31 24 35 24 53 -3z"
       id="path268" />
    <path
       d="M1296 1128 c7 -119 13 -145 30 -152 16 -6 155 2 163 9 2 3 -1 16 -7 29 -7 15 -9 52 -5 97 5 63 4 74 -12 85 -11 8 -26 14 -36 14 -14 0 -16 -11 -11 -94 5 -101 0 -113 -44 -102 -23 6 -24 10 -24 91 0 73 -3 86 -19 95 -37 19 -41 13 -35 -72z"
       id="path270" />
    <path
       d="M8430 892 c0 -11 8 -30 18 -43 10 -13 28 -46 40 -74 13 -27 27 -57 31 -65 4 -8 2 -30 -6 -47 -10 -24 -19 -33 -37 -33 -57 0 -76 -31 -31 -52 19 -8 31 -8 50 0 29 14 70 75 80 122 4 19 11 41 16 50 32 59 67 145 63 152 -3 4 -18 8 -35 8 -25 0 -29 -4 -29 -27 0 -34 -25 -108 -36 -108 -5 0 -18 29 -30 65 -20 63 -22 65 -58 68 -30 3 -36 0 -36 -16z"
       id="path272" />
    <path
       d="M7795 669 c-4 -5 -7 -78 -8 -162 0 -130 2 -152 16 -161 12 -8 22 -8 35 0 13 9 17 25 17 78 l0 66 685 0 685 0 1 -59 c1 -33 4 -67 7 -75 7 -19 43 -21 53 -4 9 14 8 303 -1 317 -8 15 -42 14 -51 -1 -4 -6 -8 -38 -8 -71 l-1 -59 -685 0 -685 0 -1 59 c0 33 -4 65 -8 71 -9 15 -43 16 -51 1z"
       id="path274" />
  </g>
</svg>
