<?xml version="1.0" encoding="UTF-8" standalone="no"?>
<svg
   xmlns:dc="http://purl.org/dc/elements/1.1/"
   xmlns:cc="http://creativecommons.org/ns#"
   xmlns:rdf="http://www.w3.org/1999/02/22-rdf-syntax-ns#"
   xmlns:svg="http://www.w3.org/2000/svg"
   xmlns="http://www.w3.org/2000/svg"
   xmlns:sodipodi="http://sodipodi.sourceforge.net/DTD/sodipodi-0.dtd"
   xmlns:inkscape="http://www.inkscape.org/namespaces/inkscape"
   width="1701"
   height="470"
   viewBox="0 0 450.05626 124.35419"
   version="1.1"
   id="svg1351"
   inkscape:version="1.0.2 (e86c870879, 2021-01-15, custom)"
   sodipodi:docname="lovepdf.svg">
  <defs
     id="defs1345">
    <rect
       x="106.96726"
       y="26.458332"
       width="48.002975"
       height="17.386906"
       id="rect2574" />
    <marker
       style="overflow:visible"
       id="Arrow2Lend"
       refX="0"
       refY="0"
       orient="auto"
       inkscape:stockid="Arrow2Lend"
       inkscape:isstock="true">
      <path
         transform="matrix(-1.1,0,0,-1.1,-1.1,0)"
         d="M 8.7185878,4.0337352 -2.2072895,0.01601326 8.7185884,-4.0017078 c -1.7454984,2.3720609 -1.7354408,5.6174519 -6e-7,8.035443 z"
         style="fill:#000000;fill-opacity:1;fill-rule:evenodd;stroke:#000000;stroke-width:0.625;stroke-linejoin:round;stroke-opacity:1"
         id="path1024" />
    </marker>
    <clipPath
       id="clip0">
      <rect
         x="0"
         y="0"
         width="1280"
         height="720"
         id="rect1945" />
    </clipPath>
    <clipPath
       id="clip0-6">
      <rect
         x="0"
         y="0"
         width="1280"
         height="720"
         id="rect1990" />
    </clipPath>
    <clipPath
       id="clip0-2">
      <rect
         x="0"
         y="0"
         width="1280"
         height="720"
         id="rect2038" />
    </clipPath>
    <clipPath
       id="clip0-8">
      <rect
         x="0"
         y="0"
         width="1280"
         height="720"
         id="rect2110" />
    </clipPath>
    <marker
       style="overflow:visible"
       id="Arrow2Lend-3"
       refX="0"
       refY="0"
       orient="auto"
       inkscape:stockid="Arrow2Lend"
       inkscape:isstock="true">
      <path
         transform="matrix(-1.1,0,0,-1.1,-1.1,0)"
         d="M 8.7185878,4.0337352 -2.2072895,0.01601326 8.7185884,-4.0017078 c -1.7454984,2.3720609 -1.7354408,5.6174519 -6e-7,8.035443 z"
         style="fill:#000000;fill-opacity:1;fill-rule:evenodd;stroke:#000000;stroke-width:0.625;stroke-linejoin:round;stroke-opacity:1"
         id="path1024-5" />
    </marker>
    <marker
       style="overflow:visible"
       id="Arrow2Lend-5"
       refX="0"
       refY="0"
       orient="auto"
       inkscape:stockid="Arrow2Lend"
       inkscape:isstock="true">
      <path
         transform="matrix(-1.1,0,0,-1.1,-1.1,0)"
         d="M 8.7185878,4.0337352 -2.2072895,0.01601326 8.7185884,-4.0017078 c -1.7454984,2.3720609 -1.7354408,5.6174519 -6e-7,8.035443 z"
         style="fill:#000000;fill-opacity:1;fill-rule:evenodd;stroke:#000000;stroke-width:0.625;stroke-linejoin:round;stroke-opacity:1"
         id="path1024-3" />
    </marker>
  </defs>
  <sodipodi:namedview
     id="base"
     pagecolor="#ffffff"
     bordercolor="#666666"
     borderopacity="1.0"
     inkscape:pageopacity="0.0"
     inkscape:pageshadow="2"
     inkscape:zoom="0.49497475"
     inkscape:cx="775.47948"
     inkscape:cy="199.35889"
     inkscape:document-units="mm"
     inkscape:current-layer="layer1"
     inkscape:document-rotation="0"
     showgrid="false"
     units="px"
     inkscape:snap-global="false"
     inkscape:window-width="1920"
     inkscape:window-height="1001"
     inkscape:window-x="-9"
     inkscape:window-y="-9"
     inkscape:window-maximized="1" />
  <metadata
     id="metadata1348">
    <rdf:RDF>
      <cc:Work
         rdf:about="">
        <dc:format>image/svg+xml</dc:format>
        <dc:type
           rdf:resource="http://purl.org/dc/dcmitype/StillImage" />
        <dc:title></dc:title>
      </cc:Work>
    </rdf:RDF>
  </metadata>
  <g
     inkscape:label="Laag 1"
     inkscape:groupmode="layer"
     id="layer1">
    <g
       id="g2210"
       transform="translate(-2.6458334,-12.824407)">
      <g
         style="overflow:hidden"
         id="g1988"
         transform="matrix(0.079375,0,0,0.079375,4.3910387,14.15237)">
        <g
           clip-path="url(#clip0)"
           id="g1968">
          <rect
             x="0"
             y="0"
             width="1280"
             height="720"
             id="rect1950" />
          <text
             fill="#d9d9d9"
             font-family="Calibri, Calibri_MSFontService, sans-serif"
             font-weight="400"
             font-size="15px"
             transform="translate(1252.71,697)"
             id="text1966">1<tspan
   fill="#ffffff"
   font-weight="300"
   font-size="72px"
   x="-881.27698"
   y="-327"
   id="tspan1952">Titelslide Marimba</tspan><tspan
   fill="#bfbfbf"
   font-size="32px"
   x="-822.28699"
   y="-262"
   id="tspan1954">Presented</tspan><tspan
   fill="#bfbfbf"
   font-size="32px"
   x="-683.68701"
   y="-262"
   id="tspan1956">by</tspan><tspan
   fill="#bfbfbf"
   font-size="32px"
   x="-645.34003"
   y="-262"
   id="tspan1958">Gertrude A.</tspan><tspan
   fill="#bfbfbf"
   font-size="32px"
   x="-485.487"
   y="-262"
   id="tspan1960">Tamez</tspan><tspan
   fill="#bfbfbf"
   font-size="32px"
   x="-851.55298"
   y="-214"
   id="tspan1962">Doctor of Statistical Marimba</tspan><tspan
   fill="#bfbfbf"
   font-size="32px"
   x="-465.01999"
   y="-214"
   id="tspan1964">Theory</tspan></text>
        </g>
      </g>
      <rect
         style="opacity:0.999;fill:none;fill-rule:evenodd;stroke:#000000;stroke-width:0.465"
         id="rect2149"
         width="101.6"
         height="57.149998"
         x="4.3910389"
         y="14.15237" />
    </g>
    <g
       id="g2196"
       transform="translate(18.520832,-12.624407)">
      <g
         style="overflow:hidden"
         id="g2081"
         transform="matrix(0.079375,0,0,0.079375,142.8423,14.15237)">
        <g
           clip-path="url(#clip0-2)"
           id="g2061">
          <rect
             x="0"
             y="0"
             width="1280"
             height="720"
             fill="#ffffff"
             id="rect2043" />
          <text
             font-family="Calibri, Calibri_MSFontService, sans-serif"
             font-weight="400"
             font-size="15px"
             transform="translate(1252.71,697)"
             id="text2059">1<tspan
   font-weight="300"
   font-size="72px"
   x="-881.27698"
   y="-327"
   id="tspan2045">Titelslide Marimba</tspan><tspan
   font-size="32px"
   x="-822.28699"
   y="-262"
   id="tspan2047">Presented</tspan><tspan
   font-size="32px"
   x="-683.68701"
   y="-262"
   id="tspan2049">by</tspan><tspan
   font-size="32px"
   x="-645.34003"
   y="-262"
   id="tspan2051">Gertrude A.</tspan><tspan
   font-size="32px"
   x="-485.487"
   y="-262"
   id="tspan2053">Tamez</tspan><tspan
   font-size="32px"
   x="-851.55298"
   y="-214"
   id="tspan2055">Doctor of Statistical Marimba</tspan><tspan
   font-size="32px"
   x="-465.01999"
   y="-214"
   id="tspan2057">Theory</tspan></text>
        </g>
      </g>
      <rect
         style="opacity:0.999;fill:none;fill-rule:evenodd;stroke:#000000;stroke-width:0.865;stroke-miterlimit:4;stroke-dasharray:none"
         id="rect2151"
         width="101.6"
         height="57.149998"
         x="142.8423"
         y="14.15237" />
    </g>
    <g
       id="g2182"
       transform="translate(-36.285716,51.631541)">
      <g
         style="overflow:hidden"
         id="g2147"
         transform="matrix(0.079375,0,0,0.079375,281.29356,14.15237)">
        <g
           clip-path="url(#clip0-8)"
           id="g2129">
          <rect
             x="0"
             y="0"
             width="1280"
             height="720"
             fill="#ffffff"
             id="rect2115" />
          <rect
             x="0"
             y="0"
             width="1280"
             height="480"
             fill="#1482ac"
             id="rect2117" />
          <path
             d="M 1280,460.681 V 480 h -18.7 c 7.46,-5.175 13.79,-11.758 18.7,-19.319 z m 0,-36.383 v 13.968 c -19.58,7.367 -35.15,22.578 -42.55,41.734 h -14.38 c 8.48,-26.448 29.83,-47.308 56.93,-55.702 z m -149.59,-4.412 1.79,0.171 c 3.4,0.055 6.75,0.368 10.02,0.951 0.59,-0.043 1.15,0.056 1.7,0.162 l 0.02,0.121 c 32.76,5.423 59.35,28.424 69.15,58.709 h -14.44 c -8.76,-22.532 -28.74,-39.628 -53.31,-44.908 3.62,18.415 14.35,34.36 29.38,44.908 h -20.4 c -12.19,-12.536 -20.44,-28.712 -22.99,-46.666 -0.02,-0.005 -0.04,-0.006 -0.06,-0.006 l -0.05,-0.701 c -0.54,-3.176 -0.79,-6.419 -0.79,-9.709 -0.14,-0.591 -0.14,-1.186 -0.14,-1.782 l 0.06,-1.201 0.05,0.003 z m -2.39,0 v 0.052 l 0.05,-0.003 0.06,1.201 c 0,0.596 0,1.191 -0.14,1.782 0,3.29 -0.25,6.533 -0.78,9.709 l -0.06,0.701 c -0.02,0 -0.04,0.001 -0.05,0.006 -2.56,17.954 -10.81,34.13 -23,46.666 h -20.39 c 15.02,-10.548 25.75,-26.494 29.37,-44.908 -24.56,5.28 -44.55,22.376 -53.31,44.908 h -14.44 c 9.81,-30.285 36.39,-53.286 69.16,-58.709 l 0.01,-0.121 c 0.56,-0.106 1.11,-0.205 1.7,-0.162 3.27,-0.583 6.62,-0.896 10.02,-0.951 z m -175.269,0 1.794,0.171 c 3.4,0.055 6.749,0.368 10.023,0.951 0.585,-0.043 1.144,0.056 1.702,0.162 l 0.012,0.121 c 32.764,5.423 59.348,28.424 69.148,58.709 h -14.44 c -8.75,-22.532 -28.737,-39.628 -53.304,-44.908 3.621,18.415 14.353,34.36 29.377,44.908 H 976.67 c -12.192,-12.536 -20.44,-28.712 -22.998,-46.666 -0.018,-0.005 -0.036,-0.006 -0.054,-0.006 l -0.056,-0.701 c -0.531,-3.176 -0.789,-6.419 -0.784,-9.709 -0.138,-0.591 -0.144,-1.186 -0.144,-1.782 l 0.062,-1.201 0.053,0.003 z m -2.388,0 0.003,0.052 0.052,-0.003 0.062,1.201 c 0,0.596 -0.006,1.191 -0.144,1.782 0.005,3.29 -0.252,6.533 -0.784,9.709 l -0.056,0.701 c -0.018,0 -0.036,0.001 -0.053,0.006 -2.558,17.954 -10.806,34.13 -22.999,46.666 h -20.392 c 15.023,-10.548 25.755,-26.493 29.377,-44.908 -24.567,5.28 -44.554,22.376 -53.308,44.908 H 867.68 c 9.802,-30.285 36.388,-53.286 69.152,-58.709 l 0.013,-0.121 c 0.557,-0.106 1.116,-0.205 1.702,-0.162 3.274,-0.583 6.622,-0.896 10.022,-0.951 z m -175.265,0 1.794,0.171 c 3.4,0.055 6.748,0.368 10.022,0.951 0.585,-0.043 1.145,0.056 1.702,0.162 l 0.012,0.121 c 32.765,5.423 59.35,28.424 69.152,58.709 h -14.441 c -8.754,-22.532 -28.74,-39.628 -53.307,-44.908 3.622,18.414 14.354,34.36 29.377,44.908 h -20.393 c -12.192,-12.536 -20.44,-28.712 -22.998,-46.666 -0.018,-0.005 -0.035,-0.006 -0.053,-0.006 l -0.057,-0.701 c -0.531,-3.176 -0.788,-6.419 -0.784,-9.709 -0.137,-0.591 -0.144,-1.186 -0.144,-1.782 l 0.063,-1.201 0.052,0.003 z m -2.389,0 0.003,0.052 0.052,-0.003 0.063,1.201 c 0,0.596 -0.007,1.191 -0.144,1.782 0.004,3.29 -0.253,6.533 -0.784,9.709 l -0.057,0.701 c -0.018,0 -0.035,0.001 -0.053,0.006 -2.558,17.954 -10.806,34.13 -22.998,46.666 h -20.393 c 15.024,-10.548 25.756,-26.494 29.377,-44.908 -24.567,5.28 -44.553,22.376 -53.308,44.908 h -14.44 c 9.802,-30.285 36.387,-53.286 69.152,-58.709 l 0.012,-0.121 c 0.557,-0.106 1.117,-0.205 1.702,-0.162 3.274,-0.583 6.622,-0.896 10.022,-0.951 z m -175.265,0 1.794,0.171 c 3.4,0.055 6.748,0.368 10.022,0.951 0.586,-0.043 1.145,0.056 1.702,0.162 l 0.013,0.121 c 32.764,5.423 59.35,28.424 69.152,58.709 h -14.441 c -8.754,-22.532 -28.74,-39.628 -53.308,-44.908 3.622,18.415 14.354,34.36 29.377,44.908 h -20.393 c -12.192,-12.536 -20.44,-28.712 -22.998,-46.666 -0.017,-0.005 -0.035,-0.006 -0.053,-0.006 l -0.056,-0.701 c -0.531,-3.176 -0.789,-6.419 -0.784,-9.709 -0.138,-0.591 -0.144,-1.186 -0.144,-1.782 l 0.062,-1.201 0.052,0.003 z m -2.388,0 0.002,0.052 0.053,-0.003 0.062,1.201 c 0,0.596 -0.006,1.191 -0.144,1.782 0.004,3.29 -0.253,6.533 -0.784,9.709 l -0.056,0.701 c -0.018,0 -0.036,0.001 -0.054,0.006 -2.557,17.954 -10.806,34.13 -22.998,46.666 h -20.393 c 15.024,-10.548 25.756,-26.493 29.377,-44.908 -24.567,5.28 -44.553,22.376 -53.307,44.908 h -14.441 c 9.802,-30.285 36.388,-53.286 69.152,-58.709 l 0.012,-0.121 c 0.558,-0.106 1.117,-0.205 1.702,-0.162 3.274,-0.583 6.623,-0.896 10.023,-0.951 z m -175.265,0 1.793,0.171 c 3.401,0.055 6.749,0.368 10.023,0.951 0.585,-0.043 1.144,0.056 1.702,0.162 l 0.012,0.121 c 32.764,5.423 59.35,28.424 69.152,58.709 h -14.441 c -8.754,-22.532 -28.74,-39.628 -53.307,-44.908 3.621,18.414 14.353,34.36 29.377,44.908 h -20.393 c -12.192,-12.536 -20.44,-28.712 -22.998,-46.666 -0.018,-0.005 -0.036,-0.006 -0.053,-0.006 l -0.057,-0.701 c -0.531,-3.176 -0.788,-6.419 -0.784,-9.709 -0.138,-0.591 -0.144,-1.186 -0.144,-1.782 l 0.063,-1.201 0.052,0.003 z m -2.389,0 0.003,0.052 0.052,-0.003 0.062,1.201 c 0,0.596 -0.006,1.191 -0.144,1.782 0.005,3.29 -0.252,6.533 -0.784,9.709 l -0.056,0.701 c -0.018,0 -0.035,0.001 -0.053,0.006 -2.558,17.954 -10.806,34.13 -22.998,46.666 h -20.393 c 15.023,-10.548 25.755,-26.493 29.377,-44.908 -24.567,5.28 -44.554,22.376 -53.308,44.908 h -14.441 c 9.802,-30.285 36.388,-53.286 69.152,-58.709 l 0.013,-0.121 c 0.557,-0.106 1.116,-0.205 1.702,-0.162 3.274,-0.583 6.622,-0.896 10.022,-0.951 z m -175.265,0 1.794,0.171 c 3.4,0.055 6.748,0.368 10.022,0.951 0.585,-0.043 1.145,0.056 1.702,0.162 l 0.012,0.121 c 32.765,5.423 59.351,28.424 69.152,58.709 h -14.44 c -8.754,-22.532 -28.741,-39.628 -53.308,-44.908 3.622,18.415 14.354,34.36 29.377,44.908 h -20.393 c -12.192,-12.536 -20.44,-28.712 -22.998,-46.666 -0.018,-0.005 -0.035,-0.006 -0.053,-0.006 l -0.057,-0.701 c -0.531,-3.176 -0.788,-6.419 -0.784,-9.709 -0.137,-0.591 -0.143,-1.186 -0.143,-1.782 l 0.062,-1.201 0.052,0.003 z m -2.389,0 0.003,0.052 0.052,-0.003 0.063,1.201 c 0,0.596 -0.006,1.191 -0.144,1.782 0.004,3.29 -0.253,6.533 -0.784,9.709 l -0.057,0.701 c -0.017,0 -0.035,0.001 -0.053,0.006 -2.558,17.954 -10.806,34.13 -22.998,46.666 h -20.393 c 15.024,-10.548 25.756,-26.494 29.377,-44.908 -24.567,5.28 -44.553,22.376 -53.307,44.908 h -14.441 c 9.802,-30.285 36.388,-53.286 69.152,-58.709 l 0.012,-0.121 c 0.557,-0.106 1.117,-0.205 1.702,-0.162 3.274,-0.583 6.622,-0.896 10.022,-0.951 z m -175.2647,0 1.7939,0.171 c 3.4001,0.055 6.7483,0.368 10.0222,0.951 0.5854,-0.043 1.1448,0.056 1.7021,0.162 l 0.0122,0.121 c 32.7643,5.423 59.3503,28.424 69.1523,58.709 h -14.441 c -8.754,-22.532 -28.74,-39.628 -53.3075,-44.908 3.6214,18.415 14.3535,34.36 29.3765,44.908 H 88.4017 C 76.2093,467.464 67.9613,451.288 65.4033,433.334 c -0.0176,-0.005 -0.0353,-0.006 -0.0531,-0.006 l -0.0564,-0.701 c -0.5312,-3.176 -0.7885,-6.419 -0.7841,-9.709 -0.1377,-0.591 -0.1438,-1.186 -0.1438,-1.782 l 0.0623,-1.201 0.0523,0.003 z m -2.3886,0 0.0027,0.052 0.0523,-0.003 0.0624,1.201 c 0,0.596 -0.0062,1.191 -0.144,1.782 0.0045,3.29 -0.2528,6.533 -0.7839,9.709 l -0.0565,0.701 c -0.0178,0 -0.0355,0.001 -0.053,0.006 C 58.6115,451.324 50.3354,467.529 38.043,480 H 17.8279 C 32.8192,469.434 43.5411,453.496 47.1604,435.092 27.1886,439.384 10.2442,451.485 0,468.046 v -21.711 c 12.7542,-12.903 29.6272,-21.91 48.5641,-25.044 l 0.0123,-0.121 c 0.5574,-0.106 1.1167,-0.205 1.7021,-0.162 3.2738,-0.583 6.6222,-0.896 10.0223,-0.951 z M 1202.38,346.972 c -28.89,6.161 -51.45,28.535 -57.04,56.753 28.89,-6.161 51.45,-28.534 57.04,-56.753 z m -146.34,0 c 5.6,28.219 28.15,50.592 57.04,56.753 -5.59,-28.218 -28.15,-50.592 -57.04,-56.753 z m -31.31,0 c -28.895,6.161 -51.451,28.535 -57.044,56.753 28.891,-6.161 51.444,-28.534 57.044,-56.753 z m -146.342,0 c 5.594,28.219 28.149,50.592 57.041,56.753 -5.594,-28.218 -28.149,-50.592 -57.041,-56.753 z m -31.316,0 c -28.891,6.161 -51.447,28.535 -57.04,56.753 28.891,-6.161 51.447,-28.534 57.04,-56.753 z m -146.337,0 c 5.593,28.219 28.149,50.592 57.04,56.753 -5.593,-28.218 -28.149,-50.592 -57.04,-56.753 z m -31.316,0 c -28.892,6.161 -51.448,28.535 -57.041,56.753 28.892,-6.161 51.447,-28.534 57.041,-56.753 z m -146.338,0 c 5.593,28.219 28.149,50.592 57.04,56.753 -5.593,-28.218 -28.149,-50.592 -57.04,-56.753 z m -31.316,0 c -28.891,6.161 -51.447,28.535 -57.04,56.753 28.891,-6.161 51.447,-28.534 57.04,-56.753 z m -146.338,0 c 5.594,28.219 28.149,50.592 57.041,56.753 -5.593,-28.218 -28.149,-50.592 -57.041,-56.753 z m -31.316,0 c -28.891,6.161 -51.447,28.535 -57.04,56.753 28.891,-6.161 51.447,-28.534 57.04,-56.753 z m -146.337,0 c 5.593,28.219 28.149,50.592 57.04,56.753 -5.593,-28.218 -28.149,-50.592 -57.04,-56.753 z m -31.316,0 c -28.892,6.161 -51.4475,28.535 -57.0407,56.753 28.8917,-6.161 51.4467,-28.534 57.0407,-56.753 z M 0,336.053 c 32.1951,9.499 56.4384,36.434 61.1748,69.415 0.0175,0.006 0.0353,0.006 0.053,0.007 l 0.0567,0.697 c 0.5309,3.15 0.7881,6.367 0.7836,9.63 0.1378,0.587 0.144,1.177 0.144,1.769 0,0.398 -0.0029,0.796 -0.0623,1.192 l -0.0524,-0.004 -0.0027,0.052 -1.7972,-0.17 c -3.3989,-0.054 -6.7459,-0.365 -10.0186,-0.943 -0.5855,0.043 -1.1449,-0.056 -1.7025,-0.161 l -0.0122,-0.119 C 29.6273,414.308 12.7543,405.372 0,392.569 v -21.54 C 10.245,387.46 27.189,399.466 47.1604,403.725 42.2238,378.819 24.0732,358.466 0,349.838 Z m 1218.76,-4.167 1.8,0.169 c 3.4,0.055 6.74,0.366 10.02,0.945 0.58,-0.044 1.14,0.055 1.7,0.16 l 0.01,0.12 c 18.53,3.043 35.09,11.665 47.71,24.06 v 20.997 c -10.32,-15.751 -26.88,-27.222 -46.3,-31.365 4.87,24.613 22.66,44.779 46.3,53.603 v 13.859 c -31.76,-9.762 -55.62,-36.513 -60.32,-69.205 -0.02,-0.006 -0.03,-0.006 -0.05,-0.007 l -0.06,-0.695 c -0.53,-3.151 -0.79,-6.369 -0.78,-9.633 -0.14,-0.586 -0.15,-1.176 -0.15,-1.768 l 0.07,-1.191 0.05,0.003 z m -1.45,0 0.01,0.052 0.05,-0.003 0.06,1.191 c 0,0.592 0,1.182 -0.14,1.768 0,3.264 -0.26,6.482 -0.79,9.633 l -0.05,0.695 c -0.02,0.001 -0.04,0.001 -0.06,0.007 -5.27,36.755 -34.78,66.001 -72.45,72.189 l -0.02,0.119 c -0.55,0.105 -1.11,0.204 -1.7,0.161 -3.27,0.578 -6.62,0.889 -10.02,0.943 l -1.79,0.17 -0.01,-0.052 -0.05,0.004 c -0.06,-0.396 -0.06,-0.794 -0.06,-1.192 0,-0.592 0,-1.182 0.14,-1.769 0,-3.263 0.25,-6.48 0.79,-9.63 l 0.05,-0.697 c 0.02,-0.001 0.04,-0.001 0.06,-0.007 5.27,-36.755 34.78,-66.001 72.45,-72.188 l 0.02,-0.12 c 0.55,-0.105 1.11,-0.204 1.7,-0.16 3.27,-0.579 6.62,-0.89 10.02,-0.945 z m -176.2,0 1.79,0.169 c 3.4,0.055 6.75,0.366 10.02,0.945 0.59,-0.044 1.15,0.055 1.71,0.16 l 0.01,0.12 c 37.67,6.187 67.18,35.433 72.46,72.188 0.01,0.006 0.03,0.006 0.05,0.007 l 0.06,0.697 c 0.53,3.15 0.78,6.367 0.78,9.63 0.14,0.587 0.14,1.177 0.14,1.769 0,0.398 0,0.796 -0.06,1.192 l -0.05,-0.004 v 0.052 l -1.8,-0.17 c -3.4,-0.054 -6.75,-0.365 -10.02,-0.943 -0.58,0.043 -1.14,-0.056 -1.7,-0.161 l -0.01,-0.119 c -37.68,-6.188 -67.18,-35.434 -72.46,-72.189 -0.02,-0.006 -0.04,-0.006 -0.06,-0.007 l -0.05,-0.695 c -0.53,-3.151 -0.79,-6.369 -0.79,-9.633 -0.13,-0.586 -0.14,-1.176 -0.14,-1.768 l 0.06,-1.191 0.05,0.003 z m -1.45,0 v 0.052 l 0.06,-0.003 0.06,1.191 c 0,0.592 -0.01,1.182 -0.15,1.768 0.01,3.264 -0.25,6.482 -0.78,9.633 l -0.06,0.695 c -0.01,0.001 -0.03,0.001 -0.05,0.007 -5.28,36.755 -34.78,66.001 -72.458,72.189 l -0.012,0.119 c -0.558,0.105 -1.117,0.204 -1.703,0.161 -3.273,0.578 -6.62,0.889 -10.019,0.943 l -1.797,0.17 -0.002,-0.052 -0.053,0.004 c -0.059,-0.396 -0.062,-0.794 -0.062,-1.192 0,-0.592 0.006,-1.182 0.144,-1.769 -0.005,-3.263 0.253,-6.48 0.783,-9.63 l 0.057,-0.697 c 0.018,-0.001 0.036,-0.001 0.053,-0.007 5.279,-36.755 34.784,-66.001 72.459,-72.188 l 0.01,-0.12 c 0.56,-0.105 1.12,-0.204 1.7,-0.16 3.28,-0.579 6.63,-0.89 10.03,-0.945 z m -176.206,0 1.794,0.169 c 3.4,0.055 6.748,0.366 10.022,0.945 0.586,-0.044 1.145,0.055 1.702,0.16 l 0.013,0.12 c 37.674,6.187 67.18,35.433 72.458,72.188 0.018,0.006 0.035,0.006 0.053,0.007 l 0.057,0.697 c 0.531,3.15 0.788,6.367 0.783,9.63 0.138,0.587 0.144,1.177 0.144,1.769 0,0.398 -0.003,0.796 -0.062,1.192 l -0.052,-0.004 -0.003,0.052 -1.797,-0.17 c -3.399,-0.054 -6.746,-0.365 -10.019,-0.943 -0.585,0.043 -1.145,-0.056 -1.702,-0.161 l -0.013,-0.119 c -37.674,-6.188 -67.18,-35.434 -72.458,-72.189 -0.017,-0.006 -0.035,-0.006 -0.053,-0.007 l -0.056,-0.695 c -0.532,-3.151 -0.789,-6.369 -0.784,-9.633 -0.138,-0.586 -0.144,-1.176 -0.144,-1.768 l 0.062,-1.191 0.052,0.003 z m -1.448,0 0.003,0.052 0.053,-0.003 0.062,1.191 c 0,0.592 -0.006,1.182 -0.144,1.768 0.004,3.264 -0.253,6.482 -0.784,9.633 l -0.056,0.695 c -0.018,0.001 -0.036,0.001 -0.054,0.007 -5.278,36.755 -34.783,66.001 -72.458,72.189 l -0.012,0.119 c -0.558,0.105 -1.117,0.204 -1.703,0.161 -3.272,0.578 -6.619,0.889 -10.018,0.943 l -1.797,0.17 -0.003,-0.052 -0.053,0.004 c -0.059,-0.396 -0.062,-0.794 -0.062,-1.192 0,-0.592 0.006,-1.182 0.144,-1.769 -0.004,-3.263 0.253,-6.48 0.784,-9.63 l 0.056,-0.697 c 0.018,-0.001 0.036,-0.001 0.054,-0.007 5.278,-36.755 34.783,-66.001 72.458,-72.188 l 0.012,-0.12 c 0.558,-0.105 1.117,-0.204 1.702,-0.16 3.274,-0.579 6.622,-0.89 10.023,-0.945 z m -176.206,0 1.794,0.169 c 3.4,0.055 6.749,0.366 10.023,0.945 0.585,-0.044 1.144,0.055 1.702,0.16 l 0.012,0.12 c 37.675,6.187 67.18,35.433 72.458,72.188 0.018,0.006 0.036,0.006 0.053,0.007 l 0.057,0.697 c 0.531,3.15 0.788,6.367 0.784,9.63 0.138,0.587 0.144,1.177 0.144,1.769 0,0.398 -0.003,0.796 -0.063,1.192 l -0.052,-0.004 -0.003,0.052 -1.797,-0.17 c -3.399,-0.054 -6.746,-0.365 -10.019,-0.943 -0.585,0.043 -1.144,-0.056 -1.702,-0.161 l -0.012,-0.119 c -37.675,-6.188 -67.18,-35.434 -72.458,-72.189 -0.018,-0.006 -0.036,-0.006 -0.054,-0.007 l -0.056,-0.695 c -0.531,-3.151 -0.788,-6.369 -0.784,-9.633 -0.138,-0.586 -0.144,-1.176 -0.144,-1.768 l 0.062,-1.191 0.053,0.003 z m -1.447,0 0.003,0.052 0.052,-0.003 0.062,1.191 c 0,0.592 -0.006,1.182 -0.144,1.768 0.005,3.264 -0.253,6.482 -0.784,9.633 l -0.056,0.695 c -0.018,0.001 -0.036,0.001 -0.053,0.007 -5.278,36.755 -34.784,66.001 -72.459,72.189 l -0.012,0.119 c -0.557,0.105 -1.117,0.204 -1.702,0.161 -3.273,0.578 -6.62,0.889 -10.019,0.943 l -1.797,0.17 -0.003,-0.052 -0.052,0.004 c -0.06,-0.396 -0.062,-0.794 -0.062,-1.192 0,-0.592 0.006,-1.182 0.143,-1.769 -0.004,-3.263 0.253,-6.48 0.784,-9.63 l 0.057,-0.697 c 0.017,-0.001 0.035,-0.001 0.053,-0.007 5.278,-36.755 34.784,-66.001 72.458,-72.188 l 0.013,-0.12 c 0.557,-0.105 1.116,-0.204 1.702,-0.16 3.273,-0.579 6.622,-0.89 10.022,-0.945 z m -176.206,0 1.794,0.169 c 3.4,0.055 6.748,0.366 10.022,0.945 0.585,-0.044 1.145,0.055 1.702,0.16 l 0.012,0.12 c 37.675,6.187 67.18,35.433 72.459,72.188 0.017,0.006 0.035,0.006 0.053,0.007 l 0.056,0.697 c 0.531,3.15 0.788,6.367 0.784,9.63 0.138,0.587 0.144,1.177 0.144,1.769 0,0.398 -0.003,0.796 -0.062,1.192 l -0.053,-0.004 -0.002,0.052 -1.798,-0.17 c -3.399,-0.054 -6.745,-0.365 -10.018,-0.943 -0.586,0.043 -1.145,-0.056 -1.703,-0.161 l -0.012,-0.119 c -37.675,-6.188 -67.18,-35.434 -72.458,-72.189 -0.018,-0.006 -0.036,-0.006 -0.053,-0.007 l -0.057,-0.695 c -0.531,-3.151 -0.788,-6.369 -0.784,-9.633 -0.138,-0.586 -0.144,-1.176 -0.144,-1.768 l 0.063,-1.191 0.052,0.003 z m -1.448,0 0.003,0.052 0.052,-0.003 0.063,1.191 c 0,0.592 -0.007,1.182 -0.144,1.768 0.004,3.264 -0.253,6.482 -0.784,9.633 l -0.057,0.695 c -0.018,0.001 -0.035,0.001 -0.053,0.007 -5.278,36.755 -34.784,66.001 -72.458,72.189 l -0.012,0.119 c -0.558,0.105 -1.117,0.204 -1.703,0.161 -3.273,0.578 -6.62,0.889 -10.019,0.943 l -1.797,0.17 -0.002,-0.052 -0.053,0.004 c -0.059,-0.396 -0.062,-0.794 -0.062,-1.192 0,-0.592 0.006,-1.182 0.144,-1.769 -0.005,-3.263 0.253,-6.48 0.783,-9.63 l 0.057,-0.697 c 0.018,-0.001 0.036,-0.001 0.053,-0.007 5.279,-36.755 34.784,-66.001 72.459,-72.188 l 0.012,-0.12 c 0.557,-0.105 1.117,-0.204 1.702,-0.16 3.274,-0.579 6.622,-0.89 10.022,-0.945 z m -176.206,0 1.794,0.169 c 3.4,0.055 6.748,0.366 10.022,0.945 0.586,-0.044 1.145,0.055 1.702,0.16 l 0.013,0.12 c 37.674,6.187 67.18,35.433 72.458,72.188 0.018,0.006 0.035,0.006 0.053,0.007 l 0.057,0.697 c 0.531,3.15 0.788,6.367 0.783,9.63 0.138,0.587 0.144,1.177 0.144,1.769 0,0.398 -0.002,0.796 -0.062,1.192 l -0.052,-0.004 -0.003,0.052 -1.797,-0.17 c -3.399,-0.054 -6.746,-0.365 -10.019,-0.943 -0.585,0.043 -1.145,-0.056 -1.702,-0.161 l -0.013,-0.119 c -37.674,-6.188 -67.18,-35.434 -72.458,-72.189 -0.017,-0.006 -0.035,-0.006 -0.053,-0.007 l -0.056,-0.695 c -0.532,-3.151 -0.789,-6.369 -0.784,-9.633 -0.138,-0.586 -0.144,-1.176 -0.144,-1.768 l 0.062,-1.191 0.052,0.003 z m -1.447,0 0.002,0.052 0.053,-0.003 0.062,1.191 c 0,0.592 -0.006,1.182 -0.144,1.768 0.004,3.264 -0.253,6.482 -0.784,9.633 l -0.056,0.695 c -0.018,0.001 -0.036,0.001 -0.054,0.007 -5.278,36.755 -34.783,66.001 -72.458,72.189 l -0.012,0.119 c -0.558,0.105 -1.117,0.204 -1.703,0.161 -3.272,0.578 -6.619,0.889 -10.018,0.943 l -1.797,0.17 -0.003,-0.052 -0.052,0.004 c -0.06,-0.396 -0.063,-0.794 -0.063,-1.192 0,-0.592 0.006,-1.182 0.144,-1.769 -0.004,-3.263 0.253,-6.48 0.784,-9.63 l 0.057,-0.697 c 0.017,-0.001 0.035,-0.001 0.053,-0.007 5.278,-36.755 34.783,-66.001 72.458,-72.188 l 0.012,-0.12 c 0.558,-0.105 1.117,-0.204 1.702,-0.16 3.274,-0.579 6.623,-0.89 10.023,-0.945 z m -176.207,0 1.794,0.169 c 3.4,0.055 6.749,0.366 10.023,0.945 0.585,-0.044 1.144,0.055 1.702,0.16 l 0.012,0.12 c 37.675,6.187 67.18,35.433 72.458,72.188 0.018,0.006 0.036,0.006 0.053,0.007 l 0.057,0.697 c 0.531,3.15 0.788,6.367 0.784,9.63 0.138,0.587 0.144,1.177 0.144,1.769 0,0.398 -0.003,0.796 -0.063,1.192 l -0.052,-0.004 -0.003,0.052 -1.797,-0.17 c -3.399,-0.054 -6.746,-0.365 -10.018,-0.943 -0.586,0.043 -1.145,-0.056 -1.703,-0.161 l -0.012,-0.119 c -37.675,-6.188 -67.18,-35.434 -72.459,-72.189 -0.017,-0.006 -0.035,-0.006 -0.053,-0.007 l -0.056,-0.695 c -0.531,-3.151 -0.788,-6.369 -0.784,-9.633 -0.138,-0.586 -0.144,-1.176 -0.144,-1.768 l 0.062,-1.191 0.053,0.003 z m -1.447,0 0.003,0.052 0.052,-0.003 0.062,1.191 c 0,0.592 -0.006,1.182 -0.144,1.768 0.005,3.264 -0.252,6.482 -0.784,9.633 l -0.056,0.695 c -0.018,0.001 -0.036,0.001 -0.053,0.007 -5.278,36.755 -34.784,66.001 -72.4585,72.189 l -0.0122,0.119 c -0.5575,0.105 -1.117,0.204 -1.7025,0.161 -3.2727,0.578 -6.6197,0.889 -10.0186,0.943 l -1.7972,0.17 -0.0027,-0.052 -0.0524,0.004 c -0.0594,-0.396 -0.0622,-0.794 -0.0622,-1.192 0,-0.592 0.0061,-1.182 0.1438,-1.769 -0.0044,-3.263 0.2528,-6.48 0.7836,-9.63 l 0.0568,-0.697 c 0.0177,-0.001 0.0355,-0.001 0.053,-0.007 5.2785,-36.755 34.7841,-66.001 72.4581,-72.188 l 0.013,-0.12 c 0.557,-0.105 1.116,-0.204 1.702,-0.16 3.274,-0.579 6.622,-0.89 10.022,-0.945 z m 993.948,-74.939 c 5.59,28.442 28.15,50.993 57.04,57.202 -5.59,-28.441 -28.15,-50.992 -57.04,-57.202 z m -32.26,0 c -28.89,6.21 -51.44,28.761 -57.04,57.202 28.89,-6.209 51.45,-28.76 57.04,-57.202 z m -145.394,0 c 5.593,28.442 28.149,50.993 57.044,57.202 -5.6,-28.441 -28.153,-50.992 -57.044,-57.202 z m -32.257,0 c -28.892,6.21 -51.447,28.761 -57.041,57.202 28.892,-6.209 51.447,-28.76 57.041,-57.202 z m -145.397,0 c 5.593,28.442 28.149,50.993 57.04,57.202 -5.593,-28.441 -28.149,-50.992 -57.04,-57.202 z m -32.257,0 c -28.891,6.21 -51.447,28.761 -57.04,57.202 28.891,-6.209 51.447,-28.76 57.04,-57.202 z m -145.397,0 c 5.594,28.442 28.149,50.993 57.041,57.202 -5.593,-28.441 -28.149,-50.992 -57.041,-57.202 z m -32.257,0 c -28.891,6.21 -51.447,28.761 -57.04,57.202 28.891,-6.209 51.447,-28.76 57.04,-57.202 z m -145.396,0 c 5.593,28.442 28.149,50.993 57.04,57.202 -5.593,-28.441 -28.149,-50.992 -57.04,-57.202 z m -32.257,0 c -28.892,6.21 -51.447,28.761 -57.041,57.202 28.892,-6.209 51.447,-28.76 57.041,-57.202 z m -145.397,0 c 5.593,28.442 28.149,50.993 57.04,57.202 -5.593,-28.441 -28.148,-50.992 -57.04,-57.202 z m -32.257,0 c -28.891,6.21 -51.447,28.761 -57.04,57.202 28.891,-6.209 51.447,-28.76 57.04,-57.202 z m -145.3965,0 c 5.5933,28.442 28.1495,50.993 57.0405,57.202 -5.593,-28.441 -28.149,-50.992 -57.0405,-57.202 z M 1280,246.154 v 13.968 c -23.64,8.894 -41.43,29.22 -46.3,54.027 19.42,-4.175 35.98,-15.738 46.3,-31.612 v 21.162 c -12.62,12.494 -29.18,21.184 -47.71,24.251 l -0.01,0.121 c -0.56,0.106 -1.12,0.205 -1.7,0.161 -3.28,0.584 -6.62,0.897 -10.02,0.952 l -1.8,0.171 v -0.052 l -0.05,0.003 c -0.06,-0.399 -0.07,-0.8 -0.07,-1.201 0,-0.597 0.01,-1.192 0.15,-1.783 -0.01,-3.289 0.25,-6.531 0.78,-9.707 l 0.06,-0.702 c 0.02,0 0.03,-0.001 0.05,-0.007 4.7,-32.95 28.56,-59.914 60.32,-69.752 z m -149.59,-4.412 1.79,0.17 c 3.4,0.056 6.75,0.369 10.02,0.952 0.59,-0.044 1.15,0.056 1.7,0.162 l 0.02,0.12 c 37.67,6.236 67.18,35.714 72.45,72.76 0.02,0.006 0.04,0.007 0.06,0.007 l 0.05,0.702 c 0.53,3.176 0.79,6.418 0.79,9.707 0.14,0.591 0.14,1.186 0.14,1.783 0,0.401 0,0.802 -0.06,1.201 l -0.05,-0.003 -0.01,0.052 -1.79,-0.171 c -3.4,-0.055 -6.75,-0.368 -10.02,-0.952 -0.59,0.044 -1.15,-0.055 -1.7,-0.161 l -0.02,-0.121 c -37.67,-6.236 -67.18,-35.714 -72.45,-72.76 -0.02,-0.005 -0.04,-0.006 -0.06,-0.007 l -0.05,-0.7 c -0.54,-3.176 -0.79,-6.419 -0.79,-9.709 -0.14,-0.591 -0.14,-1.186 -0.14,-1.782 l 0.06,-1.202 0.05,0.004 z m -2.39,0 v 0.052 l 0.05,-0.004 0.06,1.202 c 0,0.596 0,1.191 -0.14,1.782 0,3.29 -0.25,6.533 -0.78,9.709 l -0.06,0.7 c -0.02,0.001 -0.04,0.002 -0.05,0.007 -5.28,37.046 -34.79,66.524 -72.46,72.76 l -0.01,0.121 c -0.56,0.106 -1.12,0.205 -1.71,0.161 -3.27,0.584 -6.62,0.897 -10.02,0.952 l -1.79,0.171 -0.01,-0.052 -0.05,0.003 c -0.06,-0.399 -0.06,-0.8 -0.06,-1.201 0,-0.597 0.01,-1.192 0.14,-1.783 0,-3.289 0.26,-6.531 0.79,-9.707 l 0.05,-0.702 c 0.02,0 0.04,-0.001 0.06,-0.007 5.28,-37.046 34.78,-66.524 72.46,-72.76 l 0.01,-0.12 c 0.56,-0.106 1.11,-0.206 1.7,-0.162 3.27,-0.583 6.62,-0.896 10.02,-0.952 z m -175.269,0 1.794,0.17 c 3.4,0.056 6.749,0.369 10.023,0.952 0.585,-0.044 1.144,0.056 1.702,0.162 l 0.012,0.12 c 37.678,6.236 67.178,35.714 72.458,72.76 0.02,0.006 0.04,0.007 0.05,0.007 l 0.06,0.702 c 0.53,3.176 0.79,6.418 0.78,9.707 0.14,0.591 0.15,1.186 0.15,1.783 0,0.401 -0.01,0.802 -0.06,1.201 l -0.06,-0.003 v 0.052 l -1.8,-0.171 c -3.4,-0.055 -6.74,-0.368 -10.02,-0.952 -0.58,0.044 -1.14,-0.055 -1.7,-0.161 l -0.01,-0.121 c -37.675,-6.236 -67.18,-35.714 -72.458,-72.76 -0.018,-0.005 -0.036,-0.006 -0.054,-0.007 l -0.056,-0.7 c -0.531,-3.176 -0.789,-6.419 -0.784,-9.709 -0.138,-0.591 -0.144,-1.186 -0.144,-1.782 l 0.062,-1.202 0.053,0.004 z m -2.388,0 0.003,0.052 0.052,-0.004 0.062,1.202 c 0,0.596 -0.006,1.191 -0.144,1.782 0.005,3.29 -0.252,6.533 -0.784,9.709 l -0.056,0.7 c -0.018,0.001 -0.036,0.002 -0.053,0.007 -5.278,37.046 -34.784,66.524 -72.458,72.76 l -0.013,0.121 c -0.557,0.106 -1.117,0.205 -1.702,0.161 -3.273,0.584 -6.62,0.897 -10.019,0.952 l -1.797,0.171 -0.003,-0.052 -0.052,0.003 c -0.06,-0.399 -0.062,-0.8 -0.062,-1.201 0,-0.597 0.006,-1.192 0.144,-1.783 -0.005,-3.289 0.252,-6.531 0.783,-9.707 l 0.057,-0.702 c 0.018,0 0.035,-0.001 0.053,-0.007 5.278,-37.046 34.784,-66.524 72.458,-72.76 l 0.013,-0.12 c 0.557,-0.106 1.116,-0.206 1.702,-0.162 3.274,-0.583 6.622,-0.896 10.022,-0.952 z m -175.265,0 1.794,0.17 c 3.4,0.056 6.748,0.369 10.022,0.952 0.585,-0.044 1.145,0.056 1.702,0.162 l 0.012,0.12 c 37.675,6.236 67.18,35.714 72.459,72.76 0.017,0.006 0.035,0.007 0.053,0.007 l 0.057,0.702 c 0.53,3.176 0.788,6.418 0.783,9.707 0.138,0.591 0.144,1.186 0.144,1.783 0,0.401 -0.003,0.802 -0.062,1.201 l -0.053,-0.003 -0.002,0.052 -1.797,-0.171 c -3.399,-0.055 -6.746,-0.368 -10.019,-0.952 -0.586,0.044 -1.145,-0.055 -1.703,-0.161 l -0.012,-0.121 c -37.674,-6.236 -67.18,-35.714 -72.458,-72.76 -0.018,-0.005 -0.035,-0.006 -0.053,-0.007 l -0.057,-0.7 c -0.531,-3.176 -0.788,-6.419 -0.784,-9.709 -0.137,-0.591 -0.144,-1.186 -0.144,-1.782 l 0.063,-1.202 0.052,0.004 z m -2.389,0 0.003,0.052 0.052,-0.004 0.063,1.202 c 0,0.596 -0.006,1.191 -0.144,1.782 0.004,3.29 -0.253,6.533 -0.784,9.709 l -0.057,0.7 c -0.017,0.001 -0.035,0.002 -0.053,0.007 -5.278,37.046 -34.783,66.524 -72.458,72.76 l -0.012,0.121 c -0.558,0.106 -1.117,0.205 -1.703,0.161 -3.272,0.584 -6.619,0.897 -10.018,0.952 l -1.798,0.171 -0.002,-0.052 -0.053,0.003 c -0.059,-0.399 -0.062,-0.8 -0.062,-1.201 0,-0.597 0.006,-1.192 0.144,-1.783 -0.004,-3.289 0.253,-6.531 0.784,-9.707 l 0.056,-0.702 c 0.018,0 0.036,-0.001 0.053,-0.007 5.279,-37.046 34.784,-66.524 72.459,-72.76 l 0.012,-0.12 c 0.557,-0.106 1.117,-0.206 1.702,-0.162 3.274,-0.583 6.622,-0.896 10.022,-0.952 z m -175.265,0 1.794,0.17 c 3.4,0.056 6.748,0.369 10.022,0.952 0.586,-0.044 1.145,0.056 1.702,0.162 l 0.013,0.12 c 37.674,6.236 67.18,35.714 72.458,72.76 0.018,0.006 0.035,0.007 0.053,0.007 l 0.057,0.702 c 0.531,3.176 0.788,6.418 0.783,9.707 0.138,0.591 0.144,1.186 0.144,1.783 0,0.401 -0.002,0.802 -0.062,1.201 l -0.052,-0.003 -0.003,0.052 -1.797,-0.171 c -3.399,-0.055 -6.746,-0.368 -10.019,-0.952 -0.585,0.044 -1.145,-0.055 -1.702,-0.161 l -0.012,-0.121 c -37.675,-6.236 -67.18,-35.714 -72.459,-72.76 -0.017,-0.005 -0.035,-0.006 -0.053,-0.007 l -0.056,-0.7 c -0.531,-3.176 -0.789,-6.419 -0.784,-9.709 -0.138,-0.591 -0.144,-1.186 -0.144,-1.782 l 0.062,-1.202 0.052,0.004 z m -2.388,0 0.002,0.052 0.053,-0.004 0.062,1.202 c 0,0.596 -0.006,1.191 -0.144,1.782 0.004,3.29 -0.253,6.533 -0.784,9.709 l -0.056,0.7 c -0.018,0.001 -0.036,0.002 -0.054,0.007 -5.278,37.046 -34.783,66.524 -72.458,72.76 l -0.012,0.121 c -0.558,0.106 -1.117,0.205 -1.702,0.161 -3.273,0.584 -6.62,0.897 -10.019,0.952 l -1.797,0.171 -0.003,-0.052 -0.052,0.003 c -0.06,-0.399 -0.063,-0.8 -0.063,-1.201 0,-0.597 0.006,-1.192 0.144,-1.783 -0.004,-3.289 0.253,-6.531 0.784,-9.707 l 0.057,-0.702 c 0.017,0 0.035,-0.001 0.053,-0.007 5.278,-37.046 34.783,-66.524 72.458,-72.76 l 0.012,-0.12 c 0.558,-0.106 1.117,-0.206 1.702,-0.162 3.274,-0.583 6.623,-0.896 10.023,-0.952 z m -175.265,0 1.793,0.17 c 3.401,0.056 6.749,0.369 10.023,0.952 0.585,-0.044 1.144,0.056 1.702,0.162 l 0.012,0.12 c 37.675,6.236 67.18,35.714 72.458,72.76 0.018,0.006 0.036,0.007 0.054,0.007 l 0.056,0.702 c 0.531,3.176 0.788,6.418 0.784,9.707 0.138,0.591 0.144,1.186 0.144,1.783 0,0.401 -0.003,0.802 -0.062,1.201 l -0.053,-0.003 -0.003,0.052 -1.797,-0.171 c -3.399,-0.055 -6.746,-0.368 -10.018,-0.952 -0.586,0.044 -1.145,-0.055 -1.703,-0.161 l -0.012,-0.121 c -37.675,-6.236 -67.18,-35.714 -72.458,-72.76 -0.018,-0.005 -0.036,-0.006 -0.053,-0.007 l -0.057,-0.7 c -0.531,-3.176 -0.788,-6.419 -0.784,-9.709 -0.138,-0.591 -0.144,-1.186 -0.144,-1.782 l 0.063,-1.202 0.052,0.004 z m -2.389,0 0.003,0.052 0.052,-0.004 0.062,1.202 c 0,0.596 -0.006,1.191 -0.144,1.782 0.005,3.29 -0.252,6.533 -0.784,9.709 l -0.056,0.7 c -0.018,0.001 -0.035,0.002 -0.053,0.007 -5.278,37.046 -34.784,66.524 -72.458,72.76 l -0.013,0.121 c -0.557,0.106 -1.117,0.205 -1.702,0.161 -3.273,0.584 -6.62,0.897 -10.019,0.952 l -1.797,0.171 -0.003,-0.052 -0.052,0.003 c -0.059,-0.399 -0.062,-0.8 -0.062,-1.201 0,-0.597 0.006,-1.192 0.144,-1.783 -0.005,-3.289 0.252,-6.531 0.783,-9.707 l 0.057,-0.702 c 0.018,0 0.035,-0.001 0.053,-0.007 5.278,-37.046 34.784,-66.524 72.458,-72.76 l 0.013,-0.12 c 0.557,-0.106 1.116,-0.206 1.702,-0.162 3.274,-0.583 6.622,-0.896 10.022,-0.952 z m -175.265,0 1.794,0.17 c 3.4,0.056 6.748,0.369 10.022,0.952 0.585,-0.044 1.145,0.056 1.702,0.162 l 0.012,0.12 c 37.675,6.236 67.18,35.714 72.459,72.76 0.017,0.006 0.035,0.007 0.053,0.007 l 0.057,0.702 c 0.531,3.176 0.788,6.418 0.783,9.707 0.138,0.591 0.144,1.186 0.144,1.783 0,0.401 -0.003,0.802 -0.062,1.201 l -0.053,-0.003 -0.002,0.052 -1.797,-0.171 c -3.399,-0.055 -6.746,-0.368 -10.019,-0.952 -0.585,0.044 -1.145,-0.055 -1.703,-0.161 l -0.012,-0.121 c -37.674,-6.236 -67.18,-35.714 -72.458,-72.76 -0.018,-0.005 -0.035,-0.006 -0.053,-0.007 l -0.057,-0.7 c -0.531,-3.176 -0.788,-6.419 -0.784,-9.709 -0.137,-0.591 -0.143,-1.186 -0.143,-1.782 l 0.062,-1.202 0.052,0.004 z m -2.389,0 0.003,0.052 0.052,-0.004 0.063,1.202 c 0,0.596 -0.006,1.191 -0.144,1.782 0.004,3.29 -0.253,6.533 -0.784,9.709 l -0.057,0.7 c -0.017,0.001 -0.035,0.002 -0.053,0.007 -5.278,37.046 -34.783,66.524 -72.458,72.76 l -0.012,0.121 c -0.558,0.106 -1.117,0.205 -1.703,0.161 -3.272,0.584 -6.619,0.897 -10.018,0.952 l -1.798,0.171 -0.002,-0.052 -0.053,0.003 c -0.059,-0.399 -0.062,-0.8 -0.062,-1.201 0,-0.597 0.006,-1.192 0.144,-1.783 -0.004,-3.289 0.253,-6.531 0.784,-9.707 l 0.056,-0.702 c 0.018,0 0.036,-0.001 0.053,-0.007 5.279,-37.046 34.784,-66.524 72.459,-72.76 l 0.012,-0.12 c 0.557,-0.106 1.117,-0.206 1.702,-0.162 3.274,-0.583 6.622,-0.896 10.022,-0.952 z m -175.2647,0 1.7939,0.17 c 3.4001,0.056 6.7483,0.369 10.0222,0.952 0.5854,-0.044 1.1448,0.056 1.7021,0.162 l 0.0122,0.12 c 37.6743,6.236 67.1803,35.714 72.4583,72.76 0.018,0.006 0.036,0.007 0.053,0.007 l 0.057,0.702 c 0.531,3.176 0.788,6.418 0.784,9.707 0.137,0.591 0.143,1.186 0.143,1.783 0,0.401 -0.002,0.802 -0.062,1.201 l -0.052,-0.003 -0.003,0.052 -1.797,-0.171 c -3.399,-0.055 -6.746,-0.368 -10.019,-0.952 -0.585,0.044 -1.145,-0.055 -1.702,-0.161 l -0.012,-0.121 c -37.675,-6.236 -67.1804,-35.714 -72.4587,-72.76 -0.0176,-0.005 -0.0353,-0.006 -0.0531,-0.007 l -0.0564,-0.7 c -0.5312,-3.176 -0.7885,-6.419 -0.7841,-9.709 -0.1377,-0.591 -0.1438,-1.186 -0.1438,-1.782 l 0.0623,-1.202 0.0523,0.004 z m -2.3886,0 0.0027,0.052 0.0523,-0.004 0.0624,1.202 c 0,0.596 -0.0062,1.191 -0.144,1.782 0.0045,3.29 -0.2528,6.533 -0.7839,9.709 l -0.0565,0.7 c -0.0178,0.001 -0.0355,0.002 -0.053,0.007 C 56.4384,288.432 32.1955,315.58 0,325.155 V 311.261 C 24.0733,302.564 42.2237,282.05 47.1604,256.947 27.1886,261.24 10.2442,273.341 0,289.902 v -21.711 c 12.7542,-12.904 29.6272,-21.91 48.5641,-25.045 l 0.0123,-0.12 c 0.5574,-0.106 1.1167,-0.206 1.7021,-0.162 3.2738,-0.583 6.6222,-0.896 10.0223,-0.952 z M 1202.38,168.828 c -28.89,6.161 -51.45,28.534 -57.04,56.753 28.89,-6.161 51.45,-28.535 57.04,-56.753 z m -146.34,0 c 5.6,28.218 28.15,50.592 57.04,56.753 -5.59,-28.219 -28.15,-50.592 -57.04,-56.753 z m -31.31,0 c -28.895,6.161 -51.451,28.534 -57.044,56.753 28.891,-6.161 51.444,-28.535 57.044,-56.753 z m -146.342,0 c 5.594,28.218 28.149,50.592 57.041,56.753 -5.594,-28.219 -28.149,-50.592 -57.041,-56.753 z m -31.316,0 c -28.891,6.161 -51.447,28.534 -57.04,56.753 28.891,-6.161 51.447,-28.535 57.04,-56.753 z m -146.337,0 c 5.593,28.218 28.149,50.592 57.04,56.753 -5.593,-28.219 -28.149,-50.592 -57.04,-56.753 z m -31.316,0 c -28.892,6.161 -51.448,28.534 -57.041,56.753 28.892,-6.161 51.447,-28.535 57.041,-56.753 z m -146.338,0 c 5.593,28.218 28.149,50.592 57.04,56.753 -5.593,-28.219 -28.149,-50.592 -57.04,-56.753 z m -31.316,0 c -28.891,6.161 -51.447,28.534 -57.04,56.753 28.891,-6.161 51.447,-28.535 57.04,-56.753 z m -146.338,0 c 5.594,28.218 28.149,50.592 57.041,56.753 -5.593,-28.219 -28.149,-50.592 -57.041,-56.753 z m -31.316,0 c -28.891,6.161 -51.447,28.534 -57.04,56.753 28.891,-6.161 51.447,-28.535 57.04,-56.753 z m -146.337,0 c 5.593,28.218 28.149,50.592 57.04,56.753 -5.593,-28.219 -28.149,-50.592 -57.04,-56.753 z m -31.316,0 c -28.892,6.161 -51.4475,28.534 -57.0407,56.753 28.8917,-6.161 51.4467,-28.535 57.0407,-56.753 z M 0,157.909 c 32.1951,9.499 56.4384,36.434 61.1748,69.415 0.0175,0.006 0.0353,0.006 0.053,0.007 l 0.0567,0.696 c 0.5309,3.151 0.7881,6.368 0.7836,9.631 0.1378,0.586 0.144,1.177 0.144,1.769 0,0.398 -0.0029,0.795 -0.0623,1.191 l -0.0524,-0.003 -0.0027,0.052 -1.7972,-0.17 c -3.3989,-0.055 -6.7459,-0.365 -10.0186,-0.944 -0.5855,0.044 -1.1449,-0.055 -1.7025,-0.16 l -0.0122,-0.12 C 29.6273,236.163 12.7543,227.228 0,214.425 v -21.54 c 10.245,16.431 27.189,28.437 47.1604,32.696 C 42.2238,200.675 24.0732,180.322 0,171.693 Z m 1218.76,-4.167 1.8,0.169 c 3.4,0.055 6.74,0.366 10.02,0.944 0.58,-0.043 1.14,0.056 1.7,0.161 l 0.01,0.119 c 18.53,3.043 35.09,11.665 47.71,24.061 v 20.996 c -10.32,-15.75 -26.88,-27.222 -46.3,-31.364 4.87,24.613 22.66,44.779 46.3,53.603 v 13.858 c -31.76,-9.761 -55.62,-36.512 -60.32,-69.205 -0.02,-0.005 -0.03,-0.006 -0.05,-0.006 l -0.06,-0.695 c -0.53,-3.151 -0.79,-6.369 -0.78,-9.633 -0.14,-0.586 -0.15,-1.176 -0.15,-1.768 l 0.07,-1.192 0.05,0.004 z m -1.45,0 0.01,0.052 0.05,-0.004 0.06,1.192 c 0,0.592 0,1.182 -0.14,1.768 0,3.264 -0.26,6.482 -0.79,9.633 l -0.05,0.695 c -0.02,0 -0.04,0.001 -0.06,0.006 -5.27,36.756 -34.78,66.002 -72.45,72.189 l -0.02,0.12 c -0.55,0.105 -1.11,0.204 -1.7,0.16 -3.27,0.579 -6.62,0.889 -10.02,0.944 l -1.79,0.17 -0.01,-0.052 -0.05,0.003 c -0.06,-0.396 -0.06,-0.793 -0.06,-1.191 0,-0.592 0,-1.183 0.14,-1.769 0,-3.263 0.25,-6.48 0.79,-9.631 l 0.05,-0.696 c 0.02,-10e-4 0.04,-10e-4 0.06,-0.007 5.27,-36.755 34.78,-66.002 72.45,-72.189 l 0.02,-0.119 c 0.55,-0.105 1.11,-0.204 1.7,-0.161 3.27,-0.578 6.62,-0.889 10.02,-0.944 z m -176.2,0 1.79,0.169 c 3.4,0.055 6.75,0.366 10.02,0.944 0.59,-0.043 1.15,0.056 1.71,0.161 l 0.01,0.119 c 37.67,6.187 67.18,35.434 72.46,72.189 0.01,0.006 0.03,0.006 0.05,0.007 l 0.06,0.696 c 0.53,3.151 0.78,6.368 0.78,9.631 0.14,0.586 0.14,1.177 0.14,1.769 0,0.398 0,0.795 -0.06,1.191 l -0.05,-0.003 v 0.052 l -1.8,-0.17 c -3.4,-0.055 -6.75,-0.365 -10.02,-0.944 -0.58,0.044 -1.14,-0.055 -1.7,-0.16 l -0.01,-0.12 c -37.68,-6.187 -67.18,-35.433 -72.46,-72.189 -0.02,-0.005 -0.04,-0.006 -0.06,-0.006 l -0.05,-0.695 c -0.53,-3.151 -0.79,-6.369 -0.79,-9.633 -0.13,-0.586 -0.14,-1.176 -0.14,-1.768 l 0.06,-1.192 0.05,0.004 z m -1.45,0 v 0.052 l 0.06,-0.004 0.06,1.192 c 0,0.592 -0.01,1.182 -0.15,1.768 0.01,3.264 -0.25,6.482 -0.78,9.633 l -0.06,0.695 c -0.01,0 -0.03,0.001 -0.05,0.006 -5.28,36.756 -34.78,66.002 -72.458,72.189 l -0.012,0.12 c -0.558,0.105 -1.117,0.204 -1.703,0.16 -3.273,0.579 -6.62,0.889 -10.019,0.944 l -1.797,0.17 -0.002,-0.052 -0.053,0.003 c -0.059,-0.396 -0.062,-0.793 -0.062,-1.191 0,-0.592 0.006,-1.183 0.144,-1.769 -0.005,-3.263 0.253,-6.48 0.783,-9.631 l 0.057,-0.696 c 0.018,-10e-4 0.036,-10e-4 0.053,-0.007 5.279,-36.755 34.784,-66.002 72.459,-72.189 l 0.01,-0.119 c 0.56,-0.105 1.12,-0.204 1.7,-0.161 3.28,-0.578 6.63,-0.889 10.03,-0.944 z m -176.206,0 1.794,0.169 c 3.4,0.055 6.748,0.366 10.022,0.944 0.586,-0.043 1.145,0.056 1.702,0.161 l 0.013,0.119 c 37.674,6.187 67.18,35.434 72.458,72.189 0.018,0.006 0.035,0.006 0.053,0.007 l 0.057,0.696 c 0.531,3.151 0.788,6.368 0.783,9.631 0.138,0.586 0.144,1.177 0.144,1.769 0,0.398 -0.003,0.795 -0.062,1.191 l -0.052,-0.003 -0.003,0.052 -1.797,-0.17 c -3.399,-0.055 -6.746,-0.365 -10.019,-0.944 -0.585,0.044 -1.145,-0.055 -1.702,-0.16 l -0.013,-0.12 c -37.674,-6.187 -67.18,-35.433 -72.458,-72.189 -0.017,-0.005 -0.035,-0.006 -0.053,-0.006 l -0.056,-0.695 c -0.532,-3.151 -0.789,-6.369 -0.784,-9.633 -0.138,-0.586 -0.144,-1.176 -0.144,-1.768 l 0.062,-1.192 0.052,0.004 z m -1.448,0 0.003,0.052 0.053,-0.004 0.062,1.192 c 0,0.592 -0.006,1.182 -0.144,1.768 0.004,3.264 -0.253,6.482 -0.784,9.633 l -0.056,0.695 c -0.018,0 -0.036,0.001 -0.054,0.006 -5.278,36.756 -34.783,66.002 -72.458,72.189 l -0.012,0.12 c -0.558,0.105 -1.117,0.204 -1.703,0.16 -3.272,0.579 -6.619,0.889 -10.018,0.944 l -1.797,0.17 -0.003,-0.052 -0.053,0.003 c -0.059,-0.396 -0.062,-0.793 -0.062,-1.191 0,-0.592 0.006,-1.183 0.144,-1.769 -0.004,-3.263 0.253,-6.48 0.784,-9.631 l 0.056,-0.696 c 0.018,-10e-4 0.036,-10e-4 0.054,-0.007 5.278,-36.755 34.783,-66.002 72.458,-72.189 l 0.012,-0.119 c 0.558,-0.105 1.117,-0.204 1.702,-0.161 3.274,-0.578 6.622,-0.889 10.023,-0.944 z m -176.206,0 1.794,0.169 c 3.4,0.055 6.749,0.366 10.023,0.944 0.585,-0.043 1.144,0.056 1.702,0.161 l 0.012,0.119 c 37.675,6.187 67.18,35.434 72.458,72.189 0.018,0.006 0.036,0.006 0.053,0.007 l 0.057,0.696 c 0.531,3.151 0.788,6.368 0.784,9.631 0.138,0.586 0.144,1.177 0.144,1.769 0,0.398 -0.003,0.795 -0.063,1.191 l -0.052,-0.003 -0.003,0.052 -1.797,-0.17 c -3.399,-0.055 -6.746,-0.365 -10.019,-0.944 -0.585,0.044 -1.144,-0.055 -1.702,-0.16 l -0.012,-0.12 c -37.675,-6.187 -67.18,-35.433 -72.458,-72.189 -0.018,-0.005 -0.036,-0.006 -0.054,-0.006 l -0.056,-0.695 c -0.531,-3.151 -0.788,-6.369 -0.784,-9.633 -0.138,-0.586 -0.144,-1.176 -0.144,-1.768 l 0.062,-1.192 0.053,0.004 z m -1.447,0 0.003,0.052 0.052,-0.004 0.062,1.192 c 0,0.592 -0.006,1.182 -0.144,1.768 0.005,3.264 -0.253,6.482 -0.784,9.633 l -0.056,0.695 c -0.018,0 -0.036,0.001 -0.053,0.006 -5.278,36.756 -34.784,66.002 -72.459,72.189 l -0.012,0.12 c -0.557,0.105 -1.117,0.204 -1.702,0.16 -3.273,0.579 -6.62,0.889 -10.019,0.944 l -1.797,0.17 -0.003,-0.052 -0.052,0.003 c -0.06,-0.396 -0.062,-0.793 -0.062,-1.191 0,-0.592 0.006,-1.183 0.143,-1.769 -0.004,-3.263 0.253,-6.48 0.784,-9.631 l 0.057,-0.696 c 0.017,-10e-4 0.035,-10e-4 0.053,-0.007 5.278,-36.755 34.784,-66.002 72.458,-72.189 l 0.013,-0.119 c 0.557,-0.105 1.116,-0.204 1.702,-0.161 3.273,-0.578 6.622,-0.889 10.022,-0.944 z m -176.206,0 1.794,0.169 c 3.4,0.055 6.748,0.366 10.022,0.944 0.585,-0.043 1.145,0.056 1.702,0.161 l 0.012,0.119 c 37.675,6.187 67.18,35.434 72.459,72.189 0.017,0.006 0.035,0.006 0.053,0.007 l 0.056,0.696 c 0.531,3.151 0.788,6.368 0.784,9.631 0.138,0.586 0.144,1.177 0.144,1.769 0,0.398 -0.003,0.795 -0.062,1.191 l -0.053,-0.003 -0.002,0.052 -1.798,-0.17 c -3.399,-0.055 -6.745,-0.365 -10.018,-0.944 -0.586,0.044 -1.145,-0.055 -1.703,-0.16 l -0.012,-0.12 c -37.675,-6.187 -67.18,-35.433 -72.458,-72.189 -0.018,-0.005 -0.036,-0.006 -0.053,-0.006 l -0.057,-0.695 c -0.531,-3.151 -0.788,-6.369 -0.784,-9.633 -0.138,-0.586 -0.144,-1.176 -0.144,-1.768 l 0.063,-1.192 0.052,0.004 z m -1.448,0 0.003,0.052 0.052,-0.004 0.063,1.192 c 0,0.592 -0.007,1.182 -0.144,1.768 0.004,3.264 -0.253,6.482 -0.784,9.633 l -0.057,0.695 c -0.018,0 -0.035,0.001 -0.053,0.006 -5.278,36.756 -34.784,66.002 -72.458,72.189 l -0.012,0.12 c -0.558,0.105 -1.117,0.204 -1.703,0.16 -3.273,0.579 -6.62,0.889 -10.019,0.944 l -1.797,0.17 -0.002,-0.052 -0.053,0.003 c -0.059,-0.396 -0.062,-0.793 -0.062,-1.191 0,-0.592 0.006,-1.183 0.144,-1.769 -0.005,-3.263 0.253,-6.48 0.783,-9.631 l 0.057,-0.696 c 0.018,-10e-4 0.036,-10e-4 0.053,-0.007 5.279,-36.755 34.784,-66.002 72.459,-72.189 l 0.012,-0.119 c 0.557,-0.105 1.117,-0.204 1.702,-0.161 3.274,-0.578 6.622,-0.889 10.022,-0.944 z m -176.206,0 1.794,0.169 c 3.4,0.055 6.748,0.366 10.022,0.944 0.586,-0.043 1.145,0.056 1.702,0.161 l 0.013,0.119 c 37.674,6.187 67.18,35.434 72.458,72.189 0.018,0.006 0.035,0.006 0.053,0.007 l 0.057,0.696 c 0.531,3.151 0.788,6.368 0.783,9.631 0.138,0.586 0.144,1.177 0.144,1.769 0,0.398 -0.002,0.795 -0.062,1.191 l -0.052,-0.003 -0.003,0.052 -1.797,-0.17 c -3.399,-0.055 -6.746,-0.365 -10.019,-0.944 -0.585,0.044 -1.145,-0.055 -1.702,-0.16 l -0.013,-0.12 c -37.674,-6.187 -67.18,-35.433 -72.458,-72.189 -0.017,-0.005 -0.035,-0.006 -0.053,-0.006 l -0.056,-0.695 c -0.532,-3.151 -0.789,-6.369 -0.784,-9.633 -0.138,-0.586 -0.144,-1.176 -0.144,-1.768 l 0.062,-1.192 0.052,0.004 z m -1.447,0 0.002,0.052 0.053,-0.004 0.062,1.192 c 0,0.592 -0.006,1.182 -0.144,1.768 0.004,3.264 -0.253,6.482 -0.784,9.633 l -0.056,0.695 c -0.018,0 -0.036,0.001 -0.054,0.006 -5.278,36.756 -34.783,66.002 -72.458,72.189 l -0.012,0.12 c -0.558,0.105 -1.117,0.204 -1.703,0.16 -3.272,0.579 -6.619,0.889 -10.018,0.944 l -1.797,0.17 -0.003,-0.052 -0.052,0.003 c -0.06,-0.396 -0.063,-0.793 -0.063,-1.191 0,-0.592 0.006,-1.183 0.144,-1.769 -0.004,-3.263 0.253,-6.48 0.784,-9.631 l 0.057,-0.696 c 0.017,-10e-4 0.035,-10e-4 0.053,-0.007 5.278,-36.755 34.783,-66.002 72.458,-72.189 l 0.012,-0.119 c 0.558,-0.105 1.117,-0.204 1.702,-0.161 3.274,-0.578 6.623,-0.889 10.023,-0.944 z m -176.207,0 1.794,0.169 c 3.4,0.055 6.749,0.366 10.023,0.944 0.585,-0.043 1.144,0.056 1.702,0.161 l 0.012,0.119 c 37.675,6.187 67.18,35.434 72.458,72.189 0.018,0.006 0.036,0.006 0.053,0.007 l 0.057,0.696 c 0.531,3.151 0.788,6.368 0.784,9.631 0.138,0.586 0.144,1.177 0.144,1.769 0,0.398 -0.003,0.795 -0.063,1.191 l -0.052,-0.003 -0.003,0.052 -1.797,-0.17 c -3.399,-0.055 -6.746,-0.365 -10.018,-0.944 -0.586,0.044 -1.145,-0.055 -1.703,-0.16 l -0.012,-0.12 c -37.675,-6.187 -67.18,-35.433 -72.459,-72.189 -0.017,-0.005 -0.035,-0.006 -0.053,-0.006 l -0.056,-0.695 c -0.531,-3.151 -0.788,-6.369 -0.784,-9.633 -0.138,-0.586 -0.144,-1.176 -0.144,-1.768 l 0.062,-1.192 0.053,0.004 z m -1.447,0 0.003,0.052 0.052,-0.004 0.062,1.192 c 0,0.592 -0.006,1.182 -0.144,1.768 0.005,3.264 -0.252,6.482 -0.784,9.633 l -0.056,0.695 c -0.018,0 -0.036,0.001 -0.053,0.006 -5.278,36.756 -34.784,66.002 -72.4585,72.189 l -0.0122,0.12 c -0.5575,0.105 -1.117,0.204 -1.7025,0.16 -3.2727,0.579 -6.6197,0.889 -10.0186,0.944 l -1.7972,0.17 -0.0027,-0.052 -0.0524,0.003 c -0.0594,-0.396 -0.0622,-0.793 -0.0622,-1.191 0,-0.592 0.0061,-1.183 0.1438,-1.769 -0.0044,-3.263 0.2528,-6.48 0.7836,-9.631 l 0.0568,-0.696 c 0.0177,-10e-4 0.0355,-10e-4 0.053,-0.007 5.2785,-36.755 34.7841,-66.002 72.4581,-72.189 l 0.013,-0.119 c 0.557,-0.105 1.116,-0.204 1.702,-0.161 3.274,-0.578 6.622,-0.889 10.022,-0.944 z M 1145.34,78.8031 c 5.59,28.4419 28.15,50.9929 57.04,57.2019 -5.59,-28.442 -28.15,-50.9926 -57.04,-57.2019 z m -32.26,0 c -28.89,6.2093 -51.44,28.7599 -57.04,57.2019 28.89,-6.209 51.45,-28.76 57.04,-57.2019 z m -145.394,0 c 5.593,28.4419 28.149,50.9929 57.044,57.2019 -5.6,-28.442 -28.153,-50.9926 -57.044,-57.2019 z m -32.257,0 c -28.892,6.2093 -51.447,28.7599 -57.041,57.2019 28.892,-6.209 51.447,-28.76 57.041,-57.2019 z m -145.397,0 c 5.593,28.4419 28.149,50.9929 57.04,57.2019 -5.593,-28.442 -28.149,-50.9926 -57.04,-57.2019 z m -32.257,0 c -28.891,6.2093 -51.447,28.7599 -57.04,57.2019 28.891,-6.209 51.447,-28.76 57.04,-57.2019 z m -145.397,0 c 5.594,28.4419 28.149,50.9929 57.041,57.2019 -5.593,-28.442 -28.149,-50.9926 -57.041,-57.2019 z m -32.257,0 c -28.891,6.2093 -51.447,28.7599 -57.04,57.2019 28.891,-6.209 51.447,-28.76 57.04,-57.2019 z m -145.396,0 c 5.593,28.4419 28.149,50.9929 57.04,57.2019 -5.593,-28.442 -28.149,-50.9926 -57.04,-57.2019 z m -32.257,0 c -28.892,6.2093 -51.447,28.7599 -57.041,57.2019 28.892,-6.209 51.447,-28.76 57.041,-57.2019 z m -145.397,0 c 5.593,28.4419 28.149,50.9929 57.04,57.2019 -5.593,-28.442 -28.148,-50.9926 -57.04,-57.2019 z m -32.257,0 c -28.891,6.2093 -51.447,28.7599 -57.04,57.2019 28.891,-6.209 51.447,-28.76 57.04,-57.2019 z m -145.3965,0 C 85.0108,107.245 107.567,129.796 136.458,136.005 130.865,107.563 108.309,85.0124 79.4175,78.8031 Z M 1280,68.0094 v 13.9683 c -23.64,8.8937 -41.43,29.2193 -46.3,54.0273 19.42,-4.175 35.98,-15.738 46.3,-31.613 v 21.163 c -12.62,12.493 -29.18,21.184 -47.71,24.251 l -0.01,0.12 c -0.56,0.107 -1.12,0.206 -1.7,0.162 -3.28,0.583 -6.62,0.896 -10.02,0.952 l -1.8,0.17 v -0.052 l -0.05,0.004 c -0.06,-0.399 -0.07,-0.8 -0.07,-1.201 0,-0.597 0.01,-1.192 0.15,-1.783 -0.01,-3.289 0.25,-6.532 0.78,-9.707 l 0.06,-0.702 c 0.02,-0.001 0.03,-0.001 0.05,-0.007 4.7,-32.951 28.56,-59.9138 60.32,-69.7526 z m -149.59,-4.4116 1.79,0.1704 c 3.4,0.0553 6.75,0.3683 10.02,0.9517 0.59,-0.044 1.15,0.0555 1.7,0.1616 l 0.02,0.1205 c 37.67,6.236 67.18,35.714 72.45,72.76 0.02,0.006 0.04,0.006 0.06,0.007 l 0.05,0.702 c 0.53,3.175 0.79,6.418 0.79,9.707 0.14,0.591 0.14,1.186 0.14,1.783 0,0.401 0,0.802 -0.06,1.201 l -0.05,-0.004 -0.01,0.052 -1.79,-0.17 c -3.4,-0.056 -6.75,-0.369 -10.02,-0.952 -0.59,0.044 -1.15,-0.055 -1.7,-0.162 l -0.02,-0.12 c -37.67,-6.236 -67.18,-35.714 -72.45,-72.7602 -0.02,-0.0056 -0.04,-0.0061 -0.06,-0.0067 l -0.05,-0.7009 c -0.54,-3.1758 -0.79,-6.4189 -0.79,-9.7087 -0.14,-0.5909 -0.14,-1.1858 -0.14,-1.7823 l 0.06,-1.201 0.05,0.0034 z m -2.39,0 v 0.0518 l 0.05,-0.0034 0.06,1.201 c 0,0.5965 0,1.1914 -0.14,1.7823 0,3.2898 -0.25,6.5329 -0.78,9.7087 l -0.06,0.7009 c -0.02,6e-4 -0.04,0.0011 -0.05,0.0067 -5.28,37.0462 -34.79,66.5242 -72.46,72.7602 l -0.01,0.12 c -0.56,0.107 -1.12,0.206 -1.71,0.162 -3.27,0.583 -6.62,0.896 -10.02,0.952 l -1.79,0.17 -0.01,-0.052 -0.05,0.004 c -0.06,-0.399 -0.06,-0.8 -0.06,-1.201 0,-0.597 0.01,-1.192 0.14,-1.783 0,-3.289 0.26,-6.532 0.79,-9.707 l 0.05,-0.702 c 0.02,-0.001 0.04,-0.001 0.06,-0.007 5.28,-37.046 34.78,-66.524 72.46,-72.76 l 0.01,-0.1205 c 0.56,-0.1061 1.11,-0.2056 1.7,-0.1616 3.27,-0.5834 6.62,-0.8964 10.02,-0.9517 z m -175.269,0 1.794,0.1704 c 3.4,0.0553 6.749,0.3683 10.023,0.9517 0.585,-0.044 1.144,0.0555 1.702,0.1616 l 0.012,0.1205 c 37.678,6.236 67.178,35.714 72.458,72.76 0.02,0.006 0.04,0.006 0.05,0.007 l 0.06,0.702 c 0.53,3.175 0.79,6.418 0.78,9.707 0.14,0.591 0.15,1.186 0.15,1.783 0,0.401 -0.01,0.802 -0.06,1.201 l -0.06,-0.004 v 0.052 l -1.8,-0.17 c -3.4,-0.056 -6.74,-0.369 -10.02,-0.952 -0.58,0.044 -1.14,-0.055 -1.7,-0.162 l -0.01,-0.12 c -37.675,-6.236 -67.18,-35.714 -72.458,-72.7602 -0.018,-0.0056 -0.036,-0.0061 -0.054,-0.0067 l -0.056,-0.7009 c -0.531,-3.1758 -0.789,-6.4189 -0.784,-9.7087 -0.138,-0.5909 -0.144,-1.1858 -0.144,-1.7823 l 0.062,-1.201 0.053,0.0034 z m -2.388,0 0.003,0.0518 0.052,-0.0034 0.062,1.201 c 0,0.5965 -0.006,1.1914 -0.144,1.7823 0.005,3.2898 -0.252,6.5329 -0.784,9.7087 l -0.056,0.7009 c -0.018,6e-4 -0.036,0.0011 -0.053,0.0067 -5.278,37.0462 -34.784,66.5242 -72.458,72.7602 l -0.013,0.12 c -0.557,0.107 -1.117,0.206 -1.702,0.162 -3.273,0.583 -6.62,0.896 -10.019,0.952 l -1.797,0.17 -0.003,-0.052 -0.052,0.004 c -0.06,-0.399 -0.062,-0.8 -0.062,-1.201 0,-0.597 0.006,-1.192 0.144,-1.783 -0.005,-3.289 0.252,-6.532 0.783,-9.707 l 0.057,-0.702 c 0.018,-0.001 0.035,-0.001 0.053,-0.007 5.278,-37.046 34.784,-66.524 72.458,-72.76 l 0.013,-0.1205 c 0.557,-0.1061 1.116,-0.2056 1.702,-0.1616 3.274,-0.5834 6.622,-0.8964 10.022,-0.9517 z m -175.265,0 1.794,0.1704 c 3.4,0.0553 6.748,0.3683 10.022,0.9517 0.585,-0.044 1.145,0.0555 1.702,0.1616 l 0.012,0.1205 c 37.675,6.236 67.18,35.714 72.459,72.76 0.017,0.006 0.035,0.006 0.053,0.007 l 0.057,0.702 c 0.53,3.175 0.788,6.418 0.783,9.707 0.138,0.591 0.144,1.186 0.144,1.783 0,0.401 -0.003,0.802 -0.062,1.201 l -0.053,-0.004 -0.002,0.052 -1.797,-0.17 c -3.399,-0.056 -6.746,-0.369 -10.019,-0.952 -0.586,0.044 -1.145,-0.055 -1.703,-0.162 l -0.012,-0.12 C 810.802,143.57 781.296,114.092 776.018,77.0458 776,77.0402 775.983,77.0397 775.965,77.0391 l -0.057,-0.7009 c -0.531,-3.1758 -0.788,-6.4189 -0.784,-9.7087 -0.137,-0.5909 -0.144,-1.1858 -0.144,-1.7823 l 0.063,-1.201 0.052,0.0034 z m -177.654,0 1.794,0.1704 c 3.4,0.0553 6.748,0.3683 10.022,0.9517 0.586,-0.044 1.145,0.0555 1.702,0.1616 l 0.013,0.1205 c 37.674,6.236 67.18,35.714 72.458,72.76 0.018,0.006 0.035,0.006 0.053,0.007 l 0.057,0.702 c 0.531,3.175 0.788,6.418 0.783,9.707 0.138,0.591 0.144,1.186 0.144,1.783 0,0.401 -0.002,0.802 -0.062,1.201 l -0.052,-0.004 -0.003,0.052 -1.797,-0.17 c -3.399,-0.056 -6.746,-0.369 -10.019,-0.952 -0.585,0.044 -1.145,-0.055 -1.702,-0.162 l -0.012,-0.12 c -37.675,-6.236 -67.18,-35.714 -72.459,-72.7602 -0.017,-0.0056 -0.035,-0.0061 -0.053,-0.0067 l -0.056,-0.7009 c -0.531,-3.1758 -0.789,-6.4189 -0.784,-9.7087 -0.138,-0.5909 -0.144,-1.1858 -0.144,-1.7823 l 0.062,-1.201 0.052,0.0034 z m -2.388,0 0.002,0.0518 0.053,-0.0034 0.062,1.201 c 0,0.5965 -0.006,1.1914 -0.144,1.7823 0.004,3.2898 -0.253,6.5329 -0.784,9.7087 l -0.056,0.7009 c -0.018,6e-4 -0.036,0.0011 -0.054,0.0067 -5.278,37.0462 -34.783,66.5242 -72.458,72.7602 l -0.012,0.12 c -0.558,0.107 -1.117,0.206 -1.702,0.162 -3.273,0.583 -6.62,0.896 -10.019,0.952 l -1.797,0.17 -0.003,-0.052 -0.052,0.004 c -0.06,-0.399 -0.063,-0.8 -0.063,-1.201 0,-0.597 0.006,-1.192 0.144,-1.783 -0.004,-3.289 0.253,-6.532 0.784,-9.707 l 0.057,-0.702 c 0.017,-0.001 0.035,-0.001 0.053,-0.007 5.278,-37.046 34.783,-66.524 72.458,-72.76 l 0.012,-0.1205 c 0.558,-0.1061 1.117,-0.2056 1.702,-0.1616 3.274,-0.5834 6.623,-0.8964 10.023,-0.9517 z m -175.265,0 1.793,0.1704 c 3.401,0.0553 6.749,0.3683 10.023,0.9517 0.585,-0.044 1.144,0.0555 1.702,0.1616 l 0.012,0.1205 c 37.675,6.236 67.18,35.714 72.458,72.76 0.018,0.006 0.036,0.006 0.054,0.007 l 0.056,0.702 c 0.531,3.175 0.788,6.418 0.784,9.707 0.138,0.591 0.144,1.186 0.144,1.783 0,0.401 -0.003,0.802 -0.062,1.201 l -0.053,-0.004 -0.003,0.052 -1.797,-0.17 c -3.399,-0.056 -6.746,-0.369 -10.018,-0.952 -0.586,0.044 -1.145,-0.055 -1.703,-0.162 l -0.012,-0.12 c -37.675,-6.236 -67.18,-35.714 -72.458,-72.7602 -0.018,-0.0056 -0.036,-0.0061 -0.053,-0.0067 l -0.057,-0.7009 c -0.531,-3.1758 -0.788,-6.4189 -0.784,-9.7087 -0.138,-0.5909 -0.144,-1.1858 -0.144,-1.7823 l 0.063,-1.201 0.052,0.0034 z m -2.389,0 0.003,0.0518 0.052,-0.0034 0.062,1.201 c 0,0.5965 -0.006,1.1914 -0.144,1.7823 0.005,3.2898 -0.252,6.5329 -0.784,9.7087 l -0.056,0.7009 c -0.018,6e-4 -0.035,0.0011 -0.053,0.0067 -5.278,37.0462 -34.784,66.5242 -72.458,72.7602 l -0.013,0.12 c -0.557,0.107 -1.117,0.206 -1.702,0.162 -3.273,0.583 -6.62,0.896 -10.019,0.952 l -1.797,0.17 -0.003,-0.052 -0.052,0.004 c -0.059,-0.399 -0.062,-0.8 -0.062,-1.201 0,-0.597 0.006,-1.192 0.144,-1.783 -0.005,-3.289 0.252,-6.532 0.783,-9.707 l 0.057,-0.702 c 0.018,-0.001 0.035,-0.001 0.053,-0.007 5.278,-37.046 34.784,-66.524 72.458,-72.76 l 0.013,-0.1205 c 0.557,-0.1061 1.116,-0.2056 1.702,-0.1616 3.274,-0.5834 6.622,-0.8964 10.022,-0.9517 z m -175.265,0 1.794,0.1704 c 3.4,0.0553 6.748,0.3683 10.022,0.9517 0.585,-0.044 1.145,0.0555 1.702,0.1616 l 0.012,0.1205 c 37.675,6.236 67.18,35.714 72.459,72.76 0.017,0.006 0.035,0.006 0.053,0.007 l 0.057,0.702 c 0.531,3.175 0.788,6.418 0.783,9.707 0.138,0.591 0.144,1.186 0.144,1.783 0,0.401 -0.003,0.802 -0.062,1.201 l -0.053,-0.004 -0.002,0.052 -1.797,-0.17 c -3.399,-0.056 -6.746,-0.369 -10.019,-0.952 -0.585,0.044 -1.145,-0.055 -1.703,-0.162 l -0.012,-0.12 c -37.674,-6.236 -67.18,-35.714 -72.458,-72.7602 -0.018,-0.0056 -0.035,-0.0061 -0.053,-0.0067 l -0.057,-0.7009 c -0.531,-3.1758 -0.788,-6.4189 -0.784,-9.7087 -0.137,-0.5909 -0.143,-1.1858 -0.143,-1.7823 l 0.062,-1.201 0.052,0.0034 z m -2.389,0 0.003,0.0518 0.052,-0.0034 0.063,1.201 c 0,0.5965 -0.006,1.1914 -0.144,1.7823 0.004,3.2898 -0.253,6.5329 -0.784,9.7087 l -0.057,0.7009 c -0.017,6e-4 -0.035,0.0011 -0.053,0.0067 -5.278,37.0462 -34.783,66.5242 -72.458,72.7602 l -0.012,0.12 c -0.558,0.107 -1.117,0.206 -1.703,0.162 -3.272,0.583 -6.619,0.896 -10.018,0.952 l -1.798,0.17 -0.002,-0.052 -0.053,0.004 c -0.059,-0.399 -0.062,-0.8 -0.062,-1.201 0,-0.597 0.006,-1.192 0.144,-1.783 -0.004,-3.289 0.253,-6.532 0.784,-9.707 l 0.056,-0.702 c 0.018,-0.001 0.036,-0.001 0.053,-0.007 5.279,-37.046 34.784,-66.524 72.459,-72.76 l 0.012,-0.1205 c 0.557,-0.1061 1.117,-0.2056 1.702,-0.1616 3.274,-0.5834 6.622,-0.8964 10.022,-0.9517 z m -175.2647,0 1.7939,0.1704 c 3.4001,0.0553 6.7483,0.3683 10.0222,0.9517 0.5854,-0.044 1.1448,0.0555 1.7021,0.1616 l 0.0122,0.1205 c 37.6743,6.236 67.1803,35.714 72.4583,72.76 0.018,0.006 0.036,0.006 0.053,0.007 l 0.057,0.702 c 0.531,3.175 0.788,6.418 0.784,9.707 0.137,0.591 0.143,1.186 0.143,1.783 0,0.401 -0.002,0.802 -0.062,1.201 l -0.052,-0.004 -0.003,0.052 -1.797,-0.17 c -3.399,-0.056 -6.746,-0.369 -10.019,-0.952 -0.585,0.044 -1.145,-0.055 -1.702,-0.162 l -0.012,-0.12 C 100.187,143.57 70.6816,114.092 65.4033,77.0458 65.3857,77.0402 65.368,77.0397 65.3502,77.0391 L 65.2938,76.3382 C 64.7626,73.1624 64.5053,69.9193 64.5097,66.6295 64.372,66.0386 64.3659,65.4437 64.3659,64.8472 l 0.0623,-1.201 0.0523,0.0034 z m 708.2257,0 0.003,0.0518 0.052,-0.0034 0.063,1.201 c 0,0.5965 -0.006,1.1914 -0.144,1.7823 0.004,3.2898 -0.253,6.5329 -0.784,9.7087 l -0.057,0.7009 c -0.017,6e-4 -0.035,0.0011 -0.053,0.0067 -5.278,37.0462 -34.783,66.5242 -72.458,72.7602 l -0.012,0.12 c -0.558,0.107 -1.117,0.206 -1.703,0.162 -3.272,0.583 -6.619,0.896 -10.018,0.952 l -1.798,0.17 -0.002,-0.052 -0.053,0.004 c -0.059,-0.399 -0.062,-0.8 -0.062,-1.201 0,-0.597 0.006,-1.192 0.144,-1.783 -0.004,-3.289 0.253,-6.532 0.784,-9.707 l 0.056,-0.702 c 0.018,-0.001 0.036,-0.001 0.053,-0.007 5.279,-37.046 34.784,-66.524 72.459,-72.76 l 0.012,-0.1205 c 0.557,-0.1061 1.117,-0.2056 1.702,-0.1616 3.274,-0.5834 6.622,-0.8964 10.022,-0.9517 z m -710.6143,0 0.0027,0.0518 0.0523,-0.0034 0.0624,1.201 c 0,0.5965 -0.0062,1.1914 -0.144,1.7823 0.0045,3.2898 -0.2528,6.5329 -0.7839,9.7087 l -0.0565,0.7009 c -0.0178,6e-4 -0.0355,0.0011 -0.053,0.0067 C 56.4384,110.288 32.1955,137.436 0,147.011 V 133.117 C 24.0733,124.42 42.2237,103.906 47.1604,78.8031 27.1886,83.0954 10.2442,95.1967 0,111.757 V 90.0467 C 12.7542,77.1431 29.6272,68.1365 48.5641,65.002 l 0.0123,-0.1205 c 0.5574,-0.1061 1.1167,-0.2056 1.7021,-0.1616 3.2738,-0.5834 6.6222,-0.8964 10.0223,-0.9517 z M 1256.59,0 h 22.16 c 0.47,0.293648 0.86,0.670866 1.25,1.05155 V 22.0481 C 1274.09,13.019 1266.12,5.3959 1256.59,0 Z m -34.47,0 h 14.12 c 7.04,20.3292 23.18,36.6055 43.76,44.2865 V 58.1451 C 1251.91,49.5117 1230,27.5875 1222.12,0 Z m -64.81,0 h 21.91 c -17.37,10.2892 -29.91,27.3876 -33.88,47.4362 C 1170.96,41.9728 1191.6,23.7575 1199.78,0 h 14.07 c -8.9,31.4778 -36.12,55.5793 -69.91,61.1289 l -0.02,0.1196 c -0.55,0.1053 -1.11,0.2041 -1.7,0.1604 -3.27,0.5785 -6.62,0.889 -10.02,0.9439 l -1.79,0.1694 -0.01,-0.0516 -0.05,0.0035 c -0.06,-0.3961 -0.06,-0.7936 -0.06,-1.1917 0,-0.5918 0,-1.1823 0.14,-1.7687 0,-3.2632 0.25,-6.4803 0.79,-9.6306 l 0.05,-0.6968 c 0.02,-5e-4 0.04,-0.001 0.06,-0.0066 C 1134.09,29.951 1143.48,12.7773 1157.31,0 Z m -112.74,0 h 14.07 c 8.18,23.7575 28.82,41.9728 54.44,47.4362 C 1109.11,27.3876 1096.57,10.2892 1079.2,0 h 21.91 c 13.83,12.7773 23.23,29.951 25.99,49.1797 0.01,0.0056 0.03,0.0061 0.05,0.0066 l 0.06,0.6968 c 0.53,3.1503 0.78,6.3674 0.78,9.6306 0.14,0.5864 0.14,1.1769 0.14,1.7687 0,0.3981 0,0.7956 -0.06,1.1917 l -0.05,-0.0035 v 0.0516 l -1.8,-0.1694 c -3.4,-0.0549 -6.75,-0.3654 -10.02,-0.9439 -0.58,0.0437 -1.14,-0.0551 -1.7,-0.1604 l -0.01,-0.1196 C 1080.69,55.5793 1053.47,31.4778 1044.57,0 Z m -64.914,0 h 21.914 C 984.196,10.2892 971.659,27.3876 967.686,47.4362 993.308,41.9728 1013.95,23.7575 1022.13,0 h 14.07 c -8.91,31.4778 -36.13,55.5793 -69.918,61.1289 l -0.012,0.1196 c -0.558,0.1053 -1.117,0.2041 -1.703,0.1604 -3.273,0.5785 -6.62,0.889 -10.019,0.9439 l -1.797,0.1694 -0.002,-0.0516 -0.053,0.0035 c -0.059,-0.3961 -0.062,-0.7936 -0.062,-1.1917 0,-0.5918 0.006,-1.1823 0.144,-1.7687 -0.005,-3.2632 0.253,-6.4803 0.783,-9.6306 l 0.057,-0.6968 c 0.018,-5e-4 0.036,-0.001 0.053,-0.0066 C 956.433,29.951 965.825,12.7773 979.656,0 Z M 866.919,0 h 14.07 c 8.178,23.7575 28.817,41.9728 54.44,47.4362 C 931.455,27.3876 918.918,10.2892 901.546,0 h 21.912 c 13.831,12.7773 23.224,29.951 25.985,49.1797 0.018,0.0056 0.035,0.0061 0.053,0.0066 l 0.057,0.6968 c 0.531,3.1503 0.788,6.3674 0.783,9.6306 0.138,0.5864 0.144,1.1769 0.144,1.7687 0,0.3981 -0.003,0.7956 -0.062,1.1917 l -0.052,-0.0035 -0.003,0.0516 -1.797,-0.1694 c -3.399,-0.0549 -6.746,-0.3654 -10.019,-0.9439 -0.585,0.0437 -1.145,-0.0551 -1.702,-0.1604 l -0.013,-0.1196 C 903.04,55.5793 875.82,31.4778 866.919,0 Z m -64.916,0 h 21.911 C 806.542,10.2892 794.006,27.3876 790.032,47.4362 815.654,41.9728 836.294,23.7575 844.472,0 h 14.07 c -8.901,31.4778 -36.121,55.5793 -69.914,61.1289 l -0.012,0.1196 c -0.558,0.1053 -1.117,0.2041 -1.703,0.1604 -3.272,0.5785 -6.619,0.889 -10.018,0.9439 l -1.797,0.1694 -0.003,-0.0516 -0.053,0.0035 c -0.059,-0.3961 -0.062,-0.7936 -0.062,-1.1917 0,-0.5918 0.006,-1.1823 0.144,-1.7687 -0.004,-3.2632 0.253,-6.4803 0.784,-9.6306 l 0.056,-0.6968 c 0.018,-5e-4 0.036,-0.001 0.054,-0.0066 C 778.779,29.951 788.171,12.7772 802.003,0 Z M 689.266,0 h 14.069 c 8.178,23.7575 28.818,41.9728 54.44,47.4362 C 753.801,27.3876 741.265,10.2892 723.893,0 h 21.911 c 13.832,12.7773 23.224,29.951 25.985,49.1797 0.018,0.0056 0.036,0.0061 0.053,0.0066 l 0.057,0.6968 c 0.531,3.1503 0.788,6.3674 0.784,9.6306 0.138,0.5864 0.144,1.1769 0.144,1.7687 0,0.3981 -0.003,0.7956 -0.063,1.1917 l -0.052,-0.0035 -0.003,0.0516 -1.797,-0.1694 c -3.399,-0.0549 -6.746,-0.3654 -10.019,-0.9439 -0.585,0.0437 -1.144,-0.0551 -1.702,-0.1604 l -0.012,-0.1196 C 725.386,55.5793 698.166,31.4778 689.266,0 Z m -64.917,0 h 21.912 C 628.888,10.2892 616.352,27.3876 612.378,47.4362 638.001,41.9728 658.64,23.7575 666.818,0 h 14.07 c -8.901,31.4778 -36.121,55.5793 -69.914,61.1289 l -0.012,0.1196 c -0.557,0.1053 -1.117,0.2041 -1.702,0.1604 -3.273,0.5785 -6.62,0.889 -10.019,0.9439 l -1.797,0.1694 -0.003,-0.0516 -0.052,0.0035 c -0.06,-0.3961 -0.062,-0.7936 -0.062,-1.1917 0,-0.5918 0.006,-1.1823 0.143,-1.7687 -0.004,-3.2632 0.253,-6.4803 0.784,-9.6306 l 0.057,-0.6968 c 0.017,-5e-4 0.035,-0.001 0.053,-0.0066 C 601.125,29.951 610.518,12.7773 624.349,0 Z M 511.612,0 h 14.07 c 8.178,23.7576 28.817,41.9728 54.439,47.4362 C 576.147,27.3876 563.611,10.2892 546.239,0 h 21.912 c 13.831,12.7772 23.223,29.951 25.985,49.1797 0.017,0.0056 0.035,0.0061 0.053,0.0065 l 0.056,0.6969 c 0.531,3.1503 0.788,6.3674 0.784,9.6306 0.138,0.5864 0.144,1.1769 0.144,1.7687 0,0.3982 -0.003,0.7956 -0.062,1.1917 l -0.053,-0.0035 -0.002,0.0516 -1.798,-0.1694 c -3.399,-0.0549 -6.745,-0.3654 -10.018,-0.9439 -0.586,0.0437 -1.145,-0.0551 -1.703,-0.1604 l -0.012,-0.1196 C 547.733,55.5793 520.512,31.4778 511.612,0 Z m -64.917,0 h 21.912 C 451.235,10.2892 438.698,27.3876 434.725,47.4362 460.347,41.9728 480.986,23.7576 489.164,0 h 14.07 c -8.9,31.4778 -36.121,55.5793 -69.913,61.1289 l -0.012,0.1196 c -0.558,0.1053 -1.117,0.2041 -1.703,0.1604 -3.273,0.5785 -6.62,0.889 -10.019,0.9439 l -1.797,0.1694 -0.002,-0.0516 -0.053,0.0035 c -0.059,-0.3961 -0.062,-0.7936 -0.062,-1.1917 0,-0.5918 0.006,-1.1823 0.144,-1.7687 -0.005,-3.2632 0.253,-6.4803 0.783,-9.6306 l 0.057,-0.6969 c 0.018,-4e-4 0.036,-9e-4 0.053,-0.0065 C 423.472,29.951 432.864,12.7772 446.695,0 Z M 333.958,0 h 14.07 c 8.178,23.7576 28.817,41.9728 54.44,47.4362 C 398.494,27.3876 385.957,10.2892 368.585,0 h 21.912 c 13.831,12.7772 23.224,29.951 25.985,49.1797 0.018,0.0056 0.035,0.0061 0.053,0.0065 l 0.057,0.6969 c 0.531,3.1503 0.788,6.3674 0.783,9.6306 0.138,0.5864 0.144,1.1769 0.144,1.7687 0,0.3982 -0.002,0.7956 -0.062,1.1917 l -0.052,-0.0035 -0.003,0.0516 -1.797,-0.1694 c -3.399,-0.0549 -6.746,-0.3654 -10.019,-0.9439 -0.585,0.0437 -1.145,-0.0551 -1.702,-0.1604 l -0.013,-0.1196 C 370.079,55.5793 342.859,31.4778 333.958,0 Z m -64.916,0 h 21.911 C 273.581,10.2892 261.045,27.3876 257.071,47.4362 282.693,41.9728 303.332,23.7576 311.511,0 h 14.07 C 316.68,31.4778 289.46,55.5793 255.667,61.1289 l -0.012,0.1196 c -0.558,0.1053 -1.117,0.2041 -1.703,0.1604 -3.272,0.5785 -6.619,0.889 -10.018,0.9439 l -1.797,0.1694 -0.003,-0.0516 -0.052,0.0035 c -0.06,-0.3961 -0.063,-0.7936 -0.063,-1.1917 0,-0.5918 0.006,-1.1823 0.144,-1.7687 -0.004,-3.2632 0.253,-6.4803 0.784,-9.6306 l 0.057,-0.6969 c 0.017,-4e-4 0.035,-9e-4 0.053,-0.0065 C 245.818,29.951 255.21,12.7773 269.042,0 Z M 156.304,0 h 14.07 c 8.178,23.7575 28.818,41.9728 54.44,47.4362 C 220.84,27.3876 208.304,10.2892 190.932,0 h 21.911 c 13.832,12.7772 23.224,29.951 25.985,49.1797 0.018,0.0056 0.036,0.0061 0.053,0.0066 l 0.057,0.6968 c 0.531,3.1503 0.788,6.3674 0.784,9.6306 0.138,0.5864 0.144,1.1769 0.144,1.7687 0,0.3982 -0.003,0.7956 -0.063,1.1917 l -0.052,-0.0035 -0.003,0.0516 -1.797,-0.1694 c -3.399,-0.0549 -6.746,-0.3654 -10.018,-0.9439 -0.586,0.0437 -1.145,-0.0551 -1.703,-0.1604 l -0.012,-0.1196 C 192.425,55.5793 165.205,31.4778 156.304,0 Z M 91.388,0 H 113.3 C 95.9276,10.2892 83.3912,27.3876 79.4173,47.4362 105.04,41.9728 125.679,23.7576 133.857,0 h 14.07 c -8.901,31.4778 -36.121,55.5793 -69.9136,61.1289 l -0.0121,0.1196 c -0.5575,0.1053 -1.117,0.2041 -1.7025,0.1604 -3.2727,0.5785 -6.6197,0.889 -10.0186,0.9439 l -1.7972,0.1694 -0.0027,-0.0516 -0.0524,0.0035 c -0.0594,-0.3961 -0.0622,-0.7936 -0.0622,-1.1917 0,-0.5918 0.0061,-1.1823 0.1438,-1.7687 -0.0044,-3.2632 0.2528,-6.4803 0.7837,-9.6306 l 0.0567,-0.6969 c 0.0177,-4e-4 0.0355,-9e-4 0.053,-0.0065 C 68.1644,29.951 77.5565,12.7772 91.388,0 Z M 13.2676,0 h 21.8375 c 13.8906,12.7308 23.3046,29.9249 26.0697,49.1797 0.0175,0.0056 0.0353,0.0061 0.053,0.0065 l 0.0567,0.6969 c 0.5309,3.1503 0.7881,6.3674 0.7836,9.6306 0.1378,0.5864 0.144,1.1769 0.144,1.7687 0,0.3981 -0.0029,0.7956 -0.0623,1.1917 l -0.0524,-0.0035 -0.0027,0.0516 -1.7972,-0.1694 C 56.8986,62.2979 53.5516,61.9874 50.2789,61.4089 49.6934,61.4526 49.134,61.3538 48.5764,61.2485 L 48.5642,61.1289 C 29.6273,58.019 12.7543,49.0832 0,36.2808 v -21.54 C 10.245,31.1719 27.189,43.1777 47.1604,47.4362 43.1857,27.3831 30.6445,10.2815 13.2676,0 Z"
             fill="#ffffff"
             fill-rule="evenodd"
             id="path2119" />
          <path
             d="M 0,0 1.04987e-4,96"
             stroke="#1482ac"
             stroke-width="2"
             stroke-linejoin="round"
             stroke-miterlimit="10"
             fill="none"
             fill-rule="evenodd"
             transform="matrix(1,0,0,-1,881,649)"
             id="path2121" />
          <text
             fill="#0d0d0d"
             font-family="'Tw Cen MT', 'Tw Cen MT_MSFontService', sans-serif"
             font-weight="400"
             font-stretch="condensed"
             font-size="67px"
             transform="translate(711.9,613)"
             id="text2127">LOREM<tspan
   font-stretch="normal"
   font-size="24px"
   x="201.7"
   y="-7"
   id="tspan2123">lorem</tspan><tspan
   font-size="13px"
   x="435.478"
   y="85"
   id="tspan2125">1</tspan></text>
        </g>
      </g>
      <rect
         style="opacity:0.999;fill:none;fill-rule:evenodd;stroke:#000000;stroke-width:0.865;stroke-miterlimit:4;stroke-dasharray:none"
         id="rect2153"
         width="100.54688"
         height="57.149998"
         x="282.34668"
         y="14.15237" />
    </g>
    <g
       id="g2170"
       transform="translate(-74.461311,-12.624407)">
      <g
         style="overflow:hidden"
         id="g2036"
         transform="matrix(0.079375,0,0,0.079375,419.74479,14.152368)">
        <g
           clip-path="url(#clip0-6)"
           id="g2015">
          <rect
             x="0"
             y="0"
             width="1280"
             height="720"
             fill="#ffffff"
             id="rect1995" />
          <path
             d="M 0,0 1.04987e-4,96"
             stroke="#1cade4"
             stroke-width="2"
             stroke-linejoin="round"
             stroke-miterlimit="10"
             fill="none"
             fill-rule="evenodd"
             transform="matrix(1,0,0,-1,80,183)"
             id="path1997" />
          <text
             font-family="'Tw Cen MT', 'Tw Cen MT_MSFontService', sans-serif"
             font-weight="400"
             font-size="15px"
             transform="translate(1252.71,697)"
             id="text2013">1<tspan
   fill="#0d0d0d"
   font-stretch="condensed"
   font-size="72px"
   x="-844.81299"
   y="-328"
   id="tspan1999">TITELSLIDE MARIMBA</tspan><tspan
   font-size="32px"
   x="-822.44"
   y="-262"
   id="tspan2001">Presented</tspan><tspan
   font-size="32px"
   x="-687.94"
   y="-262"
   id="tspan2003">by</tspan><tspan
   font-size="32px"
   x="-647.03302"
   y="-262"
   id="tspan2005">Gertrude A.</tspan><tspan
   font-size="32px"
   x="-483.42001"
   y="-262"
   id="tspan2007">Tamez</tspan><tspan
   font-size="32px"
   x="-848.02002"
   y="-208"
   id="tspan2009">Doctor of Statistical Marimba</tspan><tspan
   font-size="32px"
   x="-464.06699"
   y="-208"
   id="tspan2011">Theory</tspan></text>
        </g>
      </g>
      <rect
         style="opacity:0.999;fill:none;fill-rule:evenodd;stroke:#000000;stroke-width:0.865;stroke-miterlimit:4;stroke-dasharray:none"
         id="rect2155"
         width="101.6"
         height="57.149998"
         x="419.74481"
         y="14.15237" />
    </g>
    <path
       style="fill:none;stroke:#000000;stroke-width:0.692626;stroke-linecap:butt;stroke-linejoin:miter;stroke-miterlimit:4;stroke-dasharray:none;stroke-opacity:1;marker-end:url(#Arrow2Lend)"
       d="m 105.83332,29.330944 h 49.41795"
       id="path2385" />
    <path
       style="fill:none;stroke:#000000;stroke-width:0.829489;stroke-linecap:butt;stroke-linejoin:miter;stroke-miterlimit:4;stroke-dasharray:none;stroke-opacity:1;marker-end:url(#Arrow2Lend-3)"
       d="m 265.04058,30.360944 h 70.87738"
       id="path2385-9" />
    <path
       style="fill:none;stroke:#000000;stroke-width:0.664321;stroke-linecap:butt;stroke-linejoin:miter;stroke-miterlimit:4;stroke-dasharray:none;stroke-opacity:1"
       d="M 297.09084,65.991304 296.70971,30.090229"
       id="path2570" />
    <text
       xml:space="preserve"
       id="text2572"
       style="font-weight:500;font-size:10.5833px;line-height:1.25;font-family:'CMU Concrete';-inkscape-font-specification:'CMU Concrete, Medium';letter-spacing:0px;word-spacing:0px;white-space:pre;shape-inside:url(#rect2574);"
       transform="translate(1.8898808,-11.112501)"><tspan
         x="106.9668"
         y="36.246469"><tspan
           style="font-size:7.05556px">ilovepdf.com</tspan></tspan></text>
  </g>
</svg>
