<?xml version="1.0" encoding="UTF-8" standalone="no"?>
<svg
   xmlns:dc="http://purl.org/dc/elements/1.1/"
   xmlns:cc="http://creativecommons.org/ns#"
   xmlns:rdf="http://www.w3.org/1999/02/22-rdf-syntax-ns#"
   xmlns:svg="http://www.w3.org/2000/svg"
   xmlns="http://www.w3.org/2000/svg"
   xmlns:xlink="http://www.w3.org/1999/xlink"
   xmlns:sodipodi="http://sodipodi.sourceforge.net/DTD/sodipodi-0.dtd"
   xmlns:inkscape="http://www.inkscape.org/namespaces/inkscape"
   height="345.6pt"
   version="1.1"
   viewBox="0 0 460.8 345.6"
   width="460.8pt"
   id="svg337"
   sodipodi:docname="sens_super_eq.svg"
   inkscape:version="1.0.2 (e86c870879, 2021-01-15, custom)">
  <sodipodi:namedview
     pagecolor="#ffffff"
     bordercolor="#666666"
     borderopacity="1"
     objecttolerance="10"
     gridtolerance="10"
     guidetolerance="10"
     inkscape:pageopacity="0"
     inkscape:pageshadow="2"
     inkscape:window-width="1920"
     inkscape:window-height="1001"
     id="namedview339"
     showgrid="false"
     inkscape:snap-global="false"
     inkscape:zoom="1.2736515"
     inkscape:cx="343.70319"
     inkscape:cy="265.6464"
     inkscape:window-x="-9"
     inkscape:window-y="-9"
     inkscape:window-maximized="1"
     inkscape:current-layer="svg337" />
  <metadata
     id="metadata2">
    <rdf:RDF>
      <cc:Work>
        <dc:type
           rdf:resource="http://purl.org/dc/dcmitype/StillImage" />
        <dc:date>2021-02-21T23:17:00.524723</dc:date>
        <dc:format>image/svg+xml</dc:format>
        <dc:creator>
          <cc:Agent>
            <dc:title>Matplotlib v3.3.1, https://matplotlib.org/</dc:title>
          </cc:Agent>
        </dc:creator>
      </cc:Work>
    </rdf:RDF>
  </metadata>
  <defs
     id="defs6">
    <style
       type="text/css"
       id="style4">*{stroke-linecap:butt;stroke-linejoin:round;}</style>
    <rect
       x="47.467953"
       y="318.11856"
       width="89.106506"
       height="43.304096"
       id="rect1466" />
    <rect
       x="47.467953"
       y="318.11856"
       width="89.106506"
       height="43.304096"
       id="rect2505" />
    <rect
       x="47.467953"
       y="318.11856"
       width="89.106506"
       height="43.304096"
       id="rect1466-2" />
    <rect
       x="47.467953"
       y="318.11856"
       width="89.106506"
       height="43.304096"
       id="rect2508" />
    <rect
       x="47.467953"
       y="318.11856"
       width="89.106506"
       height="43.304096"
       id="rect1466-8" />
    <rect
       x="47.467953"
       y="318.11856"
       width="89.106506"
       height="43.304096"
       id="rect2511" />
    <rect
       x="47.467953"
       y="318.11856"
       width="89.106506"
       height="43.304096"
       id="rect1466-4" />
    <rect
       x="47.467953"
       y="318.11856"
       width="89.106506"
       height="43.304096"
       id="rect2514" />
    <rect
       x="47.467953"
       y="318.11856"
       width="89.106506"
       height="43.304096"
       id="rect1466-6" />
    <rect
       x="47.467953"
       y="318.11856"
       width="89.106506"
       height="43.304096"
       id="rect2517" />
    <rect
       x="47.467953"
       y="318.11856"
       width="89.106506"
       height="43.304096"
       id="rect1466-3" />
    <rect
       x="47.467953"
       y="318.11856"
       width="89.106506"
       height="43.304096"
       id="rect2520" />
    <rect
       x="47.467953"
       y="318.11856"
       width="89.106506"
       height="43.304096"
       id="rect1466-7" />
    <rect
       x="47.467953"
       y="318.11856"
       width="89.106506"
       height="43.304096"
       id="rect2523" />
    <rect
       x="6.662169"
       y="34.143616"
       width="94.519524"
       height="53.297352"
       id="rect1650" />
    <rect
       x="6.662169"
       y="34.143616"
       width="94.519524"
       height="53.297352"
       id="rect2560" />
    <rect
       x="6.662169"
       y="34.143616"
       width="94.519524"
       height="53.297352"
       id="rect1650-7" />
    <rect
       x="6.662169"
       y="34.143616"
       width="94.519524"
       height="53.297352"
       id="rect2563" />
    <rect
       x="6.662169"
       y="34.143616"
       width="94.519524"
       height="53.297352"
       id="rect1650-7-1" />
    <rect
       x="6.662169"
       y="34.143616"
       width="94.519524"
       height="53.297352"
       id="rect2566" />
    <rect
       x="6.662169"
       y="34.143616"
       width="94.519524"
       height="53.297352"
       id="rect1650-7-8" />
    <rect
       x="6.662169"
       y="34.143616"
       width="94.519524"
       height="53.297352"
       id="rect2569" />
    <rect
       x="6.662169"
       y="34.143616"
       width="94.519524"
       height="53.297352"
       id="rect1650-7-3" />
    <rect
       x="6.662169"
       y="34.143616"
       width="94.519524"
       height="53.297352"
       id="rect2572" />
    <rect
       x="6.662169"
       y="34.143616"
       width="94.519524"
       height="53.297352"
       id="rect1650-7-7" />
    <rect
       x="6.662169"
       y="34.143616"
       width="94.519524"
       height="53.297352"
       id="rect2575" />
    <rect
       x="6.662169"
       y="34.143616"
       width="94.519524"
       height="53.297352"
       id="rect1650-7-89" />
    <rect
       x="6.662169"
       y="34.143616"
       width="94.519524"
       height="53.297352"
       id="rect2578" />
    <rect
       x="6.662169"
       y="34.143616"
       width="94.519524"
       height="53.297352"
       id="rect1650-7-2" />
    <rect
       x="6.662169"
       y="34.143616"
       width="94.519524"
       height="53.297352"
       id="rect2581" />
    <rect
       x="6.662169"
       y="34.143616"
       width="94.519524"
       height="53.297352"
       id="rect1650-7-6" />
    <rect
       x="6.662169"
       y="34.143616"
       width="94.519524"
       height="53.297352"
       id="rect2584" />
    <rect
       x="-8.3277111"
       y="156.97736"
       width="131.16145"
       height="98.266991"
       id="rect1935" />
    <rect
       x="-8.3277111"
       y="156.97736"
       width="131.16145"
       height="98.266991"
       id="rect2624" />
  </defs>
  <g
     id="figure_1"
     transform="translate(1.5,1.5)">
    <g
       id="patch_1">
      <path
         d="M 0,345.6 H 460.8 V 0 H 0 Z"
         style="fill:#ffffff"
         id="path8" />
    </g>
    <g
       id="axes_1">
      <g
         id="patch_2">
        <path
           d="M 57.6,307.584 H 414.72 V 41.472 H 57.6 Z"
           style="fill:#ffffff"
           id="path11" />
      </g>
      <g
         id="matplotlib.axis_1">
        <g
           id="xtick_1">
          <g
             id="line2d_1">
            <defs
               id="defs15">
              <path
                 d="M 0,0 V 3.5"
                 id="me337246f02"
                 style="stroke:#000000;stroke-width:0.8" />
            </defs>
            <g
               id="g19">
              <use
                 style="stroke:#000000;stroke-width:0.8"
                 x="57.599998"
                 xlink:href="#me337246f02"
                 y="307.58401"
                 id="use17"
                 width="100%"
                 height="100%" />
            </g>
          </g>
          <g
             id="text_1">
            <!-- 0 -->
            <g
               transform="matrix(0.1,0,0,-0.1,54.41875,322.18244)"
               id="g27">
              <defs
                 id="defs23">
                <path
                   d="m 31.78125,66.40625 q -7.609375,0 -11.453125,-7.5 Q 16.5,51.421875 16.5,36.375 q 0,-14.984375 3.828125,-22.484375 3.84375,-7.5 11.453125,-7.5 7.671875,0 11.5,7.5 3.84375,7.5 3.84375,22.484375 0,15.046875 -3.84375,22.53125 -3.828125,7.5 -11.5,7.5 z m 0,7.8125 q 12.265625,0 18.734375,-9.703125 6.46875,-9.6875 6.46875,-28.140625 0,-18.40625 -6.46875,-28.109375 -6.46875,-9.6875 -18.734375,-9.6875 -12.25,0 -18.71875,9.6875 Q 6.59375,17.96875 6.59375,36.375 q 0,18.453125 6.46875,28.140625 6.46875,9.703125 18.71875,9.703125 z"
                   id="DejaVuSans-48" />
              </defs>
              <use
                 xlink:href="#DejaVuSans-48"
                 id="use25"
                 x="0"
                 y="0"
                 width="100%"
                 height="100%" />
            </g>
          </g>
        </g>
        <g
           id="xtick_2">
          <g
             id="line2d_2">
            <g
               id="g33">
              <use
                 style="stroke:#000000;stroke-width:0.8"
                 x="113.4"
                 xlink:href="#me337246f02"
                 y="307.58401"
                 id="use31"
                 width="100%"
                 height="100%" />
            </g>
          </g>
          <g
             id="text_2">
            <!-- 50000 -->
            <g
               transform="matrix(0.1,0,0,-0.1,97.49375,322.18244)"
               id="g49">
              <defs
                 id="defs37">
                <path
                   d="m 10.796875,72.90625 h 38.71875 v -8.3125 h -29.6875 V 46.734375 q 2.140625,0.734375 4.28125,1.09375 2.15625,0.359375 4.3125,0.359375 Q 40.625,48.1875 47.75,41.5 54.890625,34.8125 54.890625,23.390625 54.890625,11.625 47.5625,5.09375 40.234375,-1.421875 26.90625,-1.421875 q -4.59375,0 -9.359375,0.78125 -4.75,0.78125 -9.828125,2.34375 V 11.625 q 4.390625,-2.390625 9.078125,-3.5625 4.6875,-1.171875 9.90625,-1.171875 8.453125,0 13.375,4.4375 4.9375,4.4375 4.9375,12.0625 0,7.609375 -4.9375,12.046875 -4.921875,4.453125 -13.375,4.453125 -3.953125,0 -7.890625,-0.875 -3.921875,-0.875 -8.015625,-2.734375 z"
                   id="DejaVuSans-53" />
              </defs>
              <use
                 xlink:href="#DejaVuSans-53"
                 id="use39"
                 x="0"
                 y="0"
                 width="100%"
                 height="100%" />
              <use
                 x="63.623047"
                 xlink:href="#DejaVuSans-48"
                 id="use41"
                 y="0"
                 width="100%"
                 height="100%" />
              <use
                 x="127.24609"
                 xlink:href="#DejaVuSans-48"
                 id="use43"
                 y="0"
                 width="100%"
                 height="100%" />
              <use
                 x="190.86914"
                 xlink:href="#DejaVuSans-48"
                 id="use45"
                 y="0"
                 width="100%"
                 height="100%" />
              <use
                 x="254.49219"
                 xlink:href="#DejaVuSans-48"
                 id="use47"
                 y="0"
                 width="100%"
                 height="100%" />
            </g>
          </g>
        </g>
        <g
           id="xtick_3">
          <g
             id="line2d_3">
            <g
               id="g55">
              <use
                 style="stroke:#000000;stroke-width:0.8"
                 x="169.2"
                 xlink:href="#me337246f02"
                 y="307.58401"
                 id="use53"
                 width="100%"
                 height="100%" />
            </g>
          </g>
          <g
             id="text_3">
            <!-- 100000 -->
            <g
               transform="matrix(0.1,0,0,-0.1,150.1125,322.18244)"
               id="g73">
              <defs
                 id="defs59">
                <path
                   d="m 12.40625,8.296875 h 16.109375 v 55.625 L 10.984375,60.40625 v 8.984375 l 17.4375,3.515625 H 38.28125 V 8.296875 H 54.390625 V 0 H 12.40625 Z"
                   id="DejaVuSans-49" />
              </defs>
              <use
                 xlink:href="#DejaVuSans-49"
                 id="use61"
                 x="0"
                 y="0"
                 width="100%"
                 height="100%" />
              <use
                 x="63.623047"
                 xlink:href="#DejaVuSans-48"
                 id="use63"
                 y="0"
                 width="100%"
                 height="100%" />
              <use
                 x="127.24609"
                 xlink:href="#DejaVuSans-48"
                 id="use65"
                 y="0"
                 width="100%"
                 height="100%" />
              <use
                 x="190.86914"
                 xlink:href="#DejaVuSans-48"
                 id="use67"
                 y="0"
                 width="100%"
                 height="100%" />
              <use
                 x="254.49219"
                 xlink:href="#DejaVuSans-48"
                 id="use69"
                 y="0"
                 width="100%"
                 height="100%" />
              <use
                 x="318.11523"
                 xlink:href="#DejaVuSans-48"
                 id="use71"
                 y="0"
                 width="100%"
                 height="100%" />
            </g>
          </g>
        </g>
        <g
           id="xtick_4">
          <g
             id="line2d_4">
            <g
               id="g79">
              <use
                 style="stroke:#000000;stroke-width:0.8"
                 x="225"
                 xlink:href="#me337246f02"
                 y="307.58401"
                 id="use77"
                 width="100%"
                 height="100%" />
            </g>
          </g>
          <g
             id="text_4">
            <!-- 150000 -->
            <g
               transform="matrix(0.1,0,0,-0.1,205.9125,322.18244)"
               id="g94">
              <use
                 xlink:href="#DejaVuSans-49"
                 id="use82"
                 x="0"
                 y="0"
                 width="100%"
                 height="100%" />
              <use
                 x="63.623047"
                 xlink:href="#DejaVuSans-53"
                 id="use84"
                 y="0"
                 width="100%"
                 height="100%" />
              <use
                 x="127.24609"
                 xlink:href="#DejaVuSans-48"
                 id="use86"
                 y="0"
                 width="100%"
                 height="100%" />
              <use
                 x="190.86914"
                 xlink:href="#DejaVuSans-48"
                 id="use88"
                 y="0"
                 width="100%"
                 height="100%" />
              <use
                 x="254.49219"
                 xlink:href="#DejaVuSans-48"
                 id="use90"
                 y="0"
                 width="100%"
                 height="100%" />
              <use
                 x="318.11523"
                 xlink:href="#DejaVuSans-48"
                 id="use92"
                 y="0"
                 width="100%"
                 height="100%" />
            </g>
          </g>
        </g>
        <g
           id="xtick_5">
          <g
             id="line2d_5">
            <g
               id="g100">
              <use
                 style="stroke:#000000;stroke-width:0.8"
                 x="280.79999"
                 xlink:href="#me337246f02"
                 y="307.58401"
                 id="use98"
                 width="100%"
                 height="100%" />
            </g>
          </g>
          <g
             id="text_5">
            <!-- 200000 -->
            <g
               transform="matrix(0.1,0,0,-0.1,261.7125,322.18244)"
               id="g118">
              <defs
                 id="defs104">
                <path
                   d="M 19.1875,8.296875 H 53.609375 V 0 H 7.328125 v 8.296875 q 5.609375,5.8125 15.296875,15.59375 9.703125,9.796875 12.1875,12.640625 4.734375,5.3125 6.609375,9 1.890625,3.6875 1.890625,7.25 0,5.8125 -4.078125,9.46875 -4.078125,3.671875 -10.625,3.671875 -4.640625,0 -9.796875,-1.609375 -5.140625,-1.609375 -11,-4.890625 v 9.96875 Q 13.765625,71.78125 18.9375,73 q 5.1875,1.21875 9.484375,1.21875 11.328125,0 18.0625,-5.671875 6.734375,-5.65625 6.734375,-15.125 0,-4.5 -1.6875,-8.53125 Q 49.859375,40.875 45.40625,35.40625 44.1875,33.984375 37.640625,27.21875 31.109375,20.453125 19.1875,8.296875 Z"
                   id="DejaVuSans-50" />
              </defs>
              <use
                 xlink:href="#DejaVuSans-50"
                 id="use106"
                 x="0"
                 y="0"
                 width="100%"
                 height="100%" />
              <use
                 x="63.623047"
                 xlink:href="#DejaVuSans-48"
                 id="use108"
                 y="0"
                 width="100%"
                 height="100%" />
              <use
                 x="127.24609"
                 xlink:href="#DejaVuSans-48"
                 id="use110"
                 y="0"
                 width="100%"
                 height="100%" />
              <use
                 x="190.86914"
                 xlink:href="#DejaVuSans-48"
                 id="use112"
                 y="0"
                 width="100%"
                 height="100%" />
              <use
                 x="254.49219"
                 xlink:href="#DejaVuSans-48"
                 id="use114"
                 y="0"
                 width="100%"
                 height="100%" />
              <use
                 x="318.11523"
                 xlink:href="#DejaVuSans-48"
                 id="use116"
                 y="0"
                 width="100%"
                 height="100%" />
            </g>
          </g>
        </g>
        <g
           id="xtick_6">
          <g
             id="line2d_6">
            <g
               id="g124">
              <use
                 style="stroke:#000000;stroke-width:0.8"
                 x="336.60001"
                 xlink:href="#me337246f02"
                 y="307.58401"
                 id="use122"
                 width="100%"
                 height="100%" />
            </g>
          </g>
          <g
             id="text_6">
            <!-- 250000 -->
            <g
               transform="matrix(0.1,0,0,-0.1,317.5125,322.18244)"
               id="g139">
              <use
                 xlink:href="#DejaVuSans-50"
                 id="use127"
                 x="0"
                 y="0"
                 width="100%"
                 height="100%" />
              <use
                 x="63.623047"
                 xlink:href="#DejaVuSans-53"
                 id="use129"
                 y="0"
                 width="100%"
                 height="100%" />
              <use
                 x="127.24609"
                 xlink:href="#DejaVuSans-48"
                 id="use131"
                 y="0"
                 width="100%"
                 height="100%" />
              <use
                 x="190.86914"
                 xlink:href="#DejaVuSans-48"
                 id="use133"
                 y="0"
                 width="100%"
                 height="100%" />
              <use
                 x="254.49219"
                 xlink:href="#DejaVuSans-48"
                 id="use135"
                 y="0"
                 width="100%"
                 height="100%" />
              <use
                 x="318.11523"
                 xlink:href="#DejaVuSans-48"
                 id="use137"
                 y="0"
                 width="100%"
                 height="100%" />
            </g>
          </g>
        </g>
        <g
           id="xtick_7">
          <g
             id="line2d_7">
            <g
               id="g145">
              <use
                 style="stroke:#000000;stroke-width:0.8"
                 x="392.39999"
                 xlink:href="#me337246f02"
                 y="307.58401"
                 id="use143"
                 width="100%"
                 height="100%" />
            </g>
          </g>
          <g
             id="text_7">
            <!-- 300000 -->
            <g
               transform="matrix(0.1,0,0,-0.1,373.3125,322.18244)"
               id="g163">
              <defs
                 id="defs149">
                <path
                   d="M 40.578125,39.3125 Q 47.65625,37.796875 51.625,33 q 3.984375,-4.78125 3.984375,-11.8125 0,-10.78125 -7.421875,-16.703125 -7.421875,-5.90625 -21.09375,-5.90625 -4.578125,0 -9.4375,0.90625 -4.859375,0.90625 -10.03125,2.71875 v 9.515625 q 4.09375,-2.390625 8.96875,-3.609375 4.890625,-1.21875 10.21875,-1.21875 9.265625,0 14.125,3.65625 4.859375,3.65625 4.859375,10.640625 0,6.453125 -4.515625,10.078125 -4.515625,3.640625 -12.5625,3.640625 h -8.5 v 8.109375 h 8.890625 q 7.265625,0 11.125,2.90625 3.859375,2.90625 3.859375,8.375 0,5.609375 -3.984375,8.609375 -3.96875,3.015625 -11.390625,3.015625 -4.0625,0 -8.703125,-0.890625 Q 15.375,64.15625 9.8125,62.3125 v 8.78125 q 5.625,1.5625 10.53125,2.34375 4.90625,0.78125 9.25,0.78125 11.234375,0 17.765625,-5.109375 6.546875,-5.09375 6.546875,-13.78125 0,-6.0625 -3.46875,-10.234375 -3.46875,-4.171875 -9.859375,-5.78125 z"
                   id="DejaVuSans-51" />
              </defs>
              <use
                 xlink:href="#DejaVuSans-51"
                 id="use151"
                 x="0"
                 y="0"
                 width="100%"
                 height="100%" />
              <use
                 x="63.623047"
                 xlink:href="#DejaVuSans-48"
                 id="use153"
                 y="0"
                 width="100%"
                 height="100%" />
              <use
                 x="127.24609"
                 xlink:href="#DejaVuSans-48"
                 id="use155"
                 y="0"
                 width="100%"
                 height="100%" />
              <use
                 x="190.86914"
                 xlink:href="#DejaVuSans-48"
                 id="use157"
                 y="0"
                 width="100%"
                 height="100%" />
              <use
                 x="254.49219"
                 xlink:href="#DejaVuSans-48"
                 id="use159"
                 y="0"
                 width="100%"
                 height="100%" />
              <use
                 x="318.11523"
                 xlink:href="#DejaVuSans-48"
                 id="use161"
                 y="0"
                 width="100%"
                 height="100%" />
            </g>
          </g>
        </g>
        <g
           id="text_8">
          <!-- x -->
          <g
             transform="matrix(0.1,0,0,-0.1,233.20062,335.86056)"
             id="g172">
            <defs
               id="defs168">
              <path
                 d="M 54.890625,54.6875 35.109375,28.078125 55.90625,0 H 45.3125 L 29.390625,21.484375 13.484375,0 H 2.875 L 24.125,28.609375 4.6875,54.6875 h 10.59375 l 14.5,-19.484375 14.5,19.484375 z"
                 id="DejaVuSans-120" />
            </defs>
            <use
               xlink:href="#DejaVuSans-120"
               id="use170"
               x="0"
               y="0"
               width="100%"
               height="100%" />
          </g>
        </g>
      </g>
      <g
         id="matplotlib.axis_2">
        <g
           id="ytick_1">
          <g
             id="line2d_8">
            <defs
               id="defs177">
              <path
                 d="M 0,0 H -3.5"
                 id="mdf2cb293b1"
                 style="stroke:#000000;stroke-width:0.8" />
            </defs>
            <g
               id="g181">
              <use
                 style="stroke:#000000;stroke-width:0.8"
                 x="57.599998"
                 xlink:href="#mdf2cb293b1"
                 y="285.55853"
                 id="use179"
                 width="100%"
                 height="100%" />
            </g>
          </g>
          <g
             id="text_9">
            <!-- 0.70 -->
            <g
               transform="matrix(0.1,0,0,-0.1,28.334375,289.35774)"
               id="g196">
              <defs
                 id="defs186">
                <path
                   d="M 10.6875,12.40625 H 21 V 0 H 10.6875 Z"
                   id="DejaVuSans-46" />
                <path
                   d="m 8.203125,72.90625 h 46.875 V 68.703125 L 28.609375,0 H 18.3125 L 43.21875,64.59375 H 8.203125 Z"
                   id="DejaVuSans-55" />
              </defs>
              <use
                 xlink:href="#DejaVuSans-48"
                 id="use188"
                 x="0"
                 y="0"
                 width="100%"
                 height="100%" />
              <use
                 x="63.623047"
                 xlink:href="#DejaVuSans-46"
                 id="use190"
                 y="0"
                 width="100%"
                 height="100%" />
              <use
                 x="95.410156"
                 xlink:href="#DejaVuSans-55"
                 id="use192"
                 y="0"
                 width="100%"
                 height="100%" />
              <use
                 x="159.0332"
                 xlink:href="#DejaVuSans-48"
                 id="use194"
                 y="0"
                 width="100%"
                 height="100%" />
            </g>
          </g>
        </g>
        <g
           id="ytick_2">
          <g
             id="line2d_9">
            <g
               id="g202">
              <use
                 style="stroke:#000000;stroke-width:0.8"
                 x="57.599998"
                 xlink:href="#mdf2cb293b1"
                 y="241.97974"
                 id="use200"
                 width="100%"
                 height="100%" />
            </g>
          </g>
          <g
             id="text_10">
            <!-- 0.75 -->
            <g
               transform="matrix(0.1,0,0,-0.1,28.334375,245.77896)"
               id="g213">
              <use
                 xlink:href="#DejaVuSans-48"
                 id="use205"
                 x="0"
                 y="0"
                 width="100%"
                 height="100%" />
              <use
                 x="63.623047"
                 xlink:href="#DejaVuSans-46"
                 id="use207"
                 y="0"
                 width="100%"
                 height="100%" />
              <use
                 x="95.410156"
                 xlink:href="#DejaVuSans-55"
                 id="use209"
                 y="0"
                 width="100%"
                 height="100%" />
              <use
                 x="159.0332"
                 xlink:href="#DejaVuSans-53"
                 id="use211"
                 y="0"
                 width="100%"
                 height="100%" />
            </g>
          </g>
        </g>
        <g
           id="ytick_3">
          <g
             id="line2d_10">
            <g
               id="g219">
              <use
                 style="stroke:#000000;stroke-width:0.8"
                 x="57.599998"
                 xlink:href="#mdf2cb293b1"
                 y="198.40096"
                 id="use217"
                 width="100%"
                 height="100%" />
            </g>
          </g>
          <g
             id="text_11">
            <!-- 0.80 -->
            <g
               transform="matrix(0.1,0,0,-0.1,28.334375,202.20017)"
               id="g233">
              <defs
                 id="defs223">
                <path
                   d="m 31.78125,34.625 q -7.03125,0 -11.0625,-3.765625 -4.015625,-3.765625 -4.015625,-10.34375 0,-6.59375 4.015625,-10.359375 4.03125,-3.765625 11.0625,-3.765625 7.03125,0 11.078125,3.78125 4.0625,3.796875 4.0625,10.34375 0,6.578125 -4.03125,10.34375 Q 38.875,34.625 31.78125,34.625 Z m -9.859375,4.1875 Q 15.578125,40.375 12.03125,44.71875 8.5,49.078125 8.5,55.328125 q 0,8.734375 6.21875,13.8125 6.234375,5.078125 17.0625,5.078125 10.890625,0 17.09375,-5.078125 6.203125,-5.078125 6.203125,-13.8125 0,-6.25 -3.546875,-10.609375 Q 48,40.375 41.703125,38.8125 q 7.125,-1.65625 11.09375,-6.5 3.984375,-4.828125 3.984375,-11.796875 0,-10.609375 -6.46875,-16.28125 -6.46875,-5.65625 -18.53125,-5.65625 -12.046875,0 -18.53125,5.65625 -6.46875,5.671875 -6.46875,16.28125 0,6.96875 4,11.796875 4.015625,4.84375 11.140625,6.5 z M 18.3125,54.390625 q 0,-5.65625 3.53125,-8.828125 3.546875,-3.171875 9.9375,-3.171875 6.359375,0 9.9375,3.171875 3.59375,3.171875 3.59375,8.828125 0,5.671875 -3.59375,8.84375 -3.578125,3.171875 -9.9375,3.171875 -6.390625,0 -9.9375,-3.171875 Q 18.3125,60.0625 18.3125,54.390625 Z"
                   id="DejaVuSans-56" />
              </defs>
              <use
                 xlink:href="#DejaVuSans-48"
                 id="use225"
                 x="0"
                 y="0"
                 width="100%"
                 height="100%" />
              <use
                 x="63.623047"
                 xlink:href="#DejaVuSans-46"
                 id="use227"
                 y="0"
                 width="100%"
                 height="100%" />
              <use
                 x="95.410156"
                 xlink:href="#DejaVuSans-56"
                 id="use229"
                 y="0"
                 width="100%"
                 height="100%" />
              <use
                 x="159.0332"
                 xlink:href="#DejaVuSans-48"
                 id="use231"
                 y="0"
                 width="100%"
                 height="100%" />
            </g>
          </g>
        </g>
        <g
           id="ytick_4">
          <g
             id="line2d_11">
            <g
               id="g239">
              <use
                 style="stroke:#000000;stroke-width:0.8"
                 x="57.599998"
                 xlink:href="#mdf2cb293b1"
                 y="154.82216"
                 id="use237"
                 width="100%"
                 height="100%" />
            </g>
          </g>
          <g
             id="text_12">
            <!-- 0.85 -->
            <g
               transform="matrix(0.1,0,0,-0.1,28.334375,158.62138)"
               id="g250">
              <use
                 xlink:href="#DejaVuSans-48"
                 id="use242"
                 x="0"
                 y="0"
                 width="100%"
                 height="100%" />
              <use
                 x="63.623047"
                 xlink:href="#DejaVuSans-46"
                 id="use244"
                 y="0"
                 width="100%"
                 height="100%" />
              <use
                 x="95.410156"
                 xlink:href="#DejaVuSans-56"
                 id="use246"
                 y="0"
                 width="100%"
                 height="100%" />
              <use
                 x="159.0332"
                 xlink:href="#DejaVuSans-53"
                 id="use248"
                 y="0"
                 width="100%"
                 height="100%" />
            </g>
          </g>
        </g>
        <g
           id="ytick_5">
          <g
             id="line2d_12">
            <g
               id="g256">
              <use
                 style="stroke:#000000;stroke-width:0.8"
                 x="57.599998"
                 xlink:href="#mdf2cb293b1"
                 y="111.24338"
                 id="use254"
                 width="100%"
                 height="100%" />
            </g>
          </g>
          <g
             id="text_13">
            <!-- 0.90 -->
            <g
               transform="matrix(0.1,0,0,-0.1,28.334375,115.0426)"
               id="g270">
              <defs
                 id="defs260">
                <path
                   d="M 10.984375,1.515625 V 10.5 Q 14.703125,8.734375 18.5,7.8125 q 3.8125,-0.921875 7.484375,-0.921875 9.765625,0 14.90625,6.5625 5.15625,6.5625 5.890625,19.953125 -2.828125,-4.203125 -7.1875,-6.453125 -4.34375,-2.25 -9.609375,-2.25 -10.9375,0 -17.3125,6.609375 -6.375,6.625 -6.375,18.109375 0,11.21875 6.640625,18 6.640625,6.796875 17.671875,6.796875 12.65625,0 19.3125,-9.703125 6.671875,-9.6875 6.671875,-28.140625 0,-17.234375 -8.1875,-27.515625 -8.171875,-10.28125 -21.984375,-10.28125 -3.71875,0 -7.53125,0.734375 -3.796875,0.734375 -7.90625,2.203125 z m 19.625,30.90625 q 6.640625,0 10.515625,4.53125 3.890625,4.546875 3.890625,12.46875 0,7.859375 -3.890625,12.421875 -3.875,4.5625 -10.515625,4.5625 -6.640625,0 -10.515625,-4.5625 -3.875,-4.5625 -3.875,-12.421875 0,-7.921875 3.875,-12.46875 3.875,-4.53125 10.515625,-4.53125 z"
                   id="DejaVuSans-57" />
              </defs>
              <use
                 xlink:href="#DejaVuSans-48"
                 id="use262"
                 x="0"
                 y="0"
                 width="100%"
                 height="100%" />
              <use
                 x="63.623047"
                 xlink:href="#DejaVuSans-46"
                 id="use264"
                 y="0"
                 width="100%"
                 height="100%" />
              <use
                 x="95.410156"
                 xlink:href="#DejaVuSans-57"
                 id="use266"
                 y="0"
                 width="100%"
                 height="100%" />
              <use
                 x="159.0332"
                 xlink:href="#DejaVuSans-48"
                 id="use268"
                 y="0"
                 width="100%"
                 height="100%" />
            </g>
          </g>
        </g>
        <g
           id="ytick_6">
          <g
             id="line2d_13">
            <g
               id="g276">
              <use
                 style="stroke:#000000;stroke-width:0.8"
                 x="57.599998"
                 xlink:href="#mdf2cb293b1"
                 y="67.664589"
                 id="use274"
                 width="100%"
                 height="100%" />
            </g>
          </g>
          <g
             id="text_14">
            <!-- 0.95 -->
            <g
               transform="matrix(0.1,0,0,-0.1,28.334375,71.46381)"
               id="g287">
              <use
                 xlink:href="#DejaVuSans-48"
                 id="use279"
                 x="0"
                 y="0"
                 width="100%"
                 height="100%" />
              <use
                 x="63.623047"
                 xlink:href="#DejaVuSans-46"
                 id="use281"
                 y="0"
                 width="100%"
                 height="100%" />
              <use
                 x="95.410156"
                 xlink:href="#DejaVuSans-57"
                 id="use283"
                 y="0"
                 width="100%"
                 height="100%" />
              <use
                 x="159.0332"
                 xlink:href="#DejaVuSans-53"
                 id="use285"
                 y="0"
                 width="100%"
                 height="100%" />
            </g>
          </g>
        </g>
        <g
           id="text_15">
          <!-- y -->
          <g
             transform="matrix(0,-0.1,-0.1,0,22.254688,177.48737)"
             id="g296">
            <defs
               id="defs292">
              <path
                 d="M 32.171875,-5.078125 Q 28.375,-14.84375 24.75,-17.8125 q -3.609375,-2.984375 -9.65625,-2.984375 h -7.1875 v 7.515625 h 5.28125 q 3.703125,0 5.75,1.765625 2.0625,1.75 4.546875,8.296875 L 25.09375,0.875 2.984375,54.6875 H 12.5 L 29.59375,11.921875 46.6875,54.6875 h 9.515625 z"
                 id="DejaVuSans-121" />
            </defs>
            <use
               xlink:href="#DejaVuSans-121"
               id="use294"
               x="0"
               y="0"
               width="100%"
               height="100%" />
          </g>
        </g>
      </g>
      <g
         id="line2d_14">
        <path
           clip-path="url(#p8f5aa1f9c2)"
           d="m 57.6,112.99438 5.58,1.36228 1.116,0.26517 10.044,2.2922 5.58,1.03575 22.32,8.33423 44.64,0.19178 44.64,-0.78226 44.64,-0.9817 178.56,5.1361"
           style="fill:none;stroke:#1b9e77;stroke-width:2;stroke-dasharray:7.4, 3.2;stroke-dashoffset:0"
           id="path300" />
      </g>
      <g
         id="line2d_15">
        <path
           clip-path="url(#p8f5aa1f9c2)"
           d="m 57.6,53.568 5.58,2.716495 1.116,0.542505 10.044,4.872239 5.58,2.676298 22.32,-0.626644 44.64,2.170406 44.64,1.603638 44.64,1.677108 178.56,1.546741"
           style="fill:none;stroke:#d95f02;stroke-width:2;stroke-dasharray:7.4, 3.2;stroke-dashoffset:0"
           id="path303" />
      </g>
      <g
         id="line2d_16">
        <path
           clip-path="url(#p8f5aa1f9c2)"
           d="m 57.6,120.43262 5.58,-0.4776 1.116,-0.0971 10.044,-0.89401 27.9,-2.86433 44.64,7.68823 44.64,2.46673 44.64,1.73603 178.56,13.15016"
           style="fill:none;stroke:#7570b3;stroke-width:2;stroke-dasharray:7.4, 3.2;stroke-dashoffset:0"
           id="path306" />
      </g>
      <g
         id="line2d_17">
        <path
           clip-path="url(#p8f5aa1f9c2)"
           d="m 57.6,123.60565 5.58,-4.58285 1.116,-0.91455 10.044,-8.27601 5.58,-4.65259 22.32,50.78212 44.64,-4.94005 44.64,-1.98542 44.64,-3.74869 178.56,-1.72239"
           style="fill:none;stroke:#1b9e77;stroke-width:2;stroke-dasharray:2, 3.3;stroke-dashoffset:0"
           id="path309" />
      </g>
      <g
         id="line2d_18">
        <path
           clip-path="url(#p8f5aa1f9c2)"
           d="m 57.6,171.48294 5.58,5.25591 1.116,1.06332 10.044,9.68916 5.58,5.67889 22.32,10.96057 44.64,2.84575 44.64,2.03471 44.64,1.03542 178.56,-8.51129"
           style="fill:none;stroke:#d95f02;stroke-width:2;stroke-dasharray:2, 3.3;stroke-dashoffset:0"
           id="path312" />
      </g>
      <g
         id="line2d_19">
        <path
           clip-path="url(#p8f5aa1f9c2)"
           d="m 57.6,284.3444 5.58,0.56636 1.116,0.0554 10.044,-0.1658 27.9,-21.8439 44.64,6.99563 44.64,7.64218 44.64,8.00831 178.56,9.88546"
           style="fill:none;stroke:#7570b3;stroke-width:2;stroke-dasharray:2, 3.3;stroke-dashoffset:0"
           id="path315" />
      </g>
      <g
         id="patch_3">
        <path
           d="M 57.6,307.584 V 41.472"
           style="fill:none;stroke:#000000;stroke-width:0.8;stroke-linecap:square;stroke-linejoin:miter"
           id="path318" />
      </g>
      <g
         id="patch_4">
        <path
           d="M 414.72,307.584 V 41.472"
           style="fill:none;stroke:#000000;stroke-width:0.8;stroke-linecap:square;stroke-linejoin:miter"
           id="path321" />
      </g>
      <g
         id="patch_5">
        <path
           d="M 57.6,307.584 H 414.72"
           style="fill:none;stroke:#000000;stroke-width:0.8;stroke-linecap:square;stroke-linejoin:miter"
           id="path324" />
      </g>
      <g
         id="patch_6">
        <path
           d="M 57.6,41.472 H 414.72"
           style="fill:none;stroke:#000000;stroke-width:0.8;stroke-linecap:square;stroke-linejoin:miter"
           id="path327" />
      </g>
    </g>
  </g>
  <defs
     id="defs335">
    <clipPath
       id="p8f5aa1f9c2">
      <rect
         height="266.112"
         width="357.12"
         x="57.6"
         y="41.472"
         id="rect332" />
    </clipPath>
  </defs>
  <g
     id="g1644"
     transform="translate(-1.7300331,2.7453226)"
     style="stroke-linecap:butt;stroke-linejoin:round">
    <rect
       style="opacity:0.999;fill:#ffffff;fill-opacity:1;fill-rule:evenodd;stroke:none;stroke-width:0.725966;stroke-dasharray:8.71163, 0.725966"
       id="rect1462"
       width="367.25204"
       height="30.812531"
       x="53.713737"
       y="312.70557" />
    <text
       xml:space="preserve"
       id="text1464"
       style="font-weight:500;font-size:15px;line-height:1.25;font-family:'CMU Concrete';-inkscape-font-specification:'CMU Concrete, Medium';letter-spacing:0px;word-spacing:0px;white-space:pre;shape-inside:url(#rect1466);"
       transform="translate(5.4130122,-8.2131861)"><tspan
         x="47.46875"
         y="331.99121"><tspan
           style="font-size:15px;stroke-linecap:butt;stroke-linejoin:round">0</tspan></tspan></text>
    <text
       xml:space="preserve"
       id="text1464-7"
       style="font-weight:500;font-size:15px;line-height:1.25;font-family:'CMU Concrete';-inkscape-font-specification:'CMU Concrete, Medium';letter-spacing:0px;word-spacing:0px;white-space:pre;shape-inside:url(#rect1466-2);stroke-linecap:butt;stroke-linejoin:round;"
       transform="translate(46.569236,-8.2131861)"><tspan
         x="47.46875"
         y="331.99121"><tspan
           style="stroke-linecap:butt;stroke-linejoin:round">50000</tspan></tspan></text>
    <text
       xml:space="preserve"
       id="text1464-6"
       style="font-weight:500;font-size:15px;line-height:1.25;font-family:'CMU Concrete';-inkscape-font-specification:'CMU Concrete, Medium';letter-spacing:0px;word-spacing:0px;white-space:pre;shape-inside:url(#rect1466-8);stroke-linecap:butt;stroke-linejoin:round;"
       transform="translate(98.686166,-8.2131861)"><tspan
         x="47.46875"
         y="331.99121"><tspan
           style="stroke-linecap:butt;stroke-linejoin:round">100000</tspan></tspan></text>
    <text
       xml:space="preserve"
       id="text1464-3"
       style="font-weight:500;font-size:15px;line-height:1.25;font-family:'CMU Concrete';-inkscape-font-specification:'CMU Concrete, Medium';letter-spacing:0px;word-spacing:0px;white-space:pre;shape-inside:url(#rect1466-4);stroke-linecap:butt;stroke-linejoin:round;"
       transform="translate(154.90099,-8.2131861)"><tspan
         x="47.46875"
         y="331.99121"><tspan
           style="stroke-linecap:butt;stroke-linejoin:round">150000</tspan></tspan></text>
    <text
       xml:space="preserve"
       id="text1464-0"
       style="font-weight:500;font-size:15px;line-height:1.25;font-family:'CMU Concrete';-inkscape-font-specification:'CMU Concrete, Medium';letter-spacing:0px;word-spacing:0px;white-space:pre;shape-inside:url(#rect1466-6);stroke-linecap:butt;stroke-linejoin:round;"
       transform="translate(211.46371,-8.2131861)"><tspan
         x="47.46875"
         y="331.99121"><tspan
           style="stroke-linecap:butt;stroke-linejoin:round">200000</tspan></tspan></text>
    <text
       xml:space="preserve"
       id="text1464-5"
       style="font-weight:500;font-size:15px;line-height:1.25;font-family:'CMU Concrete';-inkscape-font-specification:'CMU Concrete, Medium';letter-spacing:0px;word-spacing:0px;white-space:pre;shape-inside:url(#rect1466-3);stroke-linecap:butt;stroke-linejoin:round;"
       transform="translate(267.67853,-8.2131861)"><tspan
         x="47.46875"
         y="331.99121"><tspan
           style="stroke-linecap:butt;stroke-linejoin:round">250000</tspan></tspan></text>
    <text
       xml:space="preserve"
       id="text1464-2"
       style="font-weight:500;font-size:15px;line-height:1.25;font-family:'CMU Concrete';-inkscape-font-specification:'CMU Concrete, Medium';letter-spacing:0px;word-spacing:0px;white-space:pre;shape-inside:url(#rect1466-7);stroke-linecap:butt;stroke-linejoin:round;"
       transform="translate(323.95928,-8.2131861)"><tspan
         x="47.46875"
         y="331.99121"><tspan
           style="stroke-linecap:butt;stroke-linejoin:round">300000</tspan></tspan></text>
    <text
       xml:space="preserve"
       style="font-weight:500;font-size:15px;line-height:1.25;font-family:'CMU Concrete';-inkscape-font-specification:'CMU Concrete, Medium';letter-spacing:0px;word-spacing:0px;stroke-width:0.75"
       x="96.185059"
       y="343.10168"
       id="text1619"><tspan
         sodipodi:role="line"
         id="tspan1617"
         x="96.185059"
         y="343.10168"
         style="font-size:15px;stroke-width:0.75">Maximal number of comparisons per slide</tspan></text>
  </g>
  <rect
     style="opacity:0.999;fill:#ffffff;fill-opacity:1;fill-rule:evenodd;stroke:none;stroke-width:0.725966;stroke-dasharray:8.71163, 0.725966"
     id="rect1646"
     width="45.80241"
     height="278.97833"
     x="6.9620037"
     y="35.780323" />
  <text
     xml:space="preserve"
     id="text1648-3"
     style="font-weight:500;font-size:15px;line-height:1.25;font-family:'CMU Concrete';-inkscape-font-specification:'CMU Concrete, Medium';letter-spacing:0px;word-spacing:0px;white-space:pre;shape-inside:url(#rect1650-7);stroke-linecap:butt;stroke-linejoin:round;"
     transform="translate(17.211368,24.954938)"><tspan
       x="6.6621094"
       y="48.016602"><tspan
         style="stroke-linecap:butt;stroke-linejoin:round">0.95</tspan></tspan></text>
  <text
     xml:space="preserve"
     id="text1648-3-2"
     style="font-weight:500;font-size:15px;line-height:1.25;font-family:'CMU Concrete';-inkscape-font-specification:'CMU Concrete, Medium';letter-spacing:0px;word-spacing:0px;white-space:pre;shape-inside:url(#rect1650-7-1);stroke-linecap:butt;stroke-linejoin:round;"
     transform="translate(18.286545,68.006654)"
     inkscape:transform-center-x="-3.74747"
     inkscape:transform-center-y="-27.065061"><tspan
       x="6.6621094"
       y="48.016602"><tspan
         style="stroke-linecap:butt;stroke-linejoin:round">0.90</tspan></tspan></text>
  <text
     xml:space="preserve"
     id="text1648-3-1"
     style="font-weight:500;font-size:15px;line-height:1.25;font-family:'CMU Concrete';-inkscape-font-specification:'CMU Concrete, Medium';letter-spacing:0px;word-spacing:0px;white-space:pre;shape-inside:url(#rect1650-7-8);stroke-linecap:butt;stroke-linejoin:round;"
     transform="translate(17.211368,112.98972)"><tspan
       x="6.6621094"
       y="48.016602"><tspan
         style="stroke-linecap:butt;stroke-linejoin:round">0.85</tspan></tspan></text>
  <text
     xml:space="preserve"
     id="text1648-3-3"
     style="font-weight:500;font-size:15px;line-height:1.25;font-family:'CMU Concrete';-inkscape-font-specification:'CMU Concrete, Medium';letter-spacing:0px;word-spacing:0px;white-space:pre;shape-inside:url(#rect1650-7-7);stroke-linecap:butt;stroke-linejoin:round;"
     transform="translate(18.389084,156.6008)"
     inkscape:transform-center-x="-4.1638556"
     inkscape:transform-center-y="-32.894459"><tspan
       x="6.6621094"
       y="48.016602"><tspan
         style="stroke-linecap:butt;stroke-linejoin:round">0.80</tspan></tspan></text>
  <text
     xml:space="preserve"
     id="text1648-3-0"
     style="font-weight:500;font-size:15px;line-height:1.25;font-family:'CMU Concrete';-inkscape-font-specification:'CMU Concrete, Medium';letter-spacing:0px;word-spacing:0px;white-space:pre;shape-inside:url(#rect1650-7-89);stroke-linecap:butt;stroke-linejoin:round;"
     transform="translate(18.286545,198.47484)"><tspan
       x="6.6621094"
       y="48.016602"><tspan
         style="stroke-linecap:butt;stroke-linejoin:round">0.75</tspan></tspan></text>
  <text
     xml:space="preserve"
     id="text1648-3-26"
     style="font-weight:500;font-size:15px;line-height:1.25;font-family:'CMU Concrete';-inkscape-font-specification:'CMU Concrete, Medium';letter-spacing:0px;word-spacing:0px;white-space:pre;shape-inside:url(#rect1650-7-2);stroke-linecap:butt;stroke-linejoin:round;"
     transform="translate(19.5668,243.45789)"
     inkscape:transform-center-x="-2.9146989"
     inkscape:transform-center-y="-27.897833"><tspan
       x="6.6621094"
       y="48.016602"><tspan
         style="stroke-linecap:butt;stroke-linejoin:round">0.70</tspan></tspan></text>
  <text
     xml:space="preserve"
     id="text1933"
     style="font-weight:500;font-size:30px;line-height:1.25;font-family:'CMU Concrete';-inkscape-font-specification:'CMU Concrete, Medium';letter-spacing:0px;word-spacing:0px;white-space:pre;shape-inside:url(#rect1935);stroke-linecap:butt;stroke-linejoin:round;"
     transform="rotate(-90,18.055431,188.69327)"><tspan
       x="-8.328125"
       y="184.7207"><tspan
         style="font-size:15px;stroke-linecap:butt;stroke-linejoin:round">Sensibility</tspan></tspan></text>
</svg>
